<svg xmlns="http://www.w3.org/2000/svg" height="153.53" viewBox="0 0 230.1509 233.51216" width="298.28"><g transform="matrix(.4752 0 0 .4752 -3.9925 -4.5207)"><path stroke-width="14.634" d="m-216.16 19.485v465.01s121.95-52.344 186.99-67.401v-81.74s145.76-32.981 274.11-32.981c128.34 0 287.73 32.981 287.73 32.981v82.459c72.932 18.641 184.84 68.115 184.84 68.115v-463.91h-132.44l-49.114 49.116v16.133h-567.72l0.3922-15.774-51.993-51.999-132.8-0.026z" stroke="#000"/><path fill="#b2b2b2" d="m-208.12 31.193v434.64s91.464-39.513 169.03-57.806v-83.416s133.17-35.854 281.71-35.854 302.93 35.122 302.93 35.122v84.147c73.172 21.22 164.64 60.732 164.64 60.732v-275.86l-35.854-35.854h35.854v-124.39h-122.93l-40.976 40.976v25.61h-66.586l-18.293 18.293-18.659-18.659h-483.3v-25.244l-43.171-43.171-124.39 0.73172z"/><path fill="#fff" d="m-197.14 42.9v406.1l143.42-50.488v-84.147s60.867-18.362 151.54-30.052l-0.07464-27.754 12.256 25.976c36.186-3.8927 88.924-7.683 131.16-7.683 24.29 0 47.106 0.53415 70.428 2.0122l1.0976-14.451 5.8537 14.817c14.7 1.0259 29.937 2.4117 43.903 3.8415v-19.39l21.471 21.96c19.33 2.2522 35.965 4.1415 52.981 6.7596l21.037-22.683-0.18293 25.976c61.018 10.121 99.513 20.671 99.513 20.671v49.025l31.464 44.635 106.83 39.513v-248.78l-37.318-34.391h-28.537v-20.488h65.854v-98.782h-104.64l-33.659 35.122v55.61l-23.415-23.415h-49.025l-25.976 25.976-23.415-23.415h-50.854l-21.769 21.769v-23.598h-54.33v17.561l-8.0489-19.025h-42.44v24.878l-21.951-21.951h-49.025l-31.83 31.83 11.342-32.561h-60.001l-7.3172 18.293v-20.488h-55.61v25.61l-23.415-23.415h-74.635v-34.391l-35.82-35.838-106.83-0.732z"/><path d="m551.51 35.422-19.484 19.482v68.555l19.605 19.604h24.414v101.15l-9.6211-3.3672v-47.146l-33.676-12.027v56.768l18.762 24.535 58.691 20.686v-150.1l-20.205-20.205h-23.572v-50.994h10.102l-0.48047 25.979h34.637v-52.918h-59.172zm-512.35 0.48047v247.75l35.119-12.508v-129.89h9.1406v126.04l34.156-10.104v-200.13l-21.168-21.168h-57.248zm330.02 44.26v38.967l-15.875-38.486h-16.357v94.771l21.168 0.96289v-35.6l15.875 36.562 16.838 1.4434v-98.621h-21.648zm-82.986 0.24024-14.191 14.191v82.264l24.533-0.96094v-37.525h6.2559v37.525l22.971 0.48047v-82.145l-13.832-13.83h-25.736zm-156.59 0.24023v117.38l22.611-4.8106v-54.844h9.1406v54.363l21.648-4.8125v-50.031l-9.1406-9.1406 8.6602-8.6582 0.48047-25.979-13.471-13.471h-39.93zm88.037 0-23.092 0.48047v104.39l23.092-3.3672v-43.779l19.244 41.373 24.535-0.96094-21.168-50.514 19.725-47.146h-25.016l-17.32 36.563v-37.043zm197.24 0.48047-12.51 12.508v30.789l13.471 13.471h15.395v25.498h-5.291v-11.547l-23.574-3.3672v19.242l13.471 13.471 26.941 3.3672 13.709-13.711v-37.283l-14.07-14.07h-16.959v-18.643h6.2539l0.48242 10.584h23.572v-16.838l-13.471-13.471h-27.42zm65.666 0.24023-13.711 13.711v91.887l23.572 5.291v-54.842h6.7363v55.805l23.211 6.2539v-104.03l-14.07-14.072h-25.738z" transform="matrix(1.521 0 0 1.521 -242.8 0)" fill="#9d2235"/><path d="m73.799 62.842v51.957h9.623v-51.957h-9.623zm222.26 36.082v21.168h6.2539v-21.168h-6.2539zm194.36 0.48047v20.205h6.7363v-20.205h-6.7363zm-337.23 0.48047v20.207h7.2148v-20.207h-7.2148z" fill="#fff" transform="matrix(1.521 0 0 1.521 -242.8 0)"/></g></svg>
