<svg width="102" height="91" viewBox="0 0 102 91" fill="none" xmlns="http://www.w3.org/2000/svg">
<g clip-path="url(#clip0_247_14345)">
<path d="M101.357 11.3285C100.644 10.1064 99.4484 9.47507 98.2118 9.64091C97.9645 9.606 96.984 9.14047 95.6427 7.49658C92.4073 3.53086 85.5146 0.0772311 78.5957 1.14794C75.0402 1.70076 70.3558 3.66761 67.2484 9.66419C64.8102 8.3578 62.9656 7.17653 62.0752 6.32985C61.677 5.9511 61.146 5.74379 60.5964 5.7525C60.0469 5.7612 59.5227 5.98523 59.1366 6.3764C58.3414 7.17882 57.457 7.88755 56.5006 8.48873C55.5579 7.85736 54.3184 7.05142 53.0091 6.26875C52.6497 6.05413 52.2344 5.95191 51.8165 5.97525C51.3986 5.99858 50.9972 6.14639 50.664 6.39968C47.4061 8.80888 43.5879 10.348 39.5699 10.8717C36.029 5.92542 29.4738 2.12264 20.7597 5.16312C14.8387 7.23181 13.221 9.606 11.8012 11.698C10.9487 12.9549 10.2766 13.947 8.53667 14.9683C7.03825 15.8412 6.19157 17.2232 6.20903 18.7507C6.22649 20.2782 7.18082 21.7126 8.7287 22.5535C10.1544 23.3303 11.8681 23.4875 13.64 23.0976C13.5768 23.6271 13.4427 24.1458 13.2414 24.6396C13.0868 24.9725 13.0223 25.3401 13.0545 25.7058C13.0867 26.0714 13.2143 26.4221 13.4247 26.7229C13.8262 27.3048 14.5391 28.2853 15.345 29.26C15.2635 29.6993 15.1501 30.2812 15.0017 30.9795L14.2219 31.384L14.1143 31.4392C14.0503 31.4771 13.9833 31.5149 13.9222 31.5556L13.8204 31.6255C9.68303 34.4099 5.6504 39.8653 3.03181 46.1936C0.0204249 53.4674 -0.779701 61.1079 0.776907 67.7009C1.46065 70.6105 3.44787 76.223 9.07494 81.3438C14.3703 86.1649 21.3096 89.1414 29.7007 90.1917C51.0277 92.8569 66.4599 88.4082 76.8645 76.6129C83.2451 74.2707 93.6118 68.4661 95.4448 55.0822C95.5626 54.226 95.6229 53.3628 95.6252 52.4985C95.6193 51.3079 95.5083 50.1201 95.2935 48.9489C96.8036 47.4127 97.6852 45.1665 97.6852 42.7108C97.6852 42.4868 97.6852 42.2598 97.6619 42.0329C97.5509 40.3701 97.0441 38.7579 96.1837 37.3307C95.3233 35.9034 94.1343 34.7025 92.7157 33.828C92.7157 30.8981 93.2336 28.3522 94.217 26.2166C94.5193 26.3386 94.8459 26.3883 95.1708 26.3617C95.4957 26.3351 95.8099 26.2329 96.0883 26.0633C96.3667 25.8937 96.6016 25.6614 96.7743 25.3849C96.947 25.1085 97.0527 24.7954 97.0829 24.4709C97.1158 24.0435 97.2069 23.6226 97.3535 23.2198C97.445 22.978 97.4923 22.7218 97.4932 22.4633C97.4923 22.2843 97.4678 22.1063 97.4204 21.9338H100.013L101.98 14.593H101.889C102.116 13.4763 101.927 12.3152 101.357 11.3285ZM98.1973 9.64091H98.0896C98.1254 9.6368 98.1615 9.6368 98.1973 9.64091Z" fill="white"/>
<path d="M98.4559 11.7153C97.4056 11.8986 95.7355 10.9239 94.0189 8.82033C88.9417 2.5968 73.8092 -1.5784 68.2287 12.53C66.1687 11.5029 62.3543 9.48952 60.626 7.84563C59.3932 9.10489 57.9608 10.1519 56.3868 10.9443C55.4674 10.31 53.7682 9.16365 51.9294 8.06675C48.0239 10.9564 43.3879 12.696 38.5455 13.0886C37.3176 11.0665 31.8971 3.48713 21.4635 7.14152C12.5632 10.2402 14.8792 13.6735 9.60128 16.775C6.10982 18.8321 10.2559 23.467 15.8626 19.9523C15.8626 19.9523 16.0837 23.5019 15.144 25.5211C15.8964 26.6078 16.7084 27.652 17.5763 28.6489C17.5763 28.7129 17.3349 30.1939 16.8402 32.3818C15.9092 32.8619 15.2836 33.1936 15.2022 33.2373L15.0916 33.2925L14.9927 33.3624C7.7188 38.2679 -0.427934 53.5226 2.81621 67.2179C4.67541 75.0998 12.3595 85.9088 29.9681 88.1113C51.4551 90.7997 66.1251 85.9379 75.6684 74.8263C82.2323 72.522 91.6912 67.1044 93.3788 54.7999C93.6768 52.5851 93.5504 50.3337 93.0064 48.1661C96.716 45.7425 96.8644 38.0584 90.6642 35.0732C90.5158 31.2326 91.0628 27.037 93.341 23.5048C93.8269 23.7521 94.4204 24.0373 95.0198 24.2904C95.0697 23.6668 95.2048 23.053 95.4213 22.4661C93.347 21.4362 91.5145 19.9785 90.0444 18.1891C90.2888 17.1154 90.7573 15.5938 91.5516 14.7645C91.5516 14.7645 96.0992 18.8379 99.6983 14.5027C100.28 13.7869 99.6023 11.5117 98.4559 11.7153Z" fill="#231F20"/>
<path d="M81.2634 4.9419C79.3809 4.88662 73.7393 5.8555 71.3477 10.5835C71.3477 10.5835 74.5947 9.04727 76.4743 11.1654C75.357 10.6213 72.043 11.5669 71.3884 14.043C71.9703 14.3019 72.9799 14.7238 74.3707 15.2592C74.8915 11.6571 78.2433 11.9626 78.2433 11.9626C76.2881 13.2108 76.3666 15.1253 76.5528 16.0709C78.0396 16.6034 79.8028 17.2027 81.8278 17.8166C81.8278 17.8166 85.1971 17.4006 87.4345 17.6712C87.9146 16.6208 89.0348 14.3601 90.0706 13.5018C89.1587 12.6481 88.1863 11.8615 87.161 11.148C87.065 13.0595 85.3397 14.6627 82.4039 13.8888C82.4039 13.8888 81.95 15.4279 83.7249 16.6994C82.4883 16.9438 79.6311 15.0817 81.3274 12.1372C83.1779 13.3883 85.6917 12.3001 85.3106 10.1005C83.4514 9.2684 81.1965 8.86688 78.284 9.3906C81.0306 6.55088 88.2114 8.55265 92.5408 13.0217C94.1731 14.7005 96.8789 15.265 97.778 13.5222C93.5097 13.9382 92.0287 5.26777 81.2634 4.9419Z" fill="#B4975A"/>
<path d="M74.3071 8.80578C75.0661 8.85934 75.8003 9.0981 76.4456 9.50116L77.3942 8.53229C78.4678 7.42084 80.068 6.83311 82.0203 6.8302C84.4702 6.8302 87.2808 7.74671 89.8034 9.27422C87.8307 7.6827 85.2354 6.32103 81.2406 6.19883C80.2135 6.16973 76.7948 6.60907 74.3071 8.80578Z" fill="#CEBA90"/>
<path d="M54.1904 30.4994C49.2442 30.8281 48.0804 32.9201 47.9116 34.436C49.4304 34.0665 50.9637 33.7493 52.4883 33.4787C52.3225 32.1112 52.9713 31.1016 54.1904 30.4994Z" fill="white"/>
<path d="M54.2339 33.1907C55.5509 32.9967 56.8525 32.8309 58.1385 32.6932C57.4431 32.312 56.7361 31.8785 56.0291 31.4217C55.1679 31.6603 54.2688 32.3993 54.2339 33.1907Z" fill="#231F20"/>
<path d="M84.6851 33.0685C85.8285 33.3042 86.2795 33.4467 87.1727 33.6882C87.179 33.3046 87.1077 32.9236 86.9632 32.5681C86.8187 32.2127 86.604 31.89 86.3319 31.6195C85.7034 31.7679 84.8916 32.2887 84.6851 33.0685Z" fill="#B4975A"/>
<path d="M80.1523 29.5741C79.646 29.9727 78.4385 30.9096 78.0225 31.2064C79.2688 31.3411 80.5024 31.5746 81.7118 31.9047L82.0027 32.8008C82.5294 32.8386 83.2771 32.8997 83.2771 32.8997C83.5041 32.2218 84.0219 30.5721 84.6039 30.1677C83.6233 29.6905 82.2006 29.4228 80.1523 29.5741Z" fill="white"/>
<path d="M80.1521 29.5741C79.9165 29.7603 79.5237 30.0629 79.1338 30.3655C80.9668 30.252 82.9831 30.5081 84.08 30.8747C84.2035 30.6013 84.3876 30.3595 84.6183 30.1677C83.6232 29.6905 82.2005 29.4199 80.1521 29.5741Z" fill="#BCBDC0"/>
<path d="M84.4612 46.9907C84.726 44.5001 83.9142 41.7273 83.9142 41.7273C83.405 43.5079 81.6128 45.5097 81.3247 45.8356C82.46 45.9086 83.5497 46.3099 84.4612 46.9907Z" fill="white"/>
<path d="M58.9912 46.883C60.0245 46.4416 61.0958 46.0949 62.1917 45.8472C61.089 43.9938 60.6177 41.1716 60.6177 41.1716C58.965 42.5565 58.9912 46.883 58.9912 46.883Z" fill="white"/>
<path d="M58.9912 46.883C60.0245 46.4416 61.0958 46.0949 62.1917 45.8472C61.089 43.9938 60.6177 41.1716 60.6177 41.1716C58.965 42.5565 58.9912 46.883 58.9912 46.883Z" fill="white"/>
<path d="M80.2101 33.5369C80.2101 33.5369 74.8333 32.1956 71.6299 33.9937C73.2592 33.9937 77.9727 34.1159 80.0297 35.1226C80.2806 34.6336 80.3448 34.0699 80.2101 33.5369Z" fill="#808285"/>
<path d="M82.4071 34.7735C82.4458 35.2789 82.4065 35.7872 82.2907 36.2806C86.1226 36.656 90.2774 38.8992 90.6586 41.4974C91.0747 44.3168 87.4581 44.9656 87.4581 44.9656C92.5905 40.6944 85.2119 37.4735 80.3704 37.5812C79.6254 38.0216 78.9214 38.5279 78.2668 39.0942C79.7972 41.1774 78.5781 43.022 78.5781 43.022C79.3754 43.3392 80.1027 43.6592 80.7749 43.9764C81.799 42.7864 83.184 40.9301 83.763 39.0301C83.763 39.0301 86.7598 41.1076 85.9597 47.4387C89.7421 51.4394 85.8869 54.8435 83.9434 55.5593C83.4331 55.7287 82.9874 56.0511 82.6668 56.4826C82.3461 56.9141 82.1661 57.4339 82.1511 57.9713C81.348 55.6437 83.5767 54.2296 83.5767 54.2296C88.8459 50.3483 83.5768 45.4515 71.7494 45.7279C59.1395 46.0189 49.0288 53.444 44.8216 62.4142C45.0573 56.6242 48.828 52.8127 50.4777 51.4103C51.7521 48.2098 54.3591 45.7512 57.5538 44.0724C57.9524 42.3121 59.0085 39.999 61.726 38.8352C61.8598 39.9804 62.0934 41.1117 62.4243 42.2161C67.2251 40.965 72.4623 41.1163 76.3902 42.7456C77.1554 41.6138 77.103 40.9359 77.103 40.9359C76.3902 39.5626 74.5659 38.1224 73.2013 37.1826C54.5802 36.0188 44.0418 45.9112 42.8489 52.4024C39.4535 41.7273 61.2634 34.5756 69.6167 35.1139C69.2178 34.4895 68.7274 33.9285 68.162 33.4496C52.6628 34.1712 34.9146 38.5152 28.7725 46.8947C23.8496 53.6041 29.6279 59.8334 34.3007 61.8614C25.7728 61.3056 21.8943 52.4897 27.4312 45.4428C31.3475 40.4587 38.3304 37.0517 45.8807 34.9684C45.517 30.2782 50.5854 29.1901 52.5173 28.9457C50.228 27.1812 48.0286 25.3032 45.9272 23.3186C45.059 23.7758 44.2573 24.3495 43.5443 25.0236L46.5528 20.828C49.3576 25.6433 58.6303 30.7205 61.1529 32.0589C62.5058 31.8668 64.269 31.8174 65.1593 31.669C68.29 29.2861 67.3153 25.6957 66.9661 24.7035C70.3499 26.4493 68.9155 30.124 68.0863 31.4944L69.2298 31.4391C69.4764 31.7356 69.6983 32.0519 69.8931 32.3847C70.766 31.4828 72.6281 31.0318 72.6281 31.0318C71.2548 28.2008 74.0829 24.9887 74.0829 24.9887C73.0646 28.1339 74.3739 29.8651 75.1943 30.5837C80.1406 28.2561 84.7958 21.5641 84.7958 21.5641C90.0039 27.2523 87.9847 29.8854 87.9847 29.8854C87.4959 27.2668 85.049 24.3166 85.049 24.3166C84.5573 25.4804 83.3935 26.7635 82.1162 27.9273C84.8744 27.9971 87.9993 29.7283 88.3891 33.0394L88.6801 33.147C88.6505 29.4035 89.6803 25.7279 91.6507 22.5446C90.5771 21.8003 89.6393 20.8772 88.8779 19.8155C81.2317 18.9019 74.0393 21.1626 71.4381 22.1111C73.5126 19.8271 76.4396 18.8757 78.005 18.5091C70.2365 16.4724 62.8753 11.7502 60.8212 10.3624C60.0269 11.2061 58.6768 11.9103 57.7923 12.3118C63.1983 17.4558 65.7558 22.6436 65.7558 22.6436C59.2122 15.2068 52.4039 12.0936 50.1344 11.2032C47.9697 13.1875 43.3755 14.1535 41.3709 14.4939C41.5391 15.095 41.6185 15.7174 41.6065 16.3415C43.7014 15.7596 46.6895 16.1349 46.6895 16.1349C44.743 16.4579 42.2292 17.8254 40.8326 18.6604C39.3924 13.3621 34.1115 12.5504 32.069 13.1468C32.5856 12.4007 33.322 11.8343 34.1755 11.5262C33.1921 10.4089 30.7219 8.30532 26.0812 8.40425C17.9141 8.58173 15.1791 13.8596 12.8369 16.7488C12.0135 17.7643 10.3085 18.2793 10.358 18.6429C10.4627 19.4722 12.9184 19.9319 15.6737 17.8225C17.1896 16.6586 18.8364 15.2737 20.0381 13.7491C22.8167 10.278 29.6396 11.0985 30.6055 14.107C28.5281 12.6522 25.5284 13.2079 25.5284 13.2079C29.529 14.4939 29.1886 19.1056 29.1886 19.1056C27.8007 14.5492 23.5673 14.5783 22.1969 14.718C21.3503 16.7343 22.5053 20.3508 25.3422 17.6275C27.7076 18.7913 26.8115 24.1653 23.2444 24.8141C23.8633 24.2498 24.3366 23.5441 24.6239 22.7573C24.9112 21.9705 25.0039 21.1259 24.8941 20.2956C24.3642 20.5222 23.7864 20.6142 23.2124 20.5632C23.2356 21.7823 21.9758 23.4728 19.7878 23.5252C19.7878 23.5252 21.7401 22.6057 21.6238 19.9173C21.1753 19.5534 20.8038 19.1039 20.5311 18.5948C20.2583 18.0857 20.0897 17.5274 20.0351 16.9525C19.226 17.6809 18.4622 18.4582 17.7482 19.2801C17.9754 21.2122 17.8472 23.1696 17.37 25.0556C18.1677 26.2694 19.0734 27.4087 20.0759 28.4598C24.6002 25.5502 31.1322 26.2281 33.2852 19.638C32.456 18.3724 32.005 16.1844 32.005 16.1844C33.0816 17.4791 35.5576 18.5557 35.5576 18.5557C33.6926 27.8895 24.7312 27.261 19.0895 31.0987C19.0895 31.0987 17.7279 39.5742 14.3179 46.4902C13.7011 50.1213 13.4945 58.1866 15.2111 62.1232C15.9676 59.1788 18.5745 56.886 20.5821 55.987C17.2565 59.6268 12.2346 70.1274 24.1783 75.8446C33.582 80.3457 42.5754 70.4533 43.2708 67.0753C43.0875 68.0791 42.011 72.7867 37.7426 76.0367C45.0456 77.8231 59.2442 75.1784 68.1503 65.1259C68.1503 65.1259 68.6275 70.558 57.7778 74.8118C64.8073 77.1685 79.483 72.9991 82.2878 59.8596C82.3708 61.8998 82.0002 63.9329 81.2026 65.8125C81.3189 66.6854 81.2346 68.2973 79.9427 70.6278C89.8352 66.214 93.3266 52.9465 90.7081 47.3515C95.6194 45.0151 95.7241 35.6813 82.4071 34.7735ZM34.0417 29.7691C35.8864 30.1909 40.2827 31.4129 43.8294 34.1334C43.8294 34.1334 36.8465 30.1997 31.2282 32.4662C31.4713 31.8382 31.8492 31.2712 32.3354 30.8051C32.8215 30.3391 33.404 29.9854 34.0417 29.7691ZM75.0052 56.1528C76.5362 55.1303 77.805 53.7618 78.7091 52.158C69.1919 49.4405 58.1008 55.0385 58.1008 55.0385C58.6827 56.4932 61.7406 57.9917 61.7406 57.9917C59.797 62.7226 52.5522 64.9513 49.6863 61.9486C55.5374 63.3336 58.9969 58.4717 58.9969 58.4717C58.2198 58.0978 57.5356 57.5559 56.9936 56.8852C56.4517 56.2144 56.0656 55.4316 55.8633 54.5933C58.3597 50.4356 79.2415 46.3709 82.3838 52.4693C80.3117 54.3601 77.7535 55.6357 74.9965 56.1528H75.0052Z" fill="#B4975A"/>
<path d="M54.4345 48.4803C53.937 49.0139 53.4863 49.5892 53.0874 50.1999C53.533 49.8586 53.9962 49.541 54.4753 49.2485C54.4607 49.0215 54.4462 48.7538 54.4345 48.4803Z" fill="white"/>
<path d="M54.4345 48.4803C53.937 49.0139 53.4863 49.5892 53.0874 50.1999C53.533 49.8586 53.9962 49.541 54.4753 49.2485C54.4607 49.0215 54.4462 48.7538 54.4345 48.4803Z" fill="#BCBDC0"/>
<path d="M55.8457 47.1594C55.8089 47.5919 55.7963 48.0261 55.8079 48.46C56.5586 48.041 57.2219 47.6977 57.5711 47.5231C57.5711 46.9674 57.5973 46.3884 57.6322 45.92C57.0047 46.2849 56.4073 46.6994 55.8457 47.1594Z" fill="white"/>
<path d="M71.159 43.0424C70.7785 43.3437 70.4786 43.7345 70.2861 44.1801C71.3735 44.1219 72.4632 44.1219 73.5506 44.1801C73.6419 43.9039 73.7649 43.6393 73.9172 43.3916C73.0074 43.2092 72.0856 43.0925 71.159 43.0424Z" fill="white"/>
<path d="M77.685 44.7358C76.947 44.3262 76.1665 43.9984 75.3574 43.7582C75.2163 43.9248 75.0952 44.1074 74.9966 44.3023C75.8997 44.3992 76.7971 44.5439 77.685 44.7358Z" fill="#BCBDC0"/>
<path d="M62.8086 43.8396C62.9744 44.2499 63.2188 44.8143 63.4545 45.2682C63.6989 45.1984 64.0597 45.1024 64.5194 44.9947C64.518 44.4829 64.5678 43.9721 64.6678 43.4701C64.0684 43.5749 63.4516 43.6942 62.8086 43.8396Z" fill="white"/>
<path d="M66.2651 43.2315C66.0644 43.6988 65.9434 44.1965 65.9072 44.7038C66.7568 44.5437 67.7693 44.3895 68.8982 44.2819C69.037 43.8187 69.261 43.3856 69.5587 43.0046C68.4574 43.017 67.3577 43.0928 66.2651 43.2315Z" fill="white"/>
<path d="M53.1226 31.2908C53.4246 30.961 53.7871 30.6924 54.1904 30.4994C49.2442 30.831 48.0804 32.9201 47.9116 34.436C48.1764 34.3691 48.4441 34.3109 48.7088 34.2469C49.1104 33.0801 50.2422 31.8145 53.1226 31.2908Z" fill="#BCBDC0"/>
<path d="M56.8467 31.9367C56.5732 31.7679 56.3026 31.5963 56.0291 31.4217C55.1562 31.6603 54.2833 32.3993 54.2339 33.1907C54.6674 33.1238 55.1068 33.0685 55.5286 33.0103C55.8415 32.5204 56.3036 32.144 56.8467 31.9367Z" fill="#B4975A"/>
<path d="M48.6886 17.0165C48.0978 17.2282 47.5335 17.5074 47.0068 17.8486C49.0813 21.9773 58.5112 31.1162 64.3739 29.868C64.3739 29.868 52.663 23.8947 48.6886 17.0165Z" fill="#CEBA90"/>
<path d="M27.9317 35.8267C27.9317 35.8267 34.4753 32.3353 40.5126 34.7153C40.5126 34.7153 22.9855 40.226 22.9855 52.7952C22.9855 59.3126 29.9684 63.2696 31.3911 63.2696C31.3911 63.2696 21.0972 63.0717 21.0972 52.7719C21.0972 42.4721 33.8643 35.626 33.8643 35.626C33.8643 35.626 32.3455 34.8637 27.9317 35.8267Z" fill="#CEBA90"/>
<path d="M69.637 35.0965C69.238 34.4721 68.7476 33.9111 68.1822 33.4322C52.6627 34.1712 34.9145 38.5152 28.7724 46.8947C27.079 49.2019 26.6513 51.451 27.0092 53.4935C28.3069 49.0914 34.1696 38.7421 60.6668 36.2661C64.1292 35.3699 67.3763 34.951 69.637 35.0965Z" fill="#CEBA90"/>
<path d="M80.3819 37.5812C79.6369 38.0216 78.9329 38.5279 78.2783 39.0942C78.3452 39.1843 78.4063 39.2745 78.4645 39.3676C80.0659 39.6288 81.6513 39.9804 83.2129 40.4209C83.4374 39.9713 83.6252 39.5042 83.7744 39.0243C83.7744 39.0243 84.5949 39.6062 85.2612 41.0465C86.5531 41.4732 87.8556 41.9698 89.1687 42.5361C89.7361 39.5335 84.2487 37.4939 80.3819 37.5812Z" fill="#CEBA90"/>
<path d="M59.1597 40.7235C59.8571 39.8943 60.7403 39.2414 61.7375 38.8178C61.7375 38.8178 61.7841 39.2775 61.9034 39.9525C66.3608 38.8809 70.9648 38.5545 75.5288 38.9865C74.8013 38.3272 74.0295 37.7186 73.2186 37.1652C54.5975 36.0013 44.0591 45.8938 42.8662 52.385C44.8913 48.2476 50.8791 43.3596 59.1597 40.7235Z" fill="#CEBA90"/>
<path d="M71.7609 45.7221C59.1509 46.0131 49.0402 53.4382 44.833 62.4084C44.833 62.4084 63.4919 38.3348 85.5841 51.547C86.1835 48.4193 80.955 45.5068 71.7609 45.7221Z" fill="#CEBA90"/>
<path d="M57.58 46.9208C57.58 46.5717 57.6091 46.2313 57.6324 45.9345C57.0048 46.2994 56.4074 46.7139 55.8459 47.174C55.8226 47.4126 55.811 47.6919 55.8052 48.0032C56.3231 47.6395 56.9166 47.2729 57.58 46.9208Z" fill="#BCBDC0"/>
<path d="M64.6678 43.4701C64.0684 43.5749 63.4516 43.6942 62.8086 43.8396C62.9075 44.0811 63.0326 44.3779 63.1665 44.6747C63.6145 44.5554 64.0742 44.4477 64.5485 44.3488C64.5686 44.0536 64.6085 43.76 64.6678 43.4701Z" fill="#BCBDC0"/>
<path d="M65.9941 44.0898C67.0159 43.9348 68.0456 43.8376 69.0783 43.7989C69.2008 43.5105 69.3624 43.2403 69.5583 42.9958C68.457 43.0083 67.3573 43.0841 66.2647 43.2228C66.1436 43.5012 66.0529 43.7919 65.9941 44.0898Z" fill="#BCBDC0"/>
<path d="M70.4897 43.7931C71.5334 43.8124 72.5755 43.8852 73.6117 44.0113C73.6888 43.7997 73.7863 43.596 73.9026 43.4032C72.9929 43.2198 72.0711 43.1022 71.1444 43.0511C70.8866 43.2605 70.6653 43.5112 70.4897 43.7931Z" fill="#BCBDC0"/>
<path d="M65.7555 22.6436C59.2119 15.2068 52.4036 12.0936 50.1342 11.2032C47.9695 13.1876 43.3753 14.1535 41.3706 14.4939C41.3706 14.4939 46.087 15.8178 50.4135 13.368C50.4135 13.368 63.8643 19.446 67.1259 28.9602C67.7078 27.1388 67.2074 25.3582 66.9746 24.7035C66.6278 23.9833 66.22 23.2942 65.7555 22.6436Z" fill="white"/>
<path d="M64.6416 73.3512C64.6416 73.3512 71.3976 72.0012 72.7098 67.2877C73.0243 68.2771 73.0516 69.3355 72.7883 70.3398C72.7883 70.3398 79.0468 67.1393 78.4707 58.3292C78.4707 58.3292 76.8122 63.4995 73.9667 65.2452C73.8433 63.7371 73.3583 62.281 72.5527 61.0002C72.5527 61.0002 71.7176 69.1469 64.6416 73.3512Z" fill="white"/>
<path d="M75.8342 20.7902L71.4495 22.1111C70.6523 22.5417 69.3197 25.0934 70.8676 26.8362C70.8676 26.8362 72.5435 22.0762 88.9068 19.8155C83.9896 19.2307 79.2733 19.9493 75.8342 20.7902Z" fill="white"/>
<path d="M82.4069 34.7735C82.4456 35.2789 82.4063 35.7872 82.2905 36.2806C82.2905 36.2806 88.4006 36.6182 92.7649 39.3124C91.3043 37.0662 88.0689 35.1605 82.4069 34.7735Z" fill="white"/>
<path d="M65.7555 22.6436C65.7555 22.6436 63.198 17.4559 57.8037 12.2972C58.6766 11.8957 60.0382 11.1916 60.8326 10.3478C63.2881 11.9927 65.846 13.4796 68.4905 14.7994C63.4773 14.6918 61.5076 13.205 61.0566 12.7889C63.7505 15.4065 65.4175 18.9026 65.7555 22.6436Z" fill="white"/>
<path d="M26.119 9.66119C19.9217 9.79503 17.2042 13.0712 15.0977 15.8731C16.7823 15.6054 18.2807 13.9702 19.075 12.9635C21.1786 10.3449 24.7748 9.92887 27.2217 10.3828C28.8947 10.6912 30.2389 11.4156 31.074 12.3991C31.3586 11.9862 31.6982 11.6143 32.0836 11.2934C30.8761 10.4409 28.9704 9.60009 26.119 9.66119Z" fill="#CEBA90"/>
<path d="M37.7515 76.0367C45.0544 77.8231 59.253 75.1784 68.1591 65.1259C68.3396 64.7882 68.4886 64.4347 68.6043 64.0697C68.9761 62.9231 69.1866 61.7304 69.2299 60.5259C69.2299 60.5259 60.8416 75.7254 37.7515 76.0367Z" fill="white"/>
<path d="M18.3303 15.6141C15.0658 17.9417 12.4385 17.9854 11.3911 17.8836C10.8092 18.2123 10.3553 18.448 10.3814 18.6429C10.4862 19.4722 12.9419 19.9319 15.6972 17.8225C16.5555 17.1562 17.4575 16.4113 18.3303 15.6141Z" fill="white"/>
<path d="M61.1237 36.1555C64.3882 35.3438 67.4258 34.9684 69.5818 35.0964L69.6021 35.0441C69.2089 34.4438 68.7328 33.9022 68.1881 33.4351C60.8677 33.7842 53.0584 34.9335 46.1948 36.9265C51.1533 36.3974 56.1371 36.14 61.1237 36.1555Z" fill="white"/>
<path d="M60.3031 43.2315C59.9673 44.289 59.8428 45.4022 59.9365 46.5077C60.2274 46.4059 60.5184 46.3098 60.8094 46.2167C60.7337 46.048 60.1605 44.5932 60.3031 43.2315Z" fill="#BCBDC0"/>
<path d="M83.7222 46.5164C83.8706 44.5437 83.6 44.1568 83.6 44.1568C83.6 44.1568 83.4574 45.4224 82.8813 46.1527C83.1705 46.2522 83.4517 46.3738 83.7222 46.5164Z" fill="#BCBDC0"/>
<path d="M6.6569 52.7603L4.63477 54.8435L6.70927 57.8665L7.46576 57.7734C8.07127 57.6709 8.62553 57.37 9.04138 56.918C9.45724 56.4661 9.7111 55.8888 9.76307 55.2768C9.81504 54.6649 9.66216 54.053 9.32846 53.5375C8.99477 53.0219 8.49919 52.6318 7.91964 52.4286L7.18644 52.2104L6.6569 52.7603Z" fill="#231F20"/>
<path d="M6.25537 54.9803L7.31445 56.5223C7.63293 56.4548 7.92123 56.2866 8.13666 56.0425C8.35209 55.7984 8.48322 55.4915 8.51063 55.1671C8.53805 54.8426 8.46029 54.518 8.28888 54.2413C8.11746 53.9645 7.86149 53.7502 7.55885 53.6302L6.25537 54.9803Z" fill="white"/>
<path d="M7.31445 56.5223L6.25537 54.9803L8.51318 55.1723C8.49826 55.5006 8.37105 55.8138 8.15285 56.0596C7.93465 56.3053 7.63867 56.4687 7.31445 56.5223Z" fill="#BCBDC0"/>
<path d="M10.3115 41.9746L8.19336 42.9697L8.92947 45.984L9.6685 46.1673C10.1719 46.2602 10.6918 46.1846 11.1479 45.9522C11.6039 45.7198 11.9707 45.3436 12.1913 44.8817C12.412 44.4199 12.4742 43.8982 12.3685 43.3974C12.2627 42.8965 11.9948 42.4446 11.6063 42.1114L11.0011 41.6487L10.3115 41.9746Z" fill="#231F20"/>
<path d="M9.65674 43.6592L9.96806 44.9336C10.1935 44.9689 10.4243 44.9305 10.6261 44.824C10.8279 44.7175 10.99 44.5487 11.0881 44.3426C11.1862 44.1366 11.2151 43.9044 11.1706 43.6806C11.126 43.4568 11.0104 43.2534 10.8409 43.1006L9.65674 43.6592Z" fill="white"/>
<path d="M9.96806 44.9336L9.65674 43.6592L11.0882 44.343C10.9973 44.5548 10.8365 44.729 10.6326 44.8365C10.4288 44.944 10.1942 44.9783 9.96806 44.9336Z" fill="#BCBDC0"/>
<path d="M8.14683 65.7863L7.38453 65.8096L5.58643 69.5309L8.87712 72.0331L9.56669 71.7102C10.1808 71.3819 10.6687 70.8593 10.9541 70.2242C11.2395 69.589 11.3063 68.8772 11.144 68.2C10.9817 67.5229 10.5995 66.9187 10.0572 66.4819C9.51483 66.0452 8.84301 65.8006 8.14683 65.7863Z" fill="#231F20"/>
<path d="M7.17188 69.1527L9.03689 70.5725C9.38942 70.3679 9.66651 70.0549 9.82699 69.6802C9.98748 69.3055 10.0228 68.889 9.9277 68.4926C9.83261 68.0963 9.61218 67.7411 9.29916 67.48C8.98614 67.2189 8.59723 67.0657 8.19022 67.0433L7.17188 69.1527Z" fill="white"/>
<path d="M9.03689 70.5726L7.17188 69.1527L9.92431 68.4922C10.0385 68.8882 10.0126 69.3114 9.85095 69.6904C9.68927 70.0694 9.40173 70.381 9.03689 70.5726Z" fill="#BCBDC0"/>
<path d="M16.1245 76.5662L15.4873 77.0521L16.2292 81.3321L20.5674 81.4543L20.9573 80.756C21.2811 80.1004 21.3785 79.3559 21.234 78.6391C21.0896 77.9223 20.7115 77.2736 20.159 76.7946C19.6065 76.3157 18.9108 76.0334 18.1807 75.9921C17.4507 75.9507 16.7275 76.1527 16.1245 76.5662Z" fill="#231F20"/>
<path d="M17.3467 80.0431L19.8053 80.113C19.9805 79.7227 20.0253 79.2864 19.933 78.8687C19.8408 78.4509 19.6164 78.0741 19.2931 77.7939C18.9699 77.5137 18.5649 77.3452 18.1383 77.3132C17.7117 77.2813 17.2862 77.3877 16.9248 77.6166L17.3467 80.0431Z" fill="white"/>
<path d="M19.8052 80.1129L17.3467 80.0431L19.2932 77.794C19.6319 78.0629 19.8677 78.4402 19.961 78.8626C20.0543 79.2849 19.9993 79.7264 19.8052 80.1129Z" fill="#BCBDC0"/>
<path d="M30.9924 82.8159L30.748 83.6597L34.2046 86.9562L38.115 84.227L38.0015 83.3542C37.8572 82.5635 37.4549 81.843 36.8577 81.3051C36.2605 80.7673 35.5019 80.4424 34.7005 80.3812C33.8992 80.3201 33.1001 80.5261 32.4282 80.9671C31.7562 81.4081 31.2493 82.0593 30.9866 82.8188L30.9924 82.8159Z" fill="#231F20"/>
<path d="M34.3473 85.0854L36.5673 83.5375C36.4666 83.0782 36.2205 82.6635 35.8657 82.355C35.5108 82.0464 35.066 81.8604 34.5972 81.8245C34.1283 81.7886 33.6604 81.9047 33.2627 82.1556C32.8649 82.4065 32.5587 82.7788 32.3892 83.2174L34.3473 85.0854Z" fill="#BCBDC0"/>
<path d="M36.5672 83.5375L34.3472 85.0854L34.5974 81.8238C35.0723 81.8406 35.5271 82.0199 35.8857 82.3319C36.2442 82.6438 36.4848 83.0694 36.5672 83.5375Z" fill="white"/>
<path d="M48.8806 82.7083L48.9562 83.6306L53.5766 85.5771L56.4018 81.4339L55.9624 80.6192C55.5259 79.8976 54.8627 79.3409 54.0765 79.036C53.2902 78.7311 52.4251 78.6951 51.6162 78.9337C50.8073 79.1723 50.1002 79.6721 49.6053 80.3549C49.1104 81.0378 48.8556 81.8653 48.8806 82.7083Z" fill="#231F20"/>
<path d="M53.0292 83.6917L54.6324 81.3437C54.362 80.9305 53.9656 80.6154 53.5021 80.445C53.0386 80.2746 52.5325 80.2581 52.0589 80.3978C51.5852 80.5375 51.1691 80.8261 50.8723 81.2207C50.5754 81.6154 50.4135 82.0952 50.4106 82.589L53.0292 83.6917Z" fill="#BCBDC0"/>
<path d="M54.6326 81.3437L53.0294 83.6917L52.0576 80.3981C52.5301 80.2358 53.0441 80.2411 53.5131 80.4134C53.9821 80.5856 54.3774 80.9141 54.6326 81.3437Z" fill="white"/>
<path d="M52.6192 78.7687C54.4017 78.2771 56.1431 77.6467 57.8273 76.8834C56.0815 76.4818 55.3163 75.9378 55.3163 75.9378C45.613 80.5581 35.4499 77.5991 35.4499 77.5991C24.6293 81.4688 14.5798 75.7719 14.3877 65.8998C9.62481 55.8881 12.287 45.4893 12.287 45.4893C12.77 44.5874 13.2152 43.6418 13.6254 42.6758C11.5369 45.9226 10.024 49.5054 9.15346 53.2666C9.38599 53.5452 9.55995 53.868 9.66493 54.2154C9.76991 54.5628 9.80376 54.9279 9.76447 55.2887C9.73938 55.7153 9.61176 56.1295 9.39244 56.4962C9.17312 56.8629 8.86857 57.1713 8.50463 57.3952C8.44353 58.1779 8.41444 58.9605 8.42899 59.7228C8.45351 61.3498 8.66537 62.9684 9.06036 64.5469C9.19856 65.0809 9.36463 65.6072 9.55789 66.1239C9.96123 66.3319 10.3133 66.6269 10.5885 66.9877C10.8638 67.3485 11.0554 67.766 11.1494 68.21C11.2491 68.6144 11.2699 69.0343 11.2105 69.4466C12.941 72.1077 15.2581 74.3372 17.9839 75.9639C18.7891 75.9637 19.5656 76.2623 20.1632 76.8019C20.3688 76.983 20.5542 77.1859 20.716 77.4071C23.8449 78.7829 27.1738 79.6493 30.5765 79.9733C38.4322 80.8083 45.1795 80.5552 50.9811 79.1906C51.1933 79.0874 51.4131 79.0008 51.6387 78.9317C51.9581 78.8395 52.2871 78.7848 52.6192 78.7687Z" fill="#808285"/>
<path d="M16.1247 76.5662C16.6675 76.1786 17.3169 75.9683 17.9839 75.964C15.258 74.3372 12.941 72.1077 11.2104 69.4466C11.1376 69.9271 10.9509 70.3833 10.6659 70.7771C10.381 71.1708 10.0061 71.4907 9.57237 71.7102L9.30469 71.8353C10.9881 74.4078 13.1659 76.6202 15.7115 78.344L15.4875 77.0609L16.1247 76.5662Z" fill="#BCBDC0"/>
<path d="M9.15362 53.2666C10.0242 49.5054 11.537 45.9226 13.6256 42.6758C14.3066 41.0651 14.9058 39.4211 15.4208 37.7499C14.0216 39.0854 12.7852 40.5816 11.7373 42.2074C12.0945 42.5574 12.3295 43.0132 12.4074 43.5072C12.4853 44.0012 12.4021 44.5071 12.17 44.9501C11.9379 45.3931 11.5693 45.7496 11.1187 45.9667C10.6682 46.1838 10.1597 46.2501 9.66861 46.1556L9.52895 46.1207C8.57999 48.0849 7.80785 50.1296 7.22168 52.2308L7.91997 52.4373C8.40053 52.5932 8.82787 52.8804 9.15362 53.2666Z" fill="#BCBDC0"/>
<path d="M8.14676 65.7863C8.63764 65.7819 9.12214 65.8978 9.55789 66.1238C9.36473 65.6082 9.19866 65.0828 9.06036 64.5498C8.66809 62.97 8.45916 61.3504 8.43772 59.7228C8.43772 58.9518 8.45226 58.1691 8.51336 57.3952C8.19823 57.5953 7.84418 57.7262 7.47466 57.7793L6.71817 57.8724L6.24974 57.1915C6.12845 58.2375 6.06628 59.2896 6.06353 60.3426C6.05979 62.167 6.26578 63.9857 6.67744 65.7631C6.756 66.0918 6.8491 66.4206 6.94512 66.7523L7.39901 65.8154L8.14676 65.7863Z" fill="#BCBDC0"/>
<path d="M65.9129 77.0201C62.1479 77.5264 59.5119 77.2732 57.8272 76.8834C56.143 77.6467 54.4017 78.2771 52.6191 78.7687C53.2946 78.7398 53.965 78.8974 54.5568 79.2243C55.1485 79.5513 55.6388 80.0349 55.9738 80.6221L56.4132 81.4368L56.0466 81.9751C58.1955 81.2864 60.276 80.4001 62.2614 79.3274C63.5276 78.6388 64.7474 77.8681 65.9129 77.0201Z" fill="#BCBDC0"/>
<path d="M50.9809 79.1906C45.1793 80.5523 38.4262 80.8083 30.5763 79.9733C27.1736 79.6493 23.8447 78.7829 20.7158 77.4071C21.0628 77.8882 21.2684 78.4566 21.3096 79.0483C21.3507 79.6401 21.2257 80.2315 20.9486 80.756L20.7711 81.076C23.794 82.3083 26.9701 83.1246 30.2126 83.5026L30.7654 83.5666L30.9836 82.8159C31.2463 82.0564 31.7532 81.4052 32.4252 80.9642C33.0971 80.5232 33.8961 80.3172 34.6975 80.3783C35.4989 80.4395 36.2575 80.7644 36.8547 81.3022C37.4519 81.8401 37.8541 82.5606 37.9985 83.3513L38.1004 84.1398C41.7278 84.284 45.3608 84.1029 48.9559 83.5986L48.8802 82.7083C48.8424 81.9798 49.0219 81.2564 49.3959 80.6301C49.7699 80.0038 50.3216 79.5028 50.9809 79.1906Z" fill="#BCBDC0"/>
<path d="M11.0011 41.6371L11.6062 42.0997C11.6528 42.1347 11.6935 42.1696 11.7372 42.2074C12.7851 40.5816 14.0215 39.0854 15.4207 37.75C15.6767 36.9237 15.9095 36.1177 16.116 35.3467C14.0794 36.7607 11.9699 39.1291 10.0962 42.0677L10.3231 41.963L11.0011 41.6371Z" fill="#808285"/>
<path d="M9.31057 71.8353L8.88869 72.0332L6.06934 69.9063C7.81506 74.0291 11.0854 78.1839 16.2178 81.2739L15.7116 78.344C13.168 76.6196 10.9923 74.4073 9.31057 71.8353Z" fill="#808285"/>
<path d="M30.7741 83.5811L30.2213 83.5171C26.9788 83.1391 23.8027 82.3228 20.7798 81.0906L20.5674 81.4688L16.3369 81.3495C20.0029 83.5317 24.5971 85.1756 30.2387 85.8826C31.3172 86.0164 32.3782 86.1309 33.4218 86.2259L30.7479 83.6743L30.7741 83.5811Z" fill="#808285"/>
<path d="M7.18643 52.2104H7.22134C7.80752 50.1093 8.57966 48.0645 9.52862 46.1003L8.92925 45.952L8.60047 44.6107C6.9764 47.6924 5.78395 50.9829 5.05664 54.3896L6.65689 52.7399L7.18643 52.2104Z" fill="#808285"/>
<path d="M6.66842 65.7572C6.25676 63.9799 6.05077 62.1611 6.05451 60.3368C6.05726 59.2837 6.11943 58.2317 6.24072 57.1857L4.89651 55.2218C4.54765 57.0783 4.36942 58.9628 4.36406 60.8517C4.35459 62.8219 4.57428 64.7864 5.01871 66.7058C5.21623 67.5398 5.46796 68.3601 5.77228 69.1614L6.9361 66.7523C6.84009 66.4148 6.74698 66.086 6.66842 65.7572Z" fill="#808285"/>
<path d="M71.4032 76.0396C70.0532 76.3305 69.224 76.4295 69.224 76.4295C68.034 76.6913 66.9342 76.8834 65.9129 77.0114C64.7486 77.8622 63.5298 78.6359 62.2643 79.3274C60.279 80.4 58.1985 81.2864 56.0496 81.9751L53.8267 85.2337C57.3554 84.4367 60.7596 83.1643 63.9461 81.4513C66.6593 79.9837 69.1667 78.164 71.4032 76.0396Z" fill="#808285"/>
<path d="M48.9648 83.5986C45.3717 84.1025 41.7406 84.2837 38.1151 84.1398V84.2271L35.0659 86.351C41.8015 86.8544 47.7981 86.5402 53.1313 85.3909L48.9619 83.6452L48.9648 83.5986Z" fill="#808285"/>
<path d="M96.888 18.2385H97.6329L97.7871 19.6206L98.6832 18.2385H99.4281L98.8462 20.4294H98.3574L98.7734 18.8786L97.7813 20.444H97.3768L97.2197 18.8932L96.792 20.444H96.3061L96.888 18.2385ZM95.1627 18.6633H94.54L94.6535 18.2385H96.4516L96.3381 18.6633H95.7242L95.2442 20.444H94.6913L95.1627 18.6633Z" fill="#231F20"/>
</g>
<defs>
<clipPath id="clip0_247_14345">
<rect width="102" height="89.9894" fill="white" transform="translate(0 0.949997)"/>
</clipPath>
</defs>
</svg>
