<svg xmlns="http://www.w3.org/2000/svg" height="68.78" viewBox="0 0 172.07887 68.779999" width="172.08"><g transform="matrix(1.25 0 0 -1.25 -58.725 888.4)"><g transform="translate(.32315 .32315)"><path d="m14.088 0c-3.724 0-7.2294 1.308-9.8732 3.6855-2.72 2.4463-4.2148 5.734-4.2148 9.2535v41.9c0 3.52 1.4948 6.8064 4.2148 9.2539 2.6438 2.3775 6.1493 3.6855 9.873 3.6855h23.904c3.7238 0 7.2318-1.308 9.873-3.6855 2.7188-2.4475 4.2168-5.7339 4.2168-9.2539v-13.043l-20.035-3.046v11.418h-11.699v-32.555h11.699v10.006l20.035-3.0449v-11.635c0-3.52-1.498-6.8077-4.2168-9.2539-2.641-2.3771-6.149-3.6851-9.873-3.6851h-23.904zm59.289 0c-3.7238 0-7.2286 1.308-9.8711 3.6855-2.7175 2.4462-4.2168 5.7339-4.2168 9.2539v14c0.000001 8.215 6.2319 10.885 11.672 12.295 11.405 2.8962 17.311 4.3991 19.645 5.0078v5.9258h-11.49v-7.6621l-20.035 3.0488v9.2852c0 3.52 1.4948 6.8064 4.2148 9.2539 2.6438 2.3775 6.1505 3.6855 9.873 3.6855h23.592c3.7275 0 7.2305-1.308 9.873-3.6855 2.7188-2.4475 4.2168-5.7339 4.2168-9.2539v-14.562c0-3.4612-1.0995-6.2716-3.2695-8.3516-1.8375-1.7588-4.4088-3.0141-8.0938-3.9453-11.642-2.9362-17.773-4.4837-19.953-5.0449v-5.3223h10.863v7.1895l20.035-3.0469v-8.8164c0-3.52-1.4968-6.8077-4.2168-9.2539-2.64-2.3781-6.14-3.6861-9.866-3.6861h-22.967zm44.785 0v54.84c0 3.52 1.4973 6.8064 4.2148 9.2539 2.6438 2.3775 6.148 3.6855 9.873 3.6855h24.742c3.7225 0 7.2273-1.308 9.8711-3.6855 2.7162-2.4475 4.2148-5.7339 4.2148-9.2539v-54.84h-20.348v50.168h-12.221v-50.168h-20.348z" transform="matrix(.8 0 0 -.8 46.98 709.92)" fill="#c8c372"/><path d="m14.088 2.6035c-6.3688 0-11.482 4.6059-11.482 10.336v41.9c0 5.7312 5.1137 10.334 11.482 10.334h23.904c6.3675 0 11.482-4.6027 11.482-10.334v-10.805l-14.824-2.2539v10.053c0 0.565-0.41672 0.93945-1.043 0.93945h-14.822c-0.625 0-1.0449-0.37445-1.0449-0.93945v-35.887c0-0.56375 0.41992-0.93945 1.0449-0.93945h14.822c0.62625 0 1.043 0.3757 1.043 0.93945v8.6406l14.824-2.2539v-9.3945c0-5.73-5.1149-10.336-11.482-10.336h-23.904zm59.289 0.00195c-6.3638 0-11.482 4.6027-11.482 10.334v14c0 5.73 3.5515 8.1726 9.709 9.7676 12.946 3.2888 18.475 4.6992 20.25 5.168 0.835 0.18875 1.3574 0.5632 1.3574 1.2207v8.7383c0 0.56375-0.41797 0.9375-1.043 0.9375h-14.615c-0.62375 0-1.043-0.37375-1.043-0.9375v-6.2949l-14.824 2.2539v7.0469c0 5.7312 5.1137 10.336 11.482 10.336h23.592c6.3688 0 11.484-4.6047 11.484-10.336v-14.562c0-5.7288-3.4445-8.2658-9.3945-9.7695-13.781-3.475-19.732-4.9792-20.775-5.2617-0.6275-0.18625-1.1445-0.4707-1.1445-1.2207v-8.0801c0-0.56375 0.41476-0.93945 1.041-0.93945h13.986c0.62625 0 1.0449 0.3757 1.0449 0.93945v5.8242l14.822-2.2539v-6.5762c0-5.7313-5.1149-10.334-11.482-10.334h-22.965zm47.391 0v52.234c0 5.7312 5.1156 10.334 11.484 10.334h24.736c6.3688 0 11.484-4.6027 11.484-10.334v-52.234h-15.137v49.229c0 0.56375-0.41922 0.93945-1.043 0.93945h-15.346c-0.62375 0-1.043-0.3757-1.043-0.93945v-49.229h-15.137z" transform="matrix(.8 0 0 -.8 46.98 709.92)" fill="#1e4d2b"/></g></g></svg>
