<?xml version="1.0" encoding="UTF-8" standalone="no"?>
<svg
   xmlns:dc="http://purl.org/dc/elements/1.1/"
   xmlns:cc="http://creativecommons.org/ns#"
   xmlns:rdf="http://www.w3.org/1999/02/22-rdf-syntax-ns#"
   xmlns:svg="http://www.w3.org/2000/svg"
   xmlns="http://www.w3.org/2000/svg"
   xmlns:sodipodi="http://sodipodi.sourceforge.net/DTD/sodipodi-0.dtd"
   xmlns:inkscape="http://www.inkscape.org/namespaces/inkscape"
   version="1.1"
   id="svg2"
   xml:space="preserve"
   width="131.18733"
   height="111.98453"
   viewBox="0 0 131.18733 111.98453"
   sodipodi:docname="inkporter-svg-udjimpn7.svg"
   inkscape:version="1.0.1 (3bc2e813f5, 2020-09-07)"><metadata
     id="metadata8"><rdf:RDF><cc:Work
         rdf:about=""><dc:format>image/svg+xml</dc:format><dc:type
           rdf:resource="http://purl.org/dc/dcmitype/StillImage" /><dc:title /></cc:Work></rdf:RDF></metadata><defs
     id="defs6"><clipPath
       clipPathUnits="userSpaceOnUse"
       id="clipPath34"><path
         d="M 0,0 H 1224 V 792 H 0 Z"
         id="path32" /></clipPath></defs><sodipodi:namedview
     pagecolor="#ffffff"
     bordercolor="#666666"
     borderopacity="1"
     objecttolerance="10"
     gridtolerance="10"
     guidetolerance="10"
     inkscape:pageopacity="0"
     inkscape:pageshadow="2"
     inkscape:window-width="1920"
     inkscape:window-height="1103"
     id="namedview4"
     showgrid="false"
     inkscape:zoom="2.184314"
     inkscape:cx="241.22622"
     inkscape:cy="678.52567"
     inkscape:window-x="0"
     inkscape:window-y="0"
     inkscape:window-maximized="1"
     inkscape:current-layer="g30"
     inkscape:document-rotation="0" /><g
     id="g10"
     inkscape:groupmode="layer"
     inkscape:label="dukelogos"
     transform="matrix(1.3333333,0,0,-1.3333333,-188.6128,356.65906)"><g
       id="g28"><g
         id="g30"
         clip-path="url(#clipPath34)"><g
           id="basketballMark"><g
             id="g5048"
             transform="translate(181.3486,247.2949)"><path
               d="M 0,0 11.992,20.199 H -39.889 L -27.897,0 v -43.589 l -11.992,-20.2 H 11.992 L 0,-43.589 Z"
               style="fill:#00539b;fill-opacity:1;fill-rule:nonzero;stroke:none"
               id="path5050" /></g><g
             id="g5052"
             transform="translate(239.8501,251.9443)"><path
               d="M 0,0 C 0,0 -0.243,13.76 -14.929,15.55 H -44.12 l 11.833,-20.199 v -43.589 l -11.833,-20.2 h 29.191 C -0.243,-66.648 0,-52.889 0,-52.889 Z"
               style="fill:#00539b;fill-opacity:1;fill-rule:nonzero;stroke:none"
               id="path5054" /></g><g
             id="g5056"
             transform="translate(184.3457,221.0156)"><path
               d="M 0,0 C 0.045,0.065 0.119,0.104 0.198,0.104 H 2.754 C 2.833,0.104 2.907,0.065 2.952,0 2.996,-0.066 3.005,-0.149 2.976,-0.223 L 1.698,-3.457 C 1.663,-3.549 1.574,-3.609 1.475,-3.609 c -0.097,0 -0.185,0.06 -0.221,0.152 l -1.279,3.234 C -0.054,-0.149 -0.044,-0.066 0,0 M 3.674,-2.051 C 3.771,-2.052 3.86,-2.113 3.896,-2.205 L 5.12,-5.386 C 5.142,-5.442 5.142,-5.506 5.118,-5.563 L 3.814,-8.771 C 3.777,-8.861 3.688,-8.92 3.588,-8.919 3.491,-8.918 3.403,-8.857 3.368,-8.765 L 2.171,-5.61 c -0.022,0.055 -0.022,0.117 0,0.172 l 1.278,3.235 c 0.036,0.092 0.125,0.152 0.225,0.152 M 4.313,0 C 4.357,0.065 4.432,0.104 4.511,0.104 H 7.066 C 7.146,0.104 7.22,0.065 7.264,0 7.309,-0.066 7.318,-0.149 7.289,-0.223 L 6.011,-3.457 C 5.975,-3.549 5.887,-3.609 5.788,-3.609 c -0.099,0 -0.187,0.06 -0.223,0.152 L 4.288,-0.223 C 4.258,-0.149 4.267,-0.066 4.313,0 M 7.985,-2.051 C 8.083,-2.052 8.172,-2.113 8.208,-2.205 L 9.433,-5.386 C 9.454,-5.442 9.453,-5.506 9.43,-5.563 L 8.126,-8.771 C 8.088,-8.861 8,-8.92 7.901,-8.919 7.803,-8.918 7.716,-8.857 7.68,-8.765 L 6.482,-5.61 c -0.02,0.055 -0.02,0.117 10e-4,0.172 l 1.279,3.235 c 0.035,0.092 0.125,0.152 0.223,0.152 M 8.625,0 C 8.67,0.065 8.743,0.104 8.822,0.104 h 2.556 c 0.08,0 0.153,-0.039 0.198,-0.104 0.045,-0.066 0.053,-0.149 0.024,-0.223 l -1.277,-3.234 c -0.036,-0.092 -0.124,-0.152 -0.223,-0.152 -0.099,0 -0.186,0.06 -0.222,0.152 L 8.6,-0.223 C 8.571,-0.149 8.58,-0.066 8.625,0 m 3.672,-2.051 c 0.099,-10e-4 0.187,-0.062 0.224,-0.154 l 1.223,-3.181 c 0.023,-0.056 0.022,-0.12 -10e-4,-0.177 l -1.305,-3.208 c -0.037,-0.09 -0.125,-0.149 -0.225,-0.148 -0.098,0.001 -0.186,0.062 -0.221,0.154 l -1.197,3.155 c -0.022,0.055 -0.021,0.117 10e-4,0.172 l 1.277,3.235 c 0.037,0.092 0.126,0.152 0.224,0.152 M 12.937,0 c 0.044,0.065 0.118,0.104 0.197,0.104 h 2.556 c 0.08,0 0.153,-0.039 0.198,-0.104 0.045,-0.066 0.054,-0.149 0.025,-0.223 l -1.277,-3.234 c -0.036,-0.092 -0.125,-0.152 -0.223,-0.152 -0.099,0 -0.187,0.06 -0.224,0.152 l -1.277,3.234 c -0.029,0.074 -0.02,0.157 0.025,0.223 m 3.672,-2.051 c 0.099,-10e-4 0.187,-0.062 0.223,-0.154 l 1.225,-3.181 c 0.022,-0.056 0.021,-0.12 -0.003,-0.177 L 16.75,-8.771 c -0.037,-0.09 -0.126,-0.149 -0.225,-0.148 -0.097,0.001 -0.186,0.062 -0.221,0.154 l -1.197,3.155 c -0.021,0.055 -0.021,0.117 0.001,0.172 l 1.278,3.235 c 0.035,0.092 0.125,0.152 0.223,0.152 M 17.249,0 c 0.044,0.065 0.119,0.104 0.198,0.104 h 2.554 c 0.081,0 0.155,-0.039 0.2,-0.104 0.044,-0.066 0.053,-0.149 0.024,-0.223 l -1.278,-3.234 c -0.035,-0.092 -0.124,-0.152 -0.222,-0.152 -0.1,0 -0.187,0.06 -0.224,0.152 l -1.276,3.234 c -0.03,0.074 -0.02,0.157 0.024,0.223 m -1.429,-10.877 -1.358,-3.421 c -0.037,-0.094 -0.129,-0.154 -0.23,-0.151 -0.1,0.004 -0.189,0.069 -0.22,0.165 l -1.065,3.233 c -0.018,0.054 -0.015,0.113 0.005,0.164 l 1.277,3.234 c 0.038,0.092 0.126,0.152 0.226,0.151 0.099,0 0.187,-0.061 0.221,-0.155 l 1.145,-3.048 c 0.021,-0.056 0.021,-0.117 -10e-4,-0.172 m -2.483,-4.693 c -0.044,-0.067 -0.117,-0.106 -0.198,-0.106 h -1.852 c -0.079,0 -0.154,0.039 -0.198,0.106 -0.044,0.065 -0.053,0.148 -0.025,0.222 l 0.93,2.345 c 0.036,0.091 0.125,0.151 0.223,0.151 0.098,0 0.186,-0.06 0.222,-0.152 l 0.924,-2.344 c 0.029,-0.074 0.02,-0.157 -0.026,-0.222 m -3.417,1.121 c -0.101,0.004 -0.189,0.069 -0.22,0.165 l -1.064,3.233 c -0.019,0.054 -0.017,0.113 0.003,0.164 l 1.278,3.234 c 0.037,0.092 0.125,0.152 0.225,0.151 0.099,0 0.188,-0.061 0.222,-0.155 l 1.144,-3.048 c 0.022,-0.056 0.021,-0.117 0,-0.172 l -1.358,-3.421 c -0.037,-0.094 -0.129,-0.154 -0.23,-0.151 M 9.026,-15.57 C 8.981,-15.637 8.907,-15.676 8.828,-15.676 H 6.975 c -0.079,0 -0.153,0.039 -0.198,0.106 -0.045,0.065 -0.053,0.148 -0.024,0.222 l 0.929,2.345 c 0.035,0.091 0.125,0.151 0.222,0.151 0.099,0 0.188,-0.06 0.222,-0.152 l 0.924,-2.344 c 0.03,-0.074 0.02,-0.157 -0.024,-0.222 m -3.418,1.121 c -0.101,0.004 -0.19,0.069 -0.22,0.165 l -1.065,3.233 c -0.018,0.054 -0.015,0.113 0.005,0.164 l 1.277,3.234 c 0.037,0.092 0.126,0.152 0.225,0.151 0.099,0 0.187,-0.061 0.223,-0.155 l 1.144,-3.048 c 0.02,-0.056 0.02,-0.117 -0.002,-0.172 L 5.837,-14.298 C 5.8,-14.392 5.708,-14.452 5.608,-14.449 M -1.912,1.488 C -1.957,1.423 -1.965,1.34 -1.936,1.266 l 7.25,-18.245 c 0.036,-0.09 0.125,-0.15 0.223,-0.15 h 8.859 c 0.096,0 0.183,0.059 0.22,0.149 L 22.171,1.262 C 22.202,1.337 22.194,1.42 22.149,1.487 22.105,1.554 22.03,1.594 21.95,1.594 H -1.713 c -0.079,0 -0.154,-0.039 -0.199,-0.106"
               style="fill:#00539b;fill-opacity:1;fill-rule:nonzero;stroke:none"
               id="path5058" /></g><g
             id="g5060"
             transform="translate(187.9751,243.4648)"><path
               d="m 0,0 c 0.317,-0.887 0.817,-1.676 1.487,-2.346 1.096,-1.096 2.559,-1.748 4.118,-1.836 0.106,-0.006 0.211,0.033 0.289,0.106 0.077,0.072 0.122,0.176 0.122,0.281 v 5.883 c 0,0.103 -0.044,0.205 -0.12,0.279 C 5.822,2.438 5.719,2.479 5.615,2.476 3.571,2.41 1.671,1.703 0.12,0.43 -0.007,0.326 -0.054,0.154 0,0"
               style="fill:#00539b;fill-opacity:1;fill-rule:nonzero;stroke:none"
               id="path5062" /></g><g
             id="g5064"
             transform="translate(195.2793,239.2832)"><path
               d="M 0,0 V 0 C 1.559,0.088 3.021,0.739 4.118,1.836 4.787,2.506 5.287,3.295 5.604,4.182 5.66,4.336 5.612,4.508 5.485,4.611 3.933,5.885 2.034,6.592 -0.009,6.657 -0.113,6.66 -0.217,6.621 -0.292,6.549 -0.367,6.476 -0.41,6.374 -0.41,6.27 V 0.387 c 0,-0.106 0.044,-0.209 0.122,-0.282 C -0.211,0.032 -0.107,-0.006 0,0"
               style="fill:#00539b;fill-opacity:1;fill-rule:nonzero;stroke:none"
               id="path5066" /></g><g
             id="g5068"
             transform="translate(187.0605,242.8535)"><path
               d="M 0,0 C -0.023,0.054 -0.07,0.093 -0.131,0.105 -0.19,0.117 -0.254,0.1 -0.298,0.059 -2.057,-1.614 -2.969,-3.956 -3.087,-7.1 c -10e-4,-0.044 0.016,-0.085 0.048,-0.118 0.034,-0.034 0.082,-0.053 0.132,-0.053 h 20.616 c 0.05,0 0.097,0.02 0.131,0.054 0.033,0.032 0.05,0.073 0.049,0.117 -0.106,3.055 -0.996,5.358 -2.722,7.043 -0.043,0.041 -0.106,0.06 -0.167,0.048 -0.06,-0.011 -0.109,-0.05 -0.131,-0.101 -0.41,-0.966 -0.996,-1.82 -1.741,-2.536 -1.424,-1.368 -3.386,-2.091 -5.674,-2.091 -2.289,0 -4.252,0.723 -5.676,2.091 C 1.01,-1.908 0.413,-1.018 0,0"
               style="fill:#00539b;fill-opacity:1;fill-rule:nonzero;stroke:none"
               id="path5070" /></g><g
             id="g5072"
             transform="translate(189.4624,229.1582)"><path
               d="m 0,0 c -0.67,-0.669 -1.17,-1.458 -1.487,-2.345 -0.055,-0.154 -0.007,-0.327 0.119,-0.43 1.552,-1.272 3.452,-1.98 5.495,-2.045 0.105,-0.004 0.208,0.036 0.282,0.108 0.075,0.073 0.12,0.175 0.12,0.278 V 1.449 C 4.529,1.556 4.483,1.658 4.407,1.731 4.329,1.805 4.224,1.843 4.118,1.836 2.559,1.749 1.096,1.097 0,0"
               style="fill:#00539b;fill-opacity:1;fill-rule:nonzero;stroke:none"
               id="path5074" /></g><g
             id="g5076"
             transform="translate(195.2793,230.9941)"><path
               d="M 0,0 V 0 C -0.107,0.007 -0.211,-0.031 -0.288,-0.104 -0.366,-0.178 -0.41,-0.28 -0.41,-0.387 v -5.884 c 0,-0.102 0.043,-0.205 0.118,-0.277 0.075,-0.072 0.179,-0.112 0.283,-0.108 2.043,0.065 3.942,0.773 5.494,2.045 0.127,0.103 0.175,0.276 0.119,0.43 C 5.287,-3.294 4.787,-2.505 4.118,-1.836 3.021,-0.739 1.559,-0.087 0,0"
               style="fill:#00539b;fill-opacity:1;fill-rule:nonzero;stroke:none"
               id="path5078" /></g><g
             id="g5080"
             transform="translate(202.0601,227.4336)"><path
               d="M 0,0 C 0.062,-0.012 0.124,0.006 0.167,0.049 1.893,1.732 2.783,4.035 2.889,7.09 2.89,7.134 2.873,7.177 2.841,7.208 2.807,7.242 2.759,7.262 2.709,7.262 h -20.616 c -0.05,0 -0.098,-0.019 -0.131,-0.053 -0.033,-0.032 -0.05,-0.075 -0.048,-0.119 0.118,-3.144 1.03,-5.485 2.789,-7.158 0.044,-0.041 0.107,-0.059 0.166,-0.046 0.061,0.012 0.109,0.051 0.131,0.104 0.414,1.019 1.011,1.909 1.778,2.647 1.425,1.368 3.387,2.092 5.676,2.092 2.289,0 4.25,-0.724 5.675,-2.092 0.744,-0.717 1.33,-1.57 1.74,-2.535 C -0.108,0.049 -0.06,0.012 0,0"
               style="fill:#00539b;fill-opacity:1;fill-rule:nonzero;stroke:none"
               id="path5082" /></g></g></g></g></g></svg>
