<?xml version="1.0" encoding="UTF-8" standalone="no"?>
<svg xmlns:rdf="http://www.w3.org/1999/02/22-rdf-syntax-ns#" xmlns="http://www.w3.org/2000/svg" xml:space="preserve" height="49.218" viewBox="0 0 91.995003 49.217812" width="91.995" version="1.1" xmlns:cc="http://creativecommons.org/ns#" xmlns:dc="http://purl.org/dc/elements/1.1/"><g transform="matrix(1.25 0 0 -1.25 -297.54 326.67)"><g style="" transform="translate(.34928 .43660)"><path d="m285.53 233.41c1.23 4.093 2.529 8.252 3.761 12.322h-12.717c-1.196-3.941-2.382-7.807-3.582-11.696-0.408-1.321-0.882-2.568-0.991-4.111-0.02-0.126-0.02-0.335 0-0.461 0.075-1.443 0.728-2.434 1.552-3.19 0.828-0.761 1.881-1.303 3.021-1.736 2.295-0.87 5.109-1.294 8.108-1.43l0.119-0.012h0.144l0.143-0.011h0.179l0.168-0.012h0.214l0.227-0.012h0.311l0.454-0.012h1.027l0.441 0.012h0.311l0.227 0.012h0.215l0.167 0.012h0.167l0.143 0.011h0.155l0.12 0.012c3.415 0.152 6.456 0.674 9.027 1.595 1.308 0.469 2.484 1.05 3.439 1.867 0.961 0.821 1.632 1.849 2.209 3.083 0.573 1.225 0.951 2.562 1.362 3.922 1.219 4.058 2.481 8.116 3.689 12.157l-10.078 0.012c-1.278-4.143-2.553-8.375-3.821-12.547-0.527-1.734-0.945-3.402-2.496-4.076-0.748-0.324-1.677-0.496-2.77-0.531l-0.143-0.012h-0.227-0.681-0.203l-0.131 0.012c-1.035 0.035-1.939 0.218-2.711 0.52-0.406 0.157-0.76 0.326-1.015 0.59-0.288 0.298-0.37 0.688-0.263 1.229 0.166 0.835 0.48 1.652 0.729 2.481m-32.229 12.203-0.012-0.236v-0.095l0.012-0.165c0.014-0.545 0.187-0.933 0.442-1.24 0.042-0.053 0.092-0.1 0.143-0.142 0.343-0.283 0.775-0.478 1.278-0.602 0.728 2.35 1.441 4.717 2.185 7.052h7.523c-0.175 0.485-0.354 0.965-0.681 1.3-0.057 0.069-0.121 0.13-0.191 0.189-0.794 0.687-1.992 0.974-3.427 1.028l-0.167 0.011h-0.704l-0.155-0.011c-1.648-0.059-2.876-0.534-3.774-1.335-0.093-0.083-0.181-0.17-0.263-0.26-0.595-0.699-1.066-1.512-1.456-2.398-0.392-0.888-0.703-1.892-0.753-3.096m-14.162 0.686c-0.027-0.02-0.003-0.091-0.011-0.13v-0.248-0.284-0.213c0.008-0.035-0.016-0.102 0.011-0.118 0.138-2.093 0.984-3.485 2.078-4.631 0.092-0.1 0.187-0.193 0.287-0.283 2.812-2.574 6.802-3.982 12.012-4.182l0.132-0.012h0.167l0.155-0.012h0.203l0.227-0.012h0.322c0.394-0.019 0.872-0.019 1.266 0h0.299l0.203 0.012h0.191l0.143 0.012h0.155l0.12 0.012c3.494 0.156 6.474 0.903 8.609 2.386 0.066 0.045 0.151 0.11 0.199 0.144 0.056-0.412 0.308-2.14 0.308-2.14h6.218s2.368 7.799 3.508 11.518c0.07 0.23 0.277 0.979 0.277 0.979s-0.758 0.002-1.208 0.002h-15.714c-0.356 0-1.143 0.001-1.143 0.001s-0.129-0.427-0.195-0.64c-0.384-1.258-0.78-2.464-1.158-3.709-0.095-0.313-0.261-0.839-0.261-0.839l6.279-0.012c-1.054-1.268-2.673-1.978-4.919-2.067l-0.156-0.012h-0.812l-0.155 0.012c-2.517 0.128-4.464 0.821-4.573 3.332v0.378c0.038 1.413 0.4 2.583 0.848 3.614 0.447 1.032 1.018 1.958 1.719 2.753 0.06 0.067 0.122 0.132 0.191 0.189 1.093 1.01 2.581 1.628 4.633 1.69l0.215 0.011h0.466l0.239-0.011c2.501-0.101 4.348-0.774 5.122-2.541 0.066-0.147 0.132-0.318 0.132-0.318l10.741 0.015-0.03 0.623c-0.04 0.85-0.259 1.555-0.573 2.173-0.924 1.819-2.592 2.942-4.502 3.781-2.526 1.108-5.736 1.711-9.207 1.878l-0.119 0.012h-0.143l-0.144 0.012h-0.167l-0.179 0.012h-0.227l-0.274 0.011h-0.49-0.585-0.49l-0.274-0.011h-0.227l-0.179-0.012h-0.168l-0.143-0.012h-0.143l-0.12-0.012c-5.08-0.246-9.29-1.43-12.561-3.509-1.624-1.031-3.061-2.274-4.239-3.78-1.178-1.507-2.034-3.359-2.186-5.812m-1.098-0.024c0.197 3.503 1.65 5.763 3.439 7.691l0.609 0.602c3.731 3.495 8.916 5.553 15.822 5.907l0.119 0.012h0.119l0.144 0.012h0.143l0.155 0.011h0.179l0.203 0.012h0.239l0.346 0.012h1.206l0.335-0.012h0.251l0.203-0.012h0.179l0.155-0.011h0.143l0.132-0.012c5.479-0.293 10.105-1.428 13.135-4.147 0.113-0.102 0.22-0.208 0.322-0.319 1.033-1.128 1.867-2.453 1.958-4.513 0.02-0.189 0.02-0.46 0-0.649 0.046-0.154-0.541-2.93-0.883-4.029h14.054c0.016-0.085-0.024-0.171-0.048-0.248-1.194-3.971-2.462-7.988-3.665-11.967-0.206-0.679-0.408-1.363-0.621-2.044s-0.594-1.919-0.54-2.144c0.221-0.916 3.413-0.931 3.413-0.931h0.311c0.979 0 2.547 0.354 3.204 0.771 0.635 0.404 0.953 1.186 1.194 1.985 1.453 4.832 2.993 9.758 4.454 14.578h12.375s-0.07-0.218-0.1-0.319c-1.307-4.347-2.643-8.748-3.976-13.101-0.277-0.902-0.527-1.8-0.836-2.658-0.613-1.709-1.393-3.267-2.543-4.466-0.114-0.124-0.235-0.242-0.358-0.354-1.501-1.373-3.509-2.162-5.744-2.788-2.223-0.622-4.751-0.981-7.439-1.111l-0.12-0.012h-0.131l-0.131-0.011h-0.156l-0.155-0.012h-0.167l-0.191-0.012h-0.227l-0.263-0.012h-0.358c-0.482-0.019-1.047-0.019-1.528 0h-0.37l-0.263 0.012h-0.227l-0.191 0.012h-0.179l-0.167 0.012h-0.144l-0.131 0.011h-0.131l-0.132 0.012h-0.107l-0.12 0.012c-4.762 0.29-8.942 1.156-11.57 3.556-0.034 0.043-0.074 0.083-0.12 0.118-0.883 0.941-1.584 2.064-1.648 3.816-0.02 0.079-0.02 0.24 0 0.319v0.165l0.012 0.119c0.179 2.055 0.912 3.563 1.373 5.339-2.29 0.056-4.684 0.008-7.021 0.024 0 0-0.147 0.953-0.203 1.418-2.153-1.06-4.868-1.666-8-1.796l-0.132-0.012h-0.143l-0.179-0.012h-0.191l-0.251-0.012h-0.394c-0.239-0.019-0.561-0.019-0.8 0h-0.43l-0.275 0.012h-0.214l-0.179 0.012h-0.168l-0.143 0.012h-0.131l-0.132 0.012c-5.421 0.232-9.54 1.75-12.502 4.418-0.149 0.136-0.29 0.28-0.43 0.425-1.233 1.331-2.191 2.936-2.328 5.352l-0.012 0.165v0.603 0.145l0.012 0.032z" fill="#002967"/><path d="m27.779 2.1582-0.34375 0.013672h-0.2832l-0.22461 0.015625h-0.20898l-0.17773 0.013672h-0.17969l-0.14844 0.015625c-6.3512 0.3075-11.613 1.788-15.703 4.3867-2.03 1.2888-3.8263 2.8421-5.2988 4.7246s-2.5417 4.1994-2.7305 7.2656c-0.035 0.025-0.00563 0.11336-0.015625 0.16211v0.31055 0.35352 0.26758c0.01 0.04375-0.019375 0.12648 0.015625 0.14648 0.17125 2.6162 1.2282 4.3566 2.5957 5.7891 0.115 0.125 0.23562 0.24102 0.35938 0.35352 3.515 3.2162 8.5031 4.9785 15.016 5.2285l0.16406 0.01367h0.20898l0.19336 0.01563h0.25391l0.2832 0.01563h0.4043c0.4925 0.02375 1.0876 0.02375 1.5801 0h0.375l0.25391-0.01563h0.23828l0.17773-0.01563h0.19531l0.14844-0.01367c4.3688-0.195 8.0937-1.1299 10.764-2.9824 0.08125-0.05625 0.18805-0.13719 0.24805-0.17969 0.06875 0.515 0.38477 2.6738 0.38477 2.6738h7.7715s2.9605-9.7477 4.3867-14.396c0.08625-0.2875 0.34375-1.2246 0.34375-1.2246s-0.94727-0.002-1.5098-0.002h-19.643c-0.445 0-1.4258-0.0039-1.4258-0.0039s-0.16289 0.53578-0.24414 0.80078c-0.48 1.5738-0.97476 3.0805-1.4473 4.6367-0.12 0.39125-0.32617 1.0488-0.32617 1.0488l7.8477 0.01563c-1.3188 1.5838-3.3416 2.4727-6.1504 2.584l-0.19336 0.01563h-1.0156l-0.19336-0.01563c-3.1475-0.16-5.5793-1.0253-5.7168-4.1641v-0.47266c0.0475-1.7675 0.50055-3.2288 1.0605-4.5176 0.56-1.29 1.2734-2.4477 2.1484-3.4414 0.075-0.08375 0.15203-0.16508 0.23828-0.23633 1.3662-1.2625 3.228-2.037 5.793-2.1133l0.26758-0.015625h0.58203l0.29883 0.015625c3.1275 0.12625 5.4368 0.96703 6.4043 3.1758 0.0825 0.18375 0.16211 0.39844 0.16211 0.39844l13.428-0.01953-0.03711-0.77734c-0.051-1.063-0.325-1.944-0.717-2.717-1.154-2.2737-3.239-3.6778-5.627-4.7265-3.157-1.385-7.17-2.139-11.508-2.3477l-0.15039-0.015625h-0.17969l-0.17773-0.013672h-0.20898l-0.22461-0.015625h-0.2832l-0.34375-0.013672h-0.61133-0.73242-0.61133zm0.01563 0.73828h0.5957 0.74609 0.59766l0.34375 0.013672h0.26953l0.22266 0.015625h0.20898l0.17969 0.015625h0.17969l0.14844 0.013672c6.1225 0.35125 11.394 1.5464 14.852 4.5352 0.0575 0.04375 0.10539 0.090234 0.15039 0.14648 0.06625 0.055 0.12524 0.11203 0.17774 0.17578 0.055 0.045 0.10594 0.095391 0.14844 0.15039 0.9225 1.035 1.6869 2.2635 1.7969 4.1035 0 0-11.816 0.04492-12.109 0.04492-0.29375-0.55125-0.60625-1.0846-1.0312-1.5059-0.0575-0.07125-0.12086-0.13336-0.19336-0.19336-1.281-1.1899-3.151-1.7954-5.523-1.9042l-0.15039-0.013672h-0.20898l-0.29883-0.015625h-0.58203l-0.2832 0.015625c-3.2988 0.1125-5.6391 1.285-7.1191 3.2188-0.72375 0.945-1.3641 2.1211-1.8516 3.3086-0.505 1.2275-0.90633 2.5859-0.98633 4.1484l-0.01367 0.14648v0.19336 0.57422c0.20875 3.53 2.8467 4.6588 6.4492 4.8301l0.22266 0.01367h1.0156l0.20898-0.01367c2.6988-0.1 4.696-0.89539 6.1348-2.2441 0.08875-0.07625 0.17641-0.1607 0.25391-0.25195 0.14875-0.15 0.30969-0.34242 0.49219-0.57617 0.14625-0.18625 0.64648-0.97852 0.64648-0.97852l-0.60352-0.0098c-2.5075-0.045-7.625-0.0293-7.625-0.0293 0.51-1.6662 1.0259-3.3259 1.5371-4.9922h21.055s-0.08891 0.27906-0.12891 0.41406c-1.1912 3.9625-2.4107 7.9653-3.627 11.945-0.18125 0.595-0.37211 1.1853-0.53711 1.7891-2.1588 0.03375-6.584 0.01563-6.584 0.01563s-0.18617-1.327-0.35742-2.4395c-0.0475-0.305-0.13672-0.9043-0.13672-0.9043s-0.65328 0.56297-0.83203 0.69922c-2.5925 1.9613-6.4337 2.9252-10.732 3.1152l-0.15039 0.01367h-0.17969l-0.17773 0.01563h-0.22461l-0.26758 0.01563h-0.35937c-0.4975 0.02375-1.0982 0.02375-1.5957 0h-0.4043l-0.2832-0.01563h-0.24023l-0.20703-0.01563h-0.17969l-0.17773-0.01367h-0.15039l-0.14844-0.01563c-4.3812-0.17-8.0855-1.1535-11.061-2.7598-1.4688-0.79375-2.8284-1.7774-3.8809-3.0137-1.06-1.2425-1.8788-2.7793-2-4.873-0.035-0.02-0.00563-0.10469-0.015625-0.14844v-0.26562-0.31055-0.29492c0.01-0.05-0.019375-0.13711 0.015625-0.16211 0.23125-3.7638 1.8429-6.1602 3.7754-8.2402 0.18375-0.1925 0.37086-0.37805 0.56836-0.56055 4.3756-4.1125 10.513-6.4834 18.658-6.8672l0.14844-0.013672h0.18164l0.17773-0.015625h0.20898l0.22461-0.015625h0.26758l0.35938-0.013672zm49.838 16.391c-1.5962 5.1788-3.1923 10.469-4.7773 15.684-0.65875 2.1688-1.1816 4.2525-3.1191 5.0938-0.93625 0.40625-2.0966 0.62031-3.4629 0.66406l-0.17774 0.01563h-0.28516-0.84961-0.25391l-0.16406-0.01563c-1.2938-0.04375-2.4237-0.27219-3.3887-0.64844-0.5075-0.1975-0.95008-0.40828-1.2676-0.73828-0.36125-0.37125-0.46508-0.85891-0.33008-1.5352 0.20625-1.0438 0.60016-2.0653 0.91016-3.1016 1.5375-5.1175 3.1631-10.315 4.7031-15.402h-15.896c-1.4963 4.925-2.9785 9.7591-4.4785 14.619-0.51 1.6525-1.1008 3.2087-1.2383 5.1387-0.025 0.1575-0.025 0.41742 0 0.57617 0.095 1.8038 0.91141 3.0413 1.9414 3.9863 1.0338 0.9525 2.3491 1.6294 3.7754 2.1719 2.8675 1.0875 6.386 1.6171 10.135 1.7871l0.14844 0.01367h0.17969l0.17773 0.01563h0.22656l0.20703 0.01563h0.26953l0.2832 0.01367h0.38867l0.56641 0.01367h1.2852l0.55078-0.01367h0.38867l0.2832-0.01367h0.26953l0.20898-0.01563h0.20703l0.18164-0.01563h0.19336l0.14844-0.01367c4.2688-0.19 8.0695-0.84164 11.283-1.9941 1.635-0.585 3.1058-1.3127 4.3008-2.334 1.2012-1.0262 2.0392-2.3098 2.7617-3.8535 0.71625-1.53 1.1887-3.2011 1.7012-4.9023 1.525-5.0725 3.1013-10.145 4.6113-15.195l-12.598-0.01563zm-27.775 0.64453 14.332 0.0098c-1.63 5.3262-3.263 10.68-4.8867 15.988-0.23375 0.7625-0.50578 1.5445-0.55078 2.4082v0.19141c0.12 1.2775 1.0935 1.8504 2.1035 2.2441 1.045 0.40625 2.3088 0.63711 3.6562 0.69336l0.17969 0.01563h0.25391 0.86524 0.26953l0.19336-0.01563c2.0925-0.08125 3.8695-0.47461 5.002-1.5059 0.09125-0.07875 0.1757-0.16 0.25195-0.25 1.12-1.14 1.5299-2.8876 2.0449-4.5488 1.555-5.0162 3.0627-10.111 4.5977-15.121l11.061-0.01563c-1.4538 4.78-2.9187 9.6664-4.3887 14.473-0.29875 0.975-0.56703 1.9489-0.89453 2.8789-0.65 1.8412-1.5237 3.5082-2.7324 4.8145-0.09875 0.11125-0.20445 0.2143-0.31445 0.31055-1.7212 1.5275-4.0383 2.4109-6.582 3.0996-2.5488 0.69125-5.4279 1.0578-8.4629 1.2266l-0.14844 0.01367h-0.15039l-0.16406 0.01563h-0.16211l-0.19531 0.01563h-0.19336l-0.22461 0.01367h-0.25391l-0.29883 0.01563h-0.37305l-0.56641 0.01563h-1.2832l-0.56836-0.01563h-0.37305l-0.29883-0.01563h-0.23828l-0.22266-0.01367h-0.21094l-0.17774-0.01563h-0.17969l-0.16406-0.01563h-0.15039l-0.14844-0.01367c-5.3288-0.32375-10.12-1.1825-13.15-3.7812-0.095-0.08125-0.18508-0.16742-0.26758-0.26367-0.72625-0.7975-1.3112-1.7358-1.3887-3.1758-0.025-0.1475-0.025-0.39938 0-0.54688 0.14-1.8 0.71898-3.3385 1.209-4.916 1.3288-4.2825 4.227-13.802 4.3457-14.213z" transform="matrix(.8 0 0 -.8 237.16 261.17)" stroke="#b31934" stroke-width="0.3" fill="#b31934"/><path d="m29.387 3.1055c-4.086-0.0574-8.208 0.3807-11.533 1.3281-6.876 1.9587-12.167 6.2014-13.836 11.095-0.5798 1.699-0.7489 3.877-0.4262 5.451 0.32661 1.5938 1.5082 3.5044 2.9004 4.6855 3.0837 2.6162 7.6057 4.1868 13.145 4.5684 1.6926 0.1166 5.8043 0.05465 7.2578-0.10938 3.7083-0.41849 6.8283-1.5145 8.7871-3.0898 0.48026-0.38625 0.89061-0.68437 0.91406-0.66211 0.02345 0.02225 0.13406 0.64391 0.24414 1.3809 0.11008 0.73695 0.22727 1.4993 0.26172 1.6953l0.0625 0.35547 3.125-0.02734 3.125-0.0293 0.5332-1.7461c1.9086-6.2717 3.4756-11.454 3.5332-11.684l0.06641-0.26953h-10.307-10.309l-0.67383 2.2109c-0.37141 1.2156-0.67459 2.2479-0.67383 2.293 0.000733 0.04502 1.8478 0.08203 4.1055 0.08203 3.6277 0 4.0973 0.01745 4.041 0.16406-0.16675 0.43454-0.98778 1.4895-1.6191 2.0801-1.4808 1.3852-3.4801 2.0954-6.1992 2.1992-4.9065 0.18738-7.5174-1.278-7.9824-4.4785-0.45549-3.135 1.499-8.1036 4.0234-10.23 1.7925-1.5102 4.1506-2.1607 7.3965-2.0371 3.2926 0.12533 5.4289 1.0481 6.6172 2.8555l0.4707 0.71484h5.8828 5.8828l-0.07617-0.51367c-0.235-1.5725-1.261-3.1328-2.831-4.306-0.99-0.7396-3.272-1.8943-4.594-2.3261-3.179-1.0388-7.229-1.593-11.314-1.6504zm20.613 17.038-0.48 1.582c-0.26413 0.87046-1.438 4.7019-2.6074 8.5137-2.2009 7.1737-2.525 8.4828-2.3867 9.6035 0.23351 1.892 1.364 3.2356 3.7617 4.4668 2.2228 1.1414 5.3099 1.8736 9.2227 2.1895 0.78042 0.06299 1.64 0.13511 1.9102 0.1582 0.94565 0.08081 7.0534-0.03172 8.2969-0.15234 6.8674-0.66622 11.716-2.4046 13.75-4.9316 0.72149-0.89623 1.4673-2.2053 1.959-3.4336 0.23749-0.59329 1.3477-4.099 2.4668-7.791s2.2721-7.4861 2.5605-8.4316l0.52344-1.7188h-5.3301c-4.9814 0-5.3326 0.01286-5.3848 0.19141-0.14728 0.50441-3.0199 10.004-3.7383 12.361-1.5945 5.2325-1.917 6.0491-2.7695 7.0117-0.89986 1.016-2.4392 1.6225-4.6738 1.8418-3.543 0.348-7.097-0.467-8.084-1.853-0.43-0.605-0.518-1.231-0.308-2.23 0.10322-0.49299 1.3154-4.5781 2.6934-9.0781 1.378-4.5001 2.4796-8.2079 2.4473-8.2402-0.03233-0.03236-3.1569-0.05859-6.9434-0.05859h-6.8848z" transform="matrix(.8 0 0 -.8 237.16 261.17)" stroke="#fff" stroke-width="0.3" fill="#fff"/></g></g></svg>
