<?xml version="1.0" encoding="utf-8"?>
<!-- Generator: Adobe Illustrator 22.0.1, SVG Export Plug-In . SVG Version: 6.00 Build 0)  -->
<svg version="1.1" id="Layer_1" xmlns="http://www.w3.org/2000/svg" xmlns:xlink="http://www.w3.org/1999/xlink" x="0px" y="0px"
	 width="250.1px" height="38.25px" viewBox="0 0 250.1 38.25" enable-background="new 0 0 250.1 38.25" xml:space="preserve">
<g>
	<path fill="#331E54" d="M237.78,28.05c-0.08,0-0.18,0-0.29,0h-5.57v-4.58h5.57c0.11,0,0.21,0,0.29,0c0.04,0.4,0.08,1.11,0.08,2.36
		C237.87,26.99,237.83,27.66,237.78,28.05 M220.18,28.46l-2.6,0.8l-0.43,0.13l-0.43-0.13l-2.6-0.8V9.75l2.6-0.8l0.22-0.07l0.98,0.13
		c0.77,0.11,1.53,0.28,2.27,0.51V28.46z M231.92,10.2h5.37c0.08,0,0.15,0,0.22,0c0.03,0.33,0.06,0.87,0.06,1.73
		c0,0.94-0.03,1.52-0.07,1.88c-0.06,0-0.13,0-0.21,0h-5.37V10.2z M172.35,28.46l-2.56,0.79c0.37-2.49,0.52-5.75,0.52-10.13
		c0-4.39-0.15-7.66-0.51-10.15l0.33,0.04c0.76,0.09,1.51,0.25,2.23,0.47V28.46z M157.84,27.7c-0.14,0-0.31,0.01-0.52,0.01h-6.46
		c-0.22,0-0.41,0-0.56-0.01c-0.14-1.28-0.2-4.15-0.2-8.58c0-4.49,0.07-7.24,0.21-8.58h0c0.17,0,0.34-0.01,0.55-0.01h6.46
		c0.21,0,0.38,0,0.53,0.01c0.19,1.86,0.19,6.62,0.19,8.58C158.03,21.09,158.03,25.87,157.84,27.7 M137.83,21.34h-9.61l-0.06,2.04
		c-0.04,1.22-0.1,3.26-0.2,4.32c-0.12,0-0.25,0.01-0.42,0.01h-6.46c-0.23,0-0.41,0-0.55-0.01c-0.14-1.28-0.21-4.15-0.21-8.58
		c0-4.49,0.07-7.24,0.21-8.58h0c0.16,0,0.34-0.01,0.55-0.01h6.46c0.17,0,0.32,0,0.44,0c0.12,1.1,0.16,3.14,0.18,3.91l0.05,2.06h9.63
		c-0.01,0.83-0.02,1.68-0.02,2.61C137.81,19.9,137.82,20.64,137.83,21.34 M108.05,16.7c-0.1-0.11-0.18-0.23-0.28-0.33
		c-0.62-0.62-1.3-1.07-2.06-1.41h2.38C108.07,15.52,108.06,16.1,108.05,16.7 M98.4,27.8c-0.16,0.01-0.37,0.01-0.62,0.01h-6.85
		c-0.21,0-0.38,0-0.52-0.01c-0.05-0.51-0.1-1.36-0.14-2.81l-0.02-0.86l7.27,0.78c0.41,0.04,0.71,0.08,0.92,0.12
		c0.02,0.39,0.02,0.9,0.02,1.14C98.43,26.94,98.42,27.45,98.4,27.8 M90.92,10.45c0.11,0,0.22,0,0.34,0h6.32c0.17,0,0.31,0,0.43,0
		c0.05,0.47,0.09,1.23,0.13,2.47l0.02,0.75L91.83,13l-0.23-0.03c-0.24-0.03-0.48-0.06-0.69-0.09c-0.01-0.38-0.01-0.86-0.01-1.09
		C90.89,11.24,90.9,10.79,90.92,10.45 M78.69,22.95c0.76-0.83,1.32-1.74,1.71-2.91c0.29,0.52,0.62,0.99,1.04,1.43l0.03,0.03
		l0.03,0.03c0.63,0.6,1.32,1.06,2.15,1.42H78.69z M68.92,15.35c-0.15,0.01-0.35,0.01-0.59,0.01h-4.36v-5.12h4.36
		c0.24,0,0.44,0,0.59,0.01c0.04,0.44,0.07,1.22,0.07,2.55C68.99,14.14,68.96,14.91,68.92,15.35 M52.17,28.46l-2.6,0.8l-0.43,0.14
		l-0.47-0.14l-2.72-0.81V9.76l2.72-0.81l0.34-0.1l1.01,0.08c0.73,0.06,1.45,0.18,2.15,0.35V28.46z M247.29,18.48
		c1.7-1.64,2.47-4.04,2.47-7.47c0-4.29-0.76-6.82-2.63-8.76c-1.98-1.98-4.61-2.25-6.91-2.25H218.2v0h-17.71
		c-2.42,0-3.73,1.04-4.23,3.38l-3.03,9.63l-3.02-9.63c-0.51-2.33-1.81-3.38-4.23-3.38h-17.71v3.92c-0.38-0.66-0.81-1.23-1.32-1.72
		c-1.85-1.85-3.94-2.2-7.16-2.2h-11.47c-3.14,0-5.32,0.36-7.18,2.22c-0.91,0.88-1.59,1.99-2.1,3.51c-0.43-1.5-1.08-2.68-2.05-3.66
		c-1.82-1.82-4.57-2.07-7.27-2.07h-11.18c-3.14,0-5.32,0.36-7.18,2.22c-0.97,0.95-1.69,2.14-2.2,3.84c-0.37-1.72-1-2.91-2.08-3.99
		c-1.82-1.82-4.5-2.07-7.13-2.07H88.59c-3.01,0-5.2,0.73-6.69,2.22c-0.73,0.73-1.3,1.58-1.74,2.61c-0.43-1.04-1.01-1.88-1.79-2.66
		c-1.83-1.9-4.44-2.17-6.98-2.17H29.87v8.74l1.86,0.22c0.83,0.1,1.63,0.27,2.42,0.51v18.96l-2.18,0.64v-7.3h-9.7l-0.29,1.77
		l-0.72,4.4h-5.33V9.77l2.81-0.82l1.52-0.44v-8.5H0.05v8.74L1.9,8.98C2.66,9.07,3.4,9.23,4.13,9.45v19.01l-2.6,0.8l-1.48,0.46v8.52
		h68.29v-8.55l-1.52-0.44l-2.85-0.82v-2.97h7.42c2.54,0,5.15-0.27,7.01-2.2c0.08-0.08,0.16-0.17,0.24-0.25l0.02,2.07
		c0.05,5.91,0.43,8.91,2.56,11.05c1.95,1.87,4.6,2.12,7.18,2.12h12.25c3.11,0,5.27-0.71,6.79-2.22c0.91-0.91,1.53-1.99,1.96-3.23
		c0.49,1.36,1.14,2.39,1.99,3.23c1.86,1.86,4.04,2.22,7.18,2.22h11.13c3.13,0,5.57-0.37,7.33-2.18c0.97-0.95,1.61-2.1,2.05-3.6
		c0.51,1.53,1.19,2.65,2.1,3.56c1.86,1.86,4.04,2.22,7.18,2.22h11.47c3.21,0,5.31-0.35,7.18-2.22c0.5-0.5,0.93-1.06,1.3-1.72v3.94
		h18.89v-8.37l-1.29-0.54l-1.72-0.72v-9l3.94,11.06l0.5,1.4h9.29l0.5-1.4l3.94-11.06v9l-1.72,0.72l-1.29,0.54v8.37h40.91
		c3.1,0,5.39-0.77,6.98-2.37c2.05-2.06,2.85-4.65,2.85-9.27C250.05,22.7,249.21,20.11,247.29,18.48"/>
	<path fill="#F4AA00" d="M101.56,16.16c2.33,0.24,3.7,0.68,4.71,1.7c1.31,1.31,1.85,3.4,1.85,8.02c0,4.67-0.63,7.1-2.19,8.65
		c-1.02,1.02-2.57,1.61-5.3,1.61H88.39c-2.87,0-4.52-0.39-5.69-1.51c-1.41-1.41-1.9-3.5-1.95-9.57h7.39
		c0.1,3.35,0.24,4.13,0.53,4.42c0.29,0.29,0.78,0.44,2.24,0.44h6.85c1.41,0,1.99-0.1,2.33-0.39c0.34-0.39,0.44-1.31,0.44-3.35
		c0-1.7-0.05-2.33-0.48-2.77c-0.29-0.29-0.97-0.44-2.33-0.58l-9.96-1.07c-2.33-0.24-3.74-0.73-4.81-1.75
		c-1.31-1.36-1.75-3.35-1.75-7.97c0-4.33,0.63-6.75,2.19-8.31c1.02-1.02,2.62-1.6,5.2-1.6h11.37c2.92,0,4.57,0.39,5.64,1.46
		c1.46,1.46,1.89,3.31,1.99,9.28h-7.34c-0.1-3.06-0.24-3.79-0.58-4.13c-0.29-0.29-0.73-0.39-2.09-0.39h-6.32
		c-0.29,0-0.54,0-0.76,0.01h-4.34c0,0,0.06,0.05,0.18,0.12c0.36,0.23,1.25,0.77,2.52,1.28c-0.06,0.5-0.08,1.16-0.08,2.03
		c0,1.7,0.05,2.33,0.49,2.72c0.29,0.34,0.83,0.39,2.33,0.58L101.56,16.16 M70.51,17.08c0.44-0.49,0.58-1.17,0.58-4.28
		c0-3.11-0.15-3.79-0.58-4.28c-0.29-0.24-0.78-0.39-2.19-0.39h-6.46v9.33h6.46C69.74,17.47,70.22,17.33,70.51,17.08 M76.88,3.67
		c1.46,1.46,2.19,3.16,2.19,8.99c0,6.03-0.73,7.68-2.19,9.14c-1.17,1.21-2.87,1.56-5.49,1.56h-9.53v6.66l4.37,1.26v4.86H50.2v-4.86
		l4.08-1.26V9.26c0.56-0.03,1.12-0.05,1.69-0.05c0.47,0,0.94,0.01,1.41,0.04c-0.16-0.1-0.32-0.2-0.49-0.3
		c-2.12-1.25-4.4-1.93-6.69-2.13V2.12h21.19C74.01,2.12,75.71,2.45,76.88,3.67 M13.82,30.06V8.19l4.33-1.26V2.11H2.16v4.77
		C4.24,7.15,6.3,7.82,8.22,8.95c0.17,0.1,0.33,0.2,0.49,0.3C8.23,9.22,7.75,9.21,7.27,9.21c-0.34,0-0.69,0.01-1.03,0.02v20.79
		l-4.08,1.26v4.86h27.7V23.89h-5.8l-1,6.17H13.82z M121.07,29.82c-1.51,0-1.9-0.1-2.24-0.44c-0.39-0.39-0.63-1.65-0.63-10.25
		c0-5.63,0.1-8.11,0.28-9.27l-0.03,0c-1.29-0.52-2.18-1.06-2.54-1.29c-0.12-0.08-0.18-0.12-0.18-0.12h4.74
		c0.18-0.01,0.38-0.01,0.6-0.01h6.46c1.36,0,1.8,0.1,2.09,0.39c0.39,0.39,0.54,1.41,0.63,5.59h7.53c-0.1-6.42-0.58-9.14-2.29-10.84
		c-1.07-1.07-2.77-1.46-5.78-1.46h-11.18c-3.21,0-4.52,0.44-5.68,1.6c-1.85,1.8-2.72,4.96-2.72,15.41c0,10.4,0.88,13.56,2.72,15.41
		c1.17,1.17,2.48,1.61,5.68,1.61h11.13c3.02,0,4.71-0.39,5.83-1.56c1.75-1.7,2.19-4.47,2.29-11.13h-7.53
		c-0.15,4.76-0.24,5.54-0.63,5.93c-0.29,0.29-0.68,0.44-2.09,0.44H121.07z M43.84,8.19l4.23-1.26V2.12H31.98v4.76
		c2.11,0.25,4.2,0.93,6.15,2.08c0.17,0.1,0.33,0.2,0.49,0.3c-0.49-0.03-0.99-0.04-1.48-0.04c-0.29,0-0.59,0-0.88,0.01v20.79
		l-4.28,1.26v4.86h16.09v-4.86l-4.23-1.26V8.19z M212.01,8.19l4.08-1.26V6.92V2.12h-15.6c-1.41,0-1.89,0.34-2.19,1.8l-4.81,15.32
		h-0.23h-0.05h-0.23l-4.81-15.32c-0.29-1.46-0.78-1.8-2.19-1.8h-15.6v4.81c2.08,0.26,4.14,0.93,6.06,2.06
		c0.17,0.1,0.33,0.2,0.49,0.3c-0.48-0.03-0.96-0.04-1.44-0.04c-0.34,0-0.68,0.01-1.02,0.02v20.75l-4.08,1.26v4.86h14.68v-4.86
		l-3.01-1.26V9.31h0.68l7.35,20.65h6.32l7.35-20.65h0.68v20.7l-3.01,1.26v4.86h14.68v-4.86v0l-4.08-1.26V8.19z M239.39,29.72
		c0.34-0.34,0.59-0.92,0.59-3.89c0-3.01-0.19-3.69-0.63-4.08c-0.29-0.29-0.68-0.39-1.85-0.39h-7.68v8.8h7.68
		C238.61,30.16,239.05,30.06,239.39,29.72 M229.81,15.92h7.48c1.07,0,1.51-0.05,1.8-0.34c0.39-0.44,0.58-1.21,0.58-3.64
		c0-2.38-0.19-3.06-0.58-3.45c-0.24-0.24-0.63-0.39-1.8-0.39h-7.48V15.92z M242.7,18.69c3.64,0.78,5.25,2.53,5.25,7.92
		c0,4.47-0.83,6.37-2.24,7.78c-1.22,1.22-3.01,1.75-5.49,1.75H218.2v-4.86v0l4.08-1.26V9.21c0.25-0.01,0.5-0.01,0.74-0.01
		c0.5,0,1.01,0.01,1.51,0.05c-0.16-0.1-0.32-0.2-0.49-0.3c-1.85-1.09-3.84-1.76-5.85-2.03V2.12h22.02c2.63,0,4.23,0.44,5.4,1.6
		c1.41,1.46,2.04,3.5,2.04,7.29c0,4.91-1.7,6.66-4.96,7.58V18.69 M159.5,29.38c0.44-0.39,0.63-1.65,0.63-10.25
		c0-8.65-0.19-9.87-0.63-10.3c-0.29-0.29-0.73-0.39-2.19-0.39h-6.46c-0.23,0-0.42,0-0.6,0.01h-4.7c0,0,0.07,0.05,0.18,0.12
		c0.36,0.23,1.25,0.77,2.53,1.29c-0.18,1.16-0.28,3.64-0.28,9.27c0,8.65,0.24,9.87,0.63,10.25c0.34,0.34,0.73,0.44,2.24,0.44h6.46
		C158.77,29.82,159.21,29.72,159.5,29.38 M159.79,2.12c3.26,0,4.52,0.44,5.69,1.6c1.85,1.8,2.72,4.96,2.72,15.41
		c0,10.4-0.88,13.56-2.72,15.41c-1.17,1.17-2.43,1.61-5.69,1.61h-11.47c-3.21,0-4.52-0.44-5.69-1.61
		c-1.85-1.85-2.72-5.01-2.72-15.41c0-10.45,0.87-13.61,2.72-15.41c1.17-1.17,2.48-1.6,5.69-1.6H159.79"/>
</g>
</svg>
