<svg xmlns="http://www.w3.org/2000/svg" viewBox="0 0 287.71 70.21">
  <path fill="#c9001f" d="m115.05 4.42-9.13 42-1.47 1.58c1.45-1.88 2.07-4.22 2.47-6.52 2.66-12.88 5.38-25.74 8.02-38.62H98.98c-2.7 12.95-5.36 25.92-8.06 38.86-.76.28-.08-.82-.13-1.21l7.8-37.65H82.7c-2.8 13.53-5.65 27.06-8.44 40.6-.33 2.62.21 5.48 2.13 7.4 2.81 3.16 7.2 4.26 11.29 4.31 4.96.14 10.07-1.19 13.97-4.36.33-.23 1.1-.93.42-.24l-4.27 4.6h22.28l1.54-7.26c.47 3.04 2.93 5.46 5.8 6.36 2.99 1.06 6.19.6 9.28.7 2.95.06 6 .01 8.78-1.1a12.15 12.15 0 0 0 7.66-8.32c.79-3.24 1.54-6.5 2.33-9.74.34-2.33.38-5-1.27-6.86-1.59-1.92-3.83-3.06-5.78-4.54l-2.98-2.1h12.72c.3-1.31.58-2.63.89-3.93 1.17 13.94 2.4 27.89 3.6 41.83 9.33-17.94 18.63-35.89 27.98-53.81l-8.6 40.01-8.12 8.76H190l8-8.71a858295 858295 0 0 0 9.19-43.47H192.4c-.11-.3-1.16-.04-1.63-.13h-13.82l-3.75 8.52c-.1-2.84-.07-5.69-.34-8.52h-15.14l.28 3.2c-2.4-2.36-5.95-3.03-9.2-2.79-2.76.06-5.52-.12-8.27.1-4.18.38-8.38 2.47-10.54 6.18-.36.67-.52.96-.27 0l1.42-6.7H115.4l-.35 1.57zm92.63 0-9.07 41.92-8.2 8.83h82.37l3.09-14.08H265.4l1.25-5.8h6.07l2.99-14.08h-6.03l.84-4.14h10.46l3.18-14.22h-26.34l-8.34 38.24h-8.9l8.21-38.24h-15.81l-8.27 38.24h-9.09l8.21-38.24h-15.81l-.34 1.58zm-183.94.02-9.06 41.98-8.12 8.76h32.58l2.99-14.08H31.75c2.7-12.76 5.48-25.5 8.24-38.24h-15.9l-.35 1.58ZM64.8 2.87C59.57 3 54.14 4.86 50.66 8.9a12.03 12.03 0 0 0-2.92 6.3c-2.04 9.57-4.14 19.14-6.16 28.72-.48 2.62.4 5.4 2.28 7.3 2.8 3.03 7.12 3.97 11.1 3.96 5.13.04 10.49-1.5 14.17-5.21a12.72 12.72 0 0 0 3.76-7.3C74.92 33 77 23.36 79 13.7a8.44 8.44 0 0 0-3.42-7.92c-3.07-2.3-7.03-3.05-10.8-2.92Zm79.64 12.26c-.44 1.86-.77 3.74-1.18 5.61-.41-.25-.94-.6-.67-1.16.34-1.46.53-2.97.96-4.38.29-.1.6-.06.9-.07zM57.56 42.11c-.57.23.08-.94.03-1.3L63 15.89c.34.16-.18 1.14-.18 1.63l-5.26 24.6zm69.02-17.56a7.78 7.78 0 0 0 2.92 5.05c2.39 1.75 4.85 3.4 7.28 5.09H124.4l2.16-10.2zM139.2 36.4c.43.15.54.59.35.97-.35 1.87-.7 3.78-1.11 5.61-.38 0-1.45.36-1.08-.32.52-2.17.97-4.36 1.44-6.54l.4.28z"/>
  <path d="m21.77 0-9.73 45.05L0 58.03h41.44l.91-4.28c2.96 2.84 7.2 4.28 12.64 4.28s10.5-1.5 14.4-4.5a18.2 18.2 0 0 0 3.17-3.22c.37.73.79 1.41 1.3 2 3.1 3.8 7.92 5.72 14.33 5.72h34.21l.6-2.86c2.33 1.73 5.43 2.67 8.98 2.67h7.13c8.82 0 15.47-4.92 17-12.55.42-1.62.71-2.85.98-4.05.23-1.01.46-2 .76-3.19l2.81 32.17 6.32-12.17h108.08l4.34-19.79H275l3.9-18.31h4.37v-.02L287.71 0h-32.2l-8.33 38.24h-3.07L252.34 0h-21.66l-8.27 38.24h-3.25L227.36 0H80.39l-1.12 5.37a13.46 13.46 0 0 0-3.78-3.05A20.16 20.16 0 0 0 65.68 0c-5.67 0-10.56 1.5-14.65 4.6-3.17 2.59-5.13 5.56-5.83 8.83l-5.34 24.81h-4.6C36.53 32.29 43.52 0 43.52 0H21.77zm3.94 4.85h11.8c-5.52 25.4-8.2 38.1-8.2 38.24h10.35l-2.14 10.08H11.14l5.38-5.8 9.2-42.52zm39.97 0c2.76 0 5.31.55 7.46 1.73 2.62 1.45 3.93 3.45 3.93 6.14 0 .42-.07.97-.21 1.52l-6.21 29.27h.01c-.55 2.35-2 4.42-4.28 6.21C63.41 52 59.55 53.17 55 53.17c-4.56 0-8.01-1.24-10.01-3.73a5.99 5.99 0 0 1-1.52-4.07c0-.55.07-1.1.21-1.73l6.28-29.2c.48-2.28 1.93-4.28 4.14-6.07 3.11-2.35 6.97-3.52 11.59-3.52zm18.65 0h11.8L88.4 42.2c0 1.03.62 1.59 2 1.59s2.21-.55 2.48-1.66l7.73-37.27h11.87c-.07.48-2.76 13.19-7.94 38.17-.55 2.49-2 4.7-4.42 6.42h.01c-3.18 2.48-7.18 3.73-11.94 3.73s-8.42-1.31-10.56-3.93a6.11 6.11 0 0 1-1.45-4.21c0-.55 0-1.17.14-1.73l8.01-38.45zm32.68 0h11.67l-10.22 48.33h-16.08l5.38-5.8 9.25-42.52zm42.9 0h11.11c.07.36.14 5.53.41 15.54l6.83-15.53h10.91c-7.87 15.04-16.22 31.19-25.12 48.3-1.38-15.73-2.76-31.8-4.14-48.3zm49.72 0h11.73l-8.21 38.25h10.42l-.35 1.59-7.87 8.49H195l5.45-5.87 9.18-42.45zm24.97 0h11.73l-8.21 38.25h10.42l-.35 1.59-7.87 8.49h-20.35l5.45-5.87 9.18-42.45zm24.84 0h22.23l-2.28 10.23H268.9l-1.66 8.14h6.01l-2.14 10.08h-6.07c-1.38 6.42-2.07 9.73-2.14 9.8h10.5l-2.22 10.08h-26.3l5.3-5.87 9.26-42.45zM192.98 5h11.74l-8.56 40.52-7.04 7.66h-10.63l5.38-5.8L192.98 5zm-49.95.28h6.21c5.52-.42 10.35 2.7 8.77 8.7h.01c-.55 2.54-.9 3.79-1.45 6.34h-11.18c.48-2.21.62-3.24 1.17-5.45.28-1.1-.35-1.73-1.66-1.73h-.9c-1.38 0-2.14.62-2.48 1.73l-.9 4.35c-.28 1.31.14 2.28 1.31 3.04 2.83 2.07 5.59 3.93 8.49 6.01 1.52 1.03 2.42 2 2.9 3.04.41 1.1.41 2.48.14 4.35-.9 3.38-1.17 5.04-2.07 8.56-1.17 6.14-6.63 8.84-12.49 8.76h-6.35c-5.66.21-10.22-2.69-8.84-8.76.7-2.9 1.03-4.42 1.73-7.52h11.18c-.55 2.55-.83 3.93-1.52 6.76-.21 1.03.41 1.6 1.73 1.6h1.1c1.38 0 2.14-.56 2.48-1.6.41-2.28.69-3.38 1.1-5.73.35-1.24-.07-2.28-1.17-2.97-2.9-2.07-5.73-3.93-8.63-6.01-1.45-.97-2.42-1.93-2.76-3.1a5.84 5.84 0 0 1-.14-4.22c.7-3.04.9-4.56 1.59-7.46 1.31-6.2 6.76-8.84 12.63-8.7zM63.4 13.83c-1.3 0-2.06.55-2.34 1.52L55.2 42.41c-.07.48.07.97.48 1.24.41.35.9.55 1.38.55 1.38 0 2.14-.55 2.42-1.52l5.8-27.13c.14-.48 0-.9-.42-1.24-.4-.35-.9-.48-1.44-.48h-.01z"/>
</svg>
