<svg height="48.424" viewBox="0 0 187.25637 48.42378" width="187.25999" xmlns="http://www.w3.org/2000/svg">
  <path d="m 123.26294,1.0778538 3.7373,3.1084 -0.16114,32.9004992 -2.208,3.2959 h 10.965 l 0.11524,-26.119 h 2.96095 l -0.13379,26.119 h 11.9825 l -3.25975,-3.3008 0.0889,-19.9475 c 0.008,-1.92565 -0.0688,-3.3208 -0.21191,-4.0908 -0.565,-3.0799992 -2.8501,-4.7167992 -6.39251,-4.7167992 -1.8019,0 -3.37625,0.5761 -5.094,1.6836002 l 0.085,-8.7110002 -12.46501,-0.22155 z m -122.57501223,9.75e-4 3.85939963,3.2549 0.0039,32.7294992 -2.9218997,3.36425 12.1024993,-0.04492 0.05859,-22.5265 h 0.36035 l 3.60645,22.5265 h 5.704 l 3.66015,-22.5265 h 0.41992 l -0.05664,22.5265 12.708,0.04492 -3.56935,-3.38475 0.118165,-32.5604992 2.69725,-3.4033 -15.125,0.220705 -3.5049,19.7814992 h -0.419915 l -3.342,-19.7814992 -16.36049923,-0.22055 z m 152.02001223,0.220705 -0.0801,5.3575 h 8.7675 l 0.0791,-5.3575 z m -73.365013,7.0265 c -1.9219,0 -3.35955,0.67545 -5.0595,1.8779502 l -0.0088,-1.6855502 -11.8495,-0.03808 3.0801,3.2841992 -0.0176,25.332 -2.1885,3.33105 10.8945,-0.04492 0.143555,-26.12 h 3.1094 l -0.250975,26.12 h 8.6475 l 0.04395,-26.12 h 3.11135 l -0.152345,26.12 h 11.555518 l -2.843759,-3.3086 0.0401,-19.9395 c 0.0325,-1.78125 0.0158,-3.1768 -0.15235,-4.0918 -0.5581,-3.031899 -2.85045,-4.7167992 -6.393504,-4.7167992 -2.2206,0 -4.24965,0.72225 -6.1555,2.1191502 -1.83625,-1.4931002 -3.39245,-2.1191502 -5.5535,-2.1191502 z m 37.339013,0 c -1.8019,0 -3.3189,0.5774 -5.035,1.6855502 l -0.0352,-1.4931502 H 99.202731 l 3.638709,2.6454992 -0.0401,33.4885 -2.70606,3.09375 h 11.41001 l 0.042,-8.9045 c 1.775,1.1556 3.31415,1.68555 5.0565,1.68555 5.824,0 6.6265,-3.467 6.6135,-8.7605 l 0.0684,-14.632 c 0.006,-1.92565 -0.01,-3.3218 -0.15234,-4.0918 -0.56625,-3.0799992 -2.90865,-4.7167992 -6.451,-4.7167992 z m -60.985013,0.126955 -8.371,0.02246 c -5.2625,0.486875 -5.881,2.3341992 -5.91,8.0339992 l -0.08105,15.883 c 0.01313,2.0231 0.15828,3.4657 0.30078,4.23635 0.64625,3.5144 3.7281,3.9453 9.913,3.9453 9.069,0 10.246,-1.106 10.2645,-8.1815 l -0.0215,-3.7051 h -8.7665 l 0.160155,5.7765 h -2.9619 l -0.0752,-9.002 h 11.6515 l 0.0332,-8.952 c 0.01435,-1.87815 -0.05312,-3.2252 -0.20312,-4.04395 -0.51125,-2.7793992 -2.407,-3.7170492 -5.9325,-4.0126992 z m 124.445013,0 -8.6505,0.04785 c -4.3275,0.4575 -5.6105,2.0070992 -5.632,6.7089992 l -0.0498,3.31935 c 0.0263,1.445 0.0324,2.45635 0.13867,3.0332 0.35437,1.9256 1.8026,2.93715 4.8457,4.13965 l 3.43945,1.3955 c 2.39875,0.96375 3.0185,1.39605 3.2129,2.45605 0.009,0.0475 0.0627,0.33621 0.0508,0.9131 l 0.13965,3.99705 h -2.96385 l -0.10254,-5.537 h -11.6805 l 2.8955,2.83885 -0.005,0.62695 c 0.002,1.97315 0.14883,3.416 0.29883,4.23535 0.47125,2.5669 2.24365,3.49015 5.576,3.8008 l 7.5525,-10e-4 0.0195,-0.002 c 5.685,-0.391875 7.0125,-2.06445 7.0295,-8.033 l -0.0508,-2.8877 c 0.0206,-0.8669 0.041,-1.73365 -0.1084,-2.55175 -0.29125,-1.5881 -1.40625,-2.7433 -3.2969,-3.55955 l -3.64745,-1.542 c -2.605,-1.1069 -4.2118,-1.3475 -4.5137,-2.9844 -0.0606,-0.338125 -0.004,-0.67395 -0.0234,-1.10645 l 0.0401,-3.49705 h 2.96385 l -0.12695,5.085 h 8.7665 l 0.0166,-2.83885 c 0.0338,-1.78125 -0.0346,-3.12955 -0.20215,-4.04395 -0.5125,-2.7793992 -2.40825,-3.7170492 -5.9325,-4.0126992 z m -30.827,0.06543 3.33885,2.8075992 -0.0196,29.0565 h 12.244 l -3.5293,-3.25195 0.0732,-28.6124992 h -12.1075 z M 50.204927,14.263418 h 2.96095 l -0.125975,5.711 h -2.8828 l 0.04785,-5.711 z m 61.335013,0 h 3.1094 l 0.0156,20.2 h -3.1094 l -0.02,-20.2 z" fill="#004991" />
</svg>
