<?xml version="1.0" encoding="UTF-8"?>
<svg  xmlns="http://www.w3.org/2000/svg" viewBox="0 0 74.36 41.14">
<style>
 .cls-1 {fill: #c1c6c8;}
 .cls-2 {fill: #5d1725;}
</style>
 <path class="cls-1" d="M3.55,32.25c1.25-1.02,2.3-2.02,3.26-3.08-1.54-1.47-2.21-3.55-2.01-6.22,.24-3.21,1.72-5.21,2.92-6.33,1.46-1.37,3.35-2.2,5.18-2.3h.17s.21-.01,.21-.01c.61,0,1.2,.07,1.75,.21,.29-.73,.57-1.44,.82-2.12-.14-.22-.27-.42-.37-.59-1.44-2.37-2.19-4.87-2.12-7.05,.04-1.32,.41-2.4,1.09-3.21C15.24,.62,16.38,.1,17.83,.01c.16,0,.25-.01,.34-.01,1.49,0,2.32,.67,2.76,1.24,.8,1.04,1.02,2.63,.69,4.87-.25,1.68-.77,3.39-1.11,4.52l-.07,.22c-.09,.3-.19,.61-.29,.92,.91,1.38,1.9,3.01,2.67,4.78,.98,2.27,1.41,4.35,1.29,6.36-.14,2.34-1.2,4.41-3.06,5.99-1.6,1.36-3.73,2.25-5.83,2.45-.23,.02-.47,.04-.71,.05-.26,.01-.54,.02-.85,.02-1.21,0-2.32-.13-3.33-.39-1.67,1.59-3.63,2.58-5.97,3.01l-3.86,.71,3.04-2.5Zm9.92-4.9c.24,0,.49,0,.75-.02,.23-.01,.46-.03,.7-.05,1.69-.16,3.09-.78,4.04-1.81,.68-.74,1.14-1.72,1.21-2.55,.11-1.48-.3-3.22-1.21-5.18-.17-.36-.35-.72-.54-1.09-.03,.08-.06,.15-.09,.23,.48,.8,.72,1.73,.69,2.71-.04,1.5-.69,2.81-1.23,3.63-.61,.94-1.41,1.42-1.49,1.47l-2.34,1.36v.02c-.26,.43-.5,.85-.76,1.28,.09,0,.19,0,.28,0Zm-.35-9.2h-.1c-.75,.06-1.42,.28-1.98,.64-.49,.31-.92,.74-1.27,1.28-.68,1.04-.92,2.27-.93,3,0,.94,.07,1.96,.56,2.74,1.36-2.05,2.69-4.53,4.1-7.67-.05,0-.11,0-.17,0-.07,0-.14,0-.21,0ZM17.72,3.82c-.19,.02-.27,.08-.36,.25-.21,.39-.24,1.11-.08,1.95,.06,.31,.14,.63,.25,.96,.12-.54,.2-1.03,.25-1.47,.13-1.12,0-1.55-.06-1.68Z"/>
 <path class="cls-2" d="M4.05,32.86c1.51-1.24,2.75-2.45,3.88-3.78-1.76-1.3-2.55-3.34-2.34-6.07,.23-2.95,1.58-4.79,2.67-5.81,1.32-1.24,3.03-2,4.69-2.09,.05,0,.1,0,.15,0,.87-.02,1.68,.11,2.4,.4,.46-1.11,.87-2.18,1.24-3.19-.22-.34-.42-.65-.57-.9-1.36-2.24-2.07-4.59-2-6.61,.04-1.14,.34-2.06,.91-2.73,.64-.76,1.59-1.19,2.82-1.27,.02,0,.04,0,.05,0,1.06-.06,1.86,.25,2.37,.92,.65,.85,.83,2.28,.53,4.27-.24,1.63-.75,3.31-1.08,4.42l-.06,.21c-.12,.41-.26,.84-.4,1.27,.95,1.43,2.02,3.14,2.82,4.98,.93,2.16,1.33,4.12,1.22,6-.12,2.12-1.09,4-2.78,5.44-1.48,1.25-3.44,2.08-5.4,2.26-.22,.02-.45,.04-.67,.05-1.12,.06-2.78,.02-4.37-.47-1.63,1.67-3.56,2.69-5.89,3.12l-.86,.16,.69-.56Zm7.77-4.84c.71,.11,1.52,.14,2.43,.1,.23-.01,.48-.03,.73-.05,1.89-.17,3.47-.89,4.55-2.06,.81-.88,1.34-2.01,1.41-3.03,.12-1.61-.31-3.49-1.28-5.57-.38-.81-.83-1.67-1.39-2.61-.27,.71-.55,1.44-.85,2.17,.55,.74,.82,1.63,.79,2.59-.04,1.32-.62,2.48-1.1,3.22-.52,.8-1.2,1.2-1.23,1.22l-.35,.2,.16-.37c.45-1.03,.78-2.68,.52-4.05-.96,2.14-1.95,4.13-2.75,5.5-.07,.13-.15,.26-.22,.39-.44,.77-.9,1.56-1.43,2.35m1.26-10.67s-.08,0-.12,0c-.88,.07-1.67,.32-2.35,.75-.59,.37-1.09,.88-1.5,1.52-.77,1.19-1.05,2.55-1.05,3.43,0,1.34,.16,3,1.43,4.02,1.72-2.42,3.36-5.45,5.13-9.51-.43-.18-.95-.25-1.54-.22M17.71,3.03s-.03,0-.05,0c-.45,.04-.78,.26-1,.66-.3,.56-.36,1.43-.16,2.47,.19,.99,.61,2.1,1.21,3.22,.45-1.5,.74-2.78,.86-3.79,.13-1.14,.05-1.92-.24-2.3-.15-.19-.34-.28-.62-.26"/>
 <path class="cls-1" d="M18.22,40.84c-1.92-1.02-5.19-2.48-9.83-3.59-2.71-.65-8.38-2.08-8.38-2.08l66.6-11.34c1.79-.29,2.55-.74,2.88-1.06,.27-.27,.33-.56,.33-.9s-.03-.71-.24-.97c-.24-.29-.77-.44-1.53-.44-.11,0-.22,0-.33,0-.12,0-.25,.02-.38,.03-1.51,.15-2.33,.76-3.28,1.46-1.07,.79-2.28,1.68-4.47,1.99-.22,.03-.45,.05-.66,.07-.12,0-.24,0-.35,0-1.1,0-2.06-.28-2.86-.83,0,0-.01,.02-.02,.02-.57,.6-1.53,1.38-2.83,1.69-.27,.06-.54,.11-.8,.12-.07,0-.14,0-.21,0-.87,0-1.65-.31-2.26-.88-.71,.8-1.77,1.57-3.34,1.81-.25,.04-.5,.07-.73,.08-.1,0-.21,0-.31,0-1.08,0-1.98-.31-2.67-.91-.34,.34-.7,.63-1.08,.89-.85,.57-1.79,.95-2.8,1.12-.34,.06-.68,.1-.99,.11-.13,0-.25,.01-.37,.01-.95,0-1.75-.2-2.42-.59-.49,.45-1.16,.88-2.03,1.07-.25,.05-.5,.09-.73,.1-.07,0-.14,0-.21,0-1.23,0-2.28-.58-2.99-1.65-.19,.3-.39,.62-.61,.95-.57,.84-1.08,1.32-1.76,1.65-.64,.32-1.39,.48-2.53,.73l-4.06,.9,2.92-2.61c2.17-1.94,4.9-5.51,5.57-11.5,.11-.98,.22-1.97,.33-2.96l-4.82,1.05,.36-3.91,4.87-.95c.17-1.65,.27-2.73,.29-2.96l.11-1.14,3.56,.56-.25,2.81,2.71-.53-.32,3.65-2.73,.6-.71,7.84c-.19,2.03,.12,3.13,.43,3.46,.05,.05,.07,.05,.09,.05,.03,0,.06,0,.1-.02,.12-.03,.31-.2,.51-.58-.19-1.6,.14-3.34,.34-4.41l.03-.16c.33-1.79,1.09-3.48,2.13-4.76,1.19-1.46,2.69-2.34,4.33-2.53,.1-.01,.2-.02,.3-.02,.08,0,.17,0,.26,0,.42,0,.86,.05,1.29,.16l.02-.29,2.52-.26,.3-3.24,4.85-.95c.19-1.84,.42-4.1,.42-4.1l3.55,.56-.25,2.81,2.71-.53-.32,3.65-2.73,.6-.71,7.84c-.2,2.16,.04,3.24,.3,3.52,.5-.05,.9-.34,1.26-.88,.04-.06,.08-.12,.11-.18-.42-1.45-.48-3.25-.2-5.35,.3-2.21,1.05-4,2.24-5.33,1.09-1.22,2.51-2.02,4.22-2.38,.28-.06,.56-.1,.85-.11,.09,0,.18,0,.27,0,1.27,0,2.44,.48,3.29,1.36,.87,.89,1.33,2.13,1.24,3.33-.09,1.12-.39,2.6-1.93,4.06-1.26,1.19-3.23,2.29-6.15,3.42,.13,.34,.31,.6,.52,.78,.25,.21,.56,.32,.93,.32h.1c.09,0,.18-.02,.28-.04,.57-.11,1.38-.62,2.25-1.16,1.52-.95,3.21-2.01,5.29-2.26,.32-.04,.63-.07,.93-.08,.22-.01,.44-.02,.65-.02,1.44,0,2.66,.27,3.61,.8,1.48,.82,2.3,2.26,2.36,4.15,.03,1.08-.16,1.99-.59,2.8-.4,.74-.98,1.35-1.77,1.87-1.31,.85-2.98,1.32-5.03,1.83l-.29,.06c-4.92,.97-21.49,4.27-28.26,5.73-3.6,.78-7.31,1.58-10.56,2.65-3.41,1.12-6.13,2.46-8.56,4.23l-.52,.38-.56-.3ZM39.99,15.1c-.52,.03-1.15,.44-1.7,1.09-.68,.82-1.19,1.93-1.42,3.14-.08,.41-.26,1.36-.28,2.25-.02,1.13,.22,1.58,.37,1.75,.09,.1,.25,.24,.65,.24h.1c.17-.01,.37-.05,.59-.1,.74-.19,1.38-.51,1.9-.96,.33-.29,.62-.63,.85-1.02-.02-.36-.02-.75,0-1.15,.07-1.44,.19-3.42,.29-4.97-.37-.19-.78-.28-1.23-.28h-.12Zm5.31-3.01c-.03,.41-.13,2.11-.3,5.06l-.04,.74c-.09,1.51-.24,3.79,.27,4.3,.03,.03,.07,.08,.25,.08,.16,0,.32-.03,.57-.11,.72-.23,1.27-1.04,1.68-2.46,.41-1.45,.57-3.23,.72-4.8,.04-.46,.08-.88,.12-1.28l.31-2.97-3.54,.78-.04,.67Zm15.38-1.42c-.2,.01-.42,.06-.65,.14-.72,.27-1.3,.59-1.74,1.23-.47,.68-.8,1.68-1,3.13,1.05-.45,2.05-.92,2.82-1.46,.52-.36,.9-.72,1.15-1.09,.25-.37,.36-.73,.36-1.15,0-.27-.07-.47-.22-.6-.18-.16-.45-.2-.63-.2h-.09Z"/>
 <path class="cls-2" d="M18.59,40.14c-1.96-1.04-5.29-2.53-10.02-3.66-2.85-.68-5.32-1.19-5.34-1.19l63.5-10.69c1.6-.26,2.71-.69,3.31-1.29,.5-.5,.56-1.04,.56-1.46,0-.45-.05-1.02-.42-1.47-.45-.54-1.29-.78-2.51-.72-.13,0-.28,.02-.42,.03-1.72,.17-2.67,.87-3.67,1.61-1.05,.77-2.12,1.56-4.12,1.85-.2,.03-.4,.05-.59,.06-1.35,.07-2.45-.31-3.27-1.15-.15,.2-.32,.4-.5,.59-.5,.52-1.32,1.2-2.44,1.47-.23,.05-.45,.09-.66,.1-1.29,.07-2.04-.67-2.45-1.38-.58,.95-1.62,2.05-3.43,2.33-.22,.03-.44,.06-.65,.07-1.08,.06-1.94-.22-2.55-.83-.14-.14-.27-.3-.38-.47-.46,.56-.97,1.04-1.54,1.42-.75,.51-1.59,.84-2.49,.99-.31,.05-.62,.09-.9,.1-1.22,.06-2.17-.22-2.84-.85-.4,.5-1.09,1.13-2.11,1.35-.2,.04-.41,.07-.6,.08-1.15,.06-2.07-.48-2.67-1.56-.2-.36-.33-.71-.42-1.01-.3,.55-.77,1.38-1.34,2.22-.49,.72-.9,1.11-1.45,1.39-.56,.27-1.27,.43-2.35,.67l-1.11,.25,.66-.59c2.27-2.03,5.13-5.76,5.83-12,.15-1.33,.3-2.7,.44-4.06l-4.84,1.06,.2-2.25,4.86-.95c.22-2.16,.35-3.53,.36-3.59l.02-.26,2,.32s-.13,1.44-.28,3.12l2.72-.53-.18,2.02-2.73,.6c-.27,2.99-.62,6.83-.76,8.42-.18,1.98,.06,3.46,.65,4.08,.2,.21,.44,.31,.71,.29,.08,0,.17-.02,.25-.04,.53-.14,.9-.73,1.12-1.21-.23-1.53,.1-3.33,.3-4.41l.03-.14c.31-1.67,1.01-3.23,1.97-4.41,1.06-1.3,2.37-2.08,3.81-2.24,.08,0,.16-.02,.25-.02,.71-.04,1.5,.12,2.22,.43,.02-.27,.03-.43,.03-.43l.02-.21,2.17-.22-.02,.26s-.11,1.74-.3,5.06c-.01,.25-.03,.51-.04,.74-.13,2.03-.26,4.14,.5,4.91,.22,.23,.52,.33,.91,.31,.21-.01,.45-.06,.72-.14,1-.32,1.71-1.3,2.2-3,.43-1.52,.6-3.35,.75-4.96h0c.04-.44,.08-.86,.12-1.25,.14-1.33,.29-2.69,.43-4.06l-4.83,1.06,.2-2.25,4.85-.95c.23-2.21,.37-3.58,.37-3.59l.03-.26,1.99,.31-.28,3.12,2.72-.53-.18,2.02-2.73,.6c-.27,2.99-.62,6.83-.76,8.42-.14,1.5-.16,3.43,.52,4.13,.17,.18,.37,.26,.62,.25,.02,0,.04,0,.07,0,.71-.08,1.31-.5,1.8-1.24,.11-.17,.21-.35,.3-.54-.47-1.39-.56-3.18-.27-5.32,.28-2.05,.96-3.7,2.04-4.91,.98-1.09,2.25-1.81,3.79-2.13,.24-.05,.49-.08,.73-.1,1.15-.06,2.19,.33,2.95,1.11,.71,.73,1.09,1.74,1.01,2.72-.08,1.04-.34,2.28-1.69,3.55-1.28,1.21-3.36,2.33-6.57,3.51,.17,.83,.49,1.46,.96,1.86,.42,.37,.97,.54,1.58,.51,.12,0,.25-.02,.38-.04,.72-.13,1.56-.66,2.54-1.28,1.43-.9,3.05-1.91,4.95-2.14,.3-.04,.59-.06,.88-.08,1.58-.08,2.87,.15,3.84,.69,1.24,.69,1.9,1.86,1.95,3.48,.03,.93-.13,1.72-.5,2.4-.33,.62-.83,1.14-1.51,1.58-1.2,.79-2.81,1.23-4.79,1.73h-.01c-.21,.04-20.76,4.1-28.51,5.78-3.61,.78-7.35,1.59-10.64,2.67-3.49,1.15-6.28,2.53-8.77,4.34l-.12,.09-.13-.07ZM39.93,14.31c-.73,.04-1.55,.54-2.25,1.38-.77,.92-1.33,2.16-1.59,3.5-.08,.43-.28,1.42-.29,2.38-.02,1.06,.17,1.83,.56,2.28,.32,.37,.78,.54,1.39,.51,.23-.01,.48-.05,.74-.12,.87-.22,1.61-.6,2.22-1.13,.46-.4,.84-.88,1.14-1.44-.03-.4-.04-.83-.02-1.29,.07-1.58,.21-3.81,.32-5.43-.64-.46-1.38-.67-2.2-.64,0,0-.02,0-.03,0m20.71-4.44c-.29,.01-.58,.08-.89,.19-.74,.28-1.52,.66-2.11,1.52-.61,.88-1,2.18-1.21,4.07-.03,.26-.05,.51-.06,.75l.04-.02c1.48-.61,3.01-1.24,4.15-2.04,.6-.42,1.05-.84,1.35-1.29,.34-.5,.5-1.02,.5-1.6,0-.5-.17-.91-.49-1.19-.32-.29-.77-.42-1.29-.4"/>
 <polygon class="cls-1" points="68.91 28.79 68.47 28.79 68.47 28.56 69.63 28.56 69.63 28.79 69.19 28.79 69.19 30.09 68.91 30.09 68.91 28.79"/>
 <path class="cls-1" d="M71.09,29.46c0-.2-.02-.44-.02-.64h0c-.05,.19-.11,.39-.18,.59l-.22,.66h-.22l-.2-.65c-.06-.2-.11-.4-.15-.6h0c0,.2-.02,.44-.03,.65l-.03,.62h-.26l.1-1.53h.37l.2,.62c.06,.18,.1,.36,.14,.53h0c.04-.17,.09-.35,.15-.53l.21-.61h.36l.09,1.53h-.27l-.03-.62Z"/>
</svg>