<?xml version="1.0" encoding="UTF-8" standalone="no"?>
<svg
   xmlns:dc="http://purl.org/dc/elements/1.1/"
   xmlns:cc="http://creativecommons.org/ns#"
   xmlns:rdf="http://www.w3.org/1999/02/22-rdf-syntax-ns#"
   xmlns:svg="http://www.w3.org/2000/svg"
   xmlns="http://www.w3.org/2000/svg"
   xmlns:sodipodi="http://sodipodi.sourceforge.net/DTD/sodipodi-0.dtd"
   xmlns:inkscape="http://www.inkscape.org/namespaces/inkscape"
   width="199.83594"
   height="106.87189"
   viewBox="0 0 199.83594 106.87189"
   version="1.1"
   id="svg44"
   sodipodi:docname="Mt-st-marys_logo_from_NCAA.svg"
   inkscape:version="1.0.1 (3bc2e813f5, 2020-09-07)">
  <metadata
     id="metadata50">
    <rdf:RDF>
      <cc:Work
         rdf:about="">
        <dc:format>image/svg+xml</dc:format>
        <dc:type
           rdf:resource="http://purl.org/dc/dcmitype/StillImage" />
      </cc:Work>
    </rdf:RDF>
  </metadata>
  <defs
     id="defs48" />
  <sodipodi:namedview
     pagecolor="#ffffff"
     bordercolor="#666666"
     borderopacity="1"
     objecttolerance="10"
     gridtolerance="10"
     guidetolerance="10"
     inkscape:pageopacity="0"
     inkscape:pageshadow="2"
     inkscape:window-width="747"
     inkscape:window-height="480"
     id="namedview46"
     showgrid="false"
     inkscape:zoom="1.2704305"
     inkscape:cx="100"
     inkscape:cy="53.10753"
     inkscape:window-x="0"
     inkscape:window-y="27"
     inkscape:window-maximized="0"
     inkscape:current-layer="svg44" />
  <!-- Generator: Sketch 54.1 (76490) - https://sketchapp.com -->
  <title
     id="title2">mt-st-marys</title>
  <desc
     id="desc4">Created with Sketch.</desc>
  <g
     id="g42"
     stroke="none"
     stroke-width="1"
     fill="none"
     fill-rule="evenodd"
     transform="translate(0,-46.89247)">
    <g
       id="mt-st-marys_BGL">
      <g
         id="mt-st-marys"
         transform="translate(0,46)">
        <g
           id="g10"
           transform="matrix(1,0,0,-1,0,107.76435)"
           fill-rule="nonzero">
          <g
             id="g12">
            <path
               d="M 3.9779089,5.2451542 V 19.641342 l -0.034022,5.560208 1.6582788,0.733125 v 5.8851 L 0,36.567397 v 25.812915 l 4.9168082,2.308128 c 5.9962418,2.816405 12.0861448,5.388814 18.1000438,7.645637 l 6.647099,2.54258 2.231112,-2.06771 70.007397,34.062933 66.04802,-34.2252 1.8786,2.116033 6.99299,-2.429232 c 6.01879,-2.260403 12.10738,-4.832812 18.09634,-7.645041 l 4.91753,-2.308128 V 46.616554 l -0.0453,-9.749262 -4.77495,-5.637584 -0.78269,0.375422 v -5.280298 l 1.65488,-0.736168 V 5.7091244 L 190.8057,0.20110902 181.28147,4.6432214 c -2.90351,1.351111 -5.87323,2.6552124 -8.82625,3.8740043 l -5.25638,2.1702013 0.0471,4.284623 c -4.83818,2.043252 -17.35183,6.833289 -34.74839,9.888799 -10.53662,1.851276 -21.37092,2.789441 -32.20284,2.789441 -19.739892,0 -39.129004,-3.114511 -57.628094,-9.257509 -2.987502,-1.000447 -6.013482,-2.096167 -8.987203,-3.25554 L 33.019895,14.880895 32.969127,10.35818 27.707143,8.2207903 C 24.797494,7.0388067 21.79812,5.7408201 18.792662,4.36102 L 9.2957492,0 3.9779089,5.2451542"
               id="path14"
               fill="#ffffff" />
            <polyline
               id="path16"
               fill="#9f8c50"
               points="173.565395 66.8062623 101.880385 103.878894 28.260402 67.8824741 29.7804616 64.3143906 167.436237 65.1656956 169.262337 66.7233391 170.623113 66.055181 173.565395 66.8062623" />
            <polyline
               id="path18"
               fill="#192c4e"
               points="101.880385 103.878894 175.606856 65.6751661 170.604023 65.0266949 105.826097 96.8238604 102.637432 94.6469775 128.096641 82.1202067 91.3855309 91.7906017 28.3386719 58.3486935 27.690141 67.7810572 101.880385 103.878894" />
            <polyline
               id="path20"
               fill="#192c4e"
               points="48.2023552 77.1895581 79.1767318 91.6265451 100.039968 81.1674849 70.3952257 84.5434729 52.7367623 75.3425783 48.2023552 77.1895581" />
            <polyline
               id="path22"
               fill="#ffffff"
               points="30.0239814 66.2872467 101.708573 101.977626 134.045038 85.716329 101.830273 100.268454 93.8756129 96.2064107 115.630124 86.83788 89.7741961 94.4149119 79.2853075 88.8023841 90.0581633 83.9594312 75.1832942 87.1033535 30.4993878 64.3299014 30.0239814 66.2872467" />
            <path
               d="M 73.736613,74.017597 C 53.175122,71.10753 38.924085,65.812974 34.445637,63.997016 c -1.7322,-0.67651 -5.693781,-4.64185 -5.693781,-4.64185 l -1.534735,7.642595 C 21.445488,64.776136 15.587949,62.239521 9.8074867,59.458194 L 6.7009096,57.96325 3.0268933,38.33193 6.4480834,35.433198 c 0,0 3.8720956,1.827949 5.4574196,2.577122 -0.03025,-2.741178 -0.172647,-15.355585 -0.186189,-16.564832 -0.459777,-0.209933 -1.60352,-0.728412 -1.60352,-0.728412 L 10.096465,17.110812 7.0048022,6.87475 9.9485158,3.9713825 17.558478,7.465533 c 3.014109,1.3827889 6.054049,2.700611 9.037554,3.912841 0,0.0012 3.409336,1.385175 3.409336,1.385175 0,0 0.03913,3.494169 0.05059,4.552603 0.859418,0.335093 2.552184,0.995018 2.552184,0.995018 3.017331,1.17566 6.089903,2.288442 9.130977,3.306786 36.813601,12.224787 69.969161,10.322983 91.298911,6.576048 20.52736,-3.605071 34.31111,-9.550007 37.25757,-10.893482 -0.0113,-0.98786 -0.0477,-4.238688 -0.0477,-4.238688 l 3.37479,-1.393527 c 3.01209,-1.243251 6.02238,-2.5659657 8.94974,-3.9290082 l 7.53408,-3.5132109 2.79493,3.0299298 L 190.295,20.97897 c 0,0 -1.13408,0.525519 -1.59583,0.73921 0.0149,1.201969 0.15153,13.438866 0.18196,16.16865 1.56182,-0.749172 5.36137,-2.569903 5.36137,-2.569903 l 2.56704,3.030634 -2.43042,5.630365 0.15451,13.853661 -3.07174,1.500313 c -5.71037,2.784728 -11.51022,5.329694 -17.23908,7.563848 l -2.64817,-3.685011 c 0,0 -4.62998,2.300969 -4.64907,0.610887 C 130.23594,77.919163 96.061444,77.17882 73.736613,74.017597"
               id="path24"
               fill="#9f8c50" />
            <path
               d="m 138.10648,75.244741 c -26.08739,5.04519 -49.341083,4.011335 -66.093357,1.69903 C 50.830543,74.018193 35.4712,68.378224 33.313288,67.786426 L 29.01196,71.771512 24.093243,69.889931 C 18.163698,67.665323 12.147889,65.125129 6.2148246,62.338552 L 3.0268933,60.841758 V 38.33193 c 0,0 3.9755823,1.832126 5.6021893,2.582014 0,-2.742312 0,-15.354452 0,-16.565071 C 8.1571363,24.140074 6.9826695,23.620641 6.9826695,23.620641 l 0.022133,-3.607577 V 6.87475 L 14.8173,10.376137 c 3.093512,1.383982 6.215063,2.702938 9.279463,3.917077 l 3.501327,1.389351 c 0,0 0,3.491782 0,4.550693 0.883222,0.335809 2.621685,0.996212 2.621685,0.996212 3.100493,1.177092 6.256943,2.29214 9.383147,3.312871 37.846144,12.249246 72.079698,10.371185 94.133088,6.640298 21.22357,-3.59129 35.51559,-9.526443 38.57241,-10.867591 0,-0.986905 0,-4.239821 0,-4.239821 l 3.4965,-1.390067 c 3.12244,-1.239732 6.24668,-2.559881 9.28143,-3.923162 l 7.81506,-3.5059803 V 24.007755 c 0,0 -1.17822,0.524325 -1.65429,0.7373 0,1.201551 0,13.438926 0,16.168233 1.62029,-0.746906 5.56242,-2.565727 5.56242,-2.565727 l 0.04,8.640715 v 13.853482 l -3.18807,1.496794 c -5.92513,2.781804 -11.93974,5.321998 -17.87621,7.551379 l -5.02252,1.74437 c 0,0 -2.6959,-3.034154 -3.77927,-4.254735 -10.74899,4.004176 -19.14571,5.982997 -28.87696,7.865175"
               id="path26"
               fill="#192c4e" />
            <path
               d="m 193.18896,61.335121 c -5.8953,2.768084 -11.88188,5.296943 -17.79329,7.516779 l -4.244,1.492617 -3.76972,-4.242803 c -11.19761,4.271439 -19.39031,6.163161 -29.57315,8.164653 -25.96809,5.279641 -50.017602,4.130648 -68.534529,1.303504 C 49.465174,72.320356 32.76331,66.352273 32.76331,66.352273 L 28.43818,70.379118 24.482445,68.8519 C 18.579627,66.636836 12.591797,64.107978 6.6867112,61.335121 L 4.1349738,60.137209 V 40.065025 c 0,0 4.4719164,2.060015 5.6033108,2.582013 0,-8.818016 0,-16.102728 0,-19.020551 C 8.9657865,23.285309 8.0953913,22.900581 8.0953913,22.900581 l 0.018673,-2.880298 V 8.5875613 l 6.2488287,2.7997017 c 3.106338,1.391201 6.242983,2.716242 9.324862,3.93736 l 2.802267,1.110157 v 4.564474 l 3.335898,1.26771 c 3.116838,1.182402 6.290768,2.303296 9.433259,3.328919 0,0 -0.0047,0.0077 -0.0058,0.0088 73.750691,23.851155 134.164111,-4.570977 134.164111,-4.570977 v -4.206293 l 2.79732,-1.11135 c 3.13557,-1.245757 6.27353,-2.572468 9.32617,-3.941536 l 6.25146,-2.8045935 V 23.287635 c 0,0 -0.88233,0.393856 -1.65489,0.737361 0,2.882624 0,9.946129 0,18.620909 1.13528,-0.52343 5.57077,-2.569485 5.57077,-2.569485 l 0.0322,6.91651 v 13.144279 l -2.55153,1.197912"
               id="path28"
               fill="#192c4e" />
            <path
               d="M 25.930738,65.595226 C 25.81375,65.548097 14.173184,60.897836 8.4452198,58.208917 L 8.273706,58.128261 V 46.223414 c 0,0 3.674213,8.156719 3.764892,8.358061 0.153795,0.06849 1.300999,0.580045 1.837256,0.81909 0,-0.8939 0,-34.491513 0,-34.589111 -0.03216,-0.09324 -1.826518,-5.287577 -1.826518,-5.287577 l 10.438777,4.409247 c 0,0 -1.715377,2.804594 -1.7983,2.939239 0,0.167099 0,35.012617 0,35.411125 0.284265,0.113707 1.651245,0.660403 1.97399,0.789501 0.250976,-0.341178 3.675943,-4.990425 3.675943,-4.990425 v 11.675525 l -0.409008,-0.162863"
               id="path30"
               fill="#9f8c50" />
            <path
               d="M 49.226546,67.387918 39.091841,64.437881 c 0,0 1.748963,-2.012827 1.882476,-2.166742 0,-0.214765 0,-11.223206 0,-11.638001 -0.355377,-0.11466 -3.863267,-1.244862 -4.503386,-1.451096 0,0.758538 0,11.325041 0,11.475973 0.07523,0.131842 2.066518,3.607457 2.066518,3.607457 L 27.112721,60.282176 c 0,0 2.275078,-1.747949 2.483639,-1.908307 0,-0.290351 0,-27.551498 0,-27.679164 -0.0522,-0.115854 -1.918329,-4.195138 -1.918329,-4.195138 l 0.679791,0.257778 c 3.181387,1.208053 6.417062,2.351081 9.616644,3.396211 l 0.385205,0.125876 c 0,0 -1.785772,2.515795 -1.88874,2.661477 0,0.182908 0,10.713079 0,11.127636 0.345354,0.111618 3.871857,1.246293 4.503386,1.449724 0,-0.756451 0,-10.835436 0,-10.962684 -0.05524,-0.117405 -1.913438,-4.053632 -1.913438,-4.053632 l 0.652051,0.207666 c 3.179716,1.009933 9.612408,2.801968 9.676778,2.819925 l 0.40173,0.111618 c 0,0 -1.803908,2.637972 -1.901805,2.781268 0,0.183207 0,26.990544 0,27.128948 0.05942,0.119911 1.988009,4.025652 1.988009,4.025652 l -0.651096,-0.189112"
               id="path32"
               fill="#9f8c50" />
            <path
               d="M 69.966889,71.748246 C 64.102608,70.836091 57.647306,69.5302 51.789946,68.07099 l -0.466099,-0.115734 c 0,0 2.24161,-2.642208 2.374168,-2.797912 0,-0.217152 0,-26.39988 0,-26.517584 -0.04498,-0.107442 -1.867979,-4.478926 -1.867979,-4.478926 l 0.575809,0.143117 c 5.855451,1.458076 11.794601,2.658912 17.652915,3.569396 l 0.252349,0.03937 -0.0024,12.699 c 0,0 -3.707084,-7.66944 -3.833557,-7.925309 -0.269649,-0.05124 -5.20865,-0.99645 -5.831469,-1.115048 0,0.651573 0,8.569604 0,9.015898 0.32871,0.06568 1.299329,0.261477 1.584489,0.318568 0.199255,-0.326741 2.990008,-4.90076 2.990008,-4.90076 l 0.0167,16.391349 c 0,0 -2.944072,-6.14783 -3.066369,-6.403937 -0.205816,-0.04146 -1.080984,-0.218106 -1.524832,-0.30783 0,0.656465 0,8.50088 0,8.95129 0.426548,0.08054 5.532588,1.050559 5.88695,1.117971 0.202237,-0.32692 3.780462,-6.114422 3.780462,-6.114422 V 71.80253 l -0.34422,-0.05429"
               id="path34"
               fill="#9f8c50" />
            <path
               d="m 98.269945,74.077254 -0.238628,-5.97e-4 c 0,0 -3.298434,-14.821178 -3.819239,-17.162296 -0.457569,2.418911 -3.221476,17.007785 -3.221476,17.007785 l -0.257122,-0.01074 c -3.186279,-0.130648 -9.917971,-0.69381 -9.985384,-0.699776 l -0.520805,-0.04355 c 0,0 2.140492,-3.016257 2.244892,-3.163013 0,-0.187919 0,-27.499477 0,-27.676122 -0.09247,-0.140074 -1.959732,-2.982848 -1.959732,-2.982848 l 7.299627,0.55302 c 0,0 -1.890529,2.50088 -2.003281,2.650022 0,0.173662 0,15.592185 0,19.760179 0.940194,-4.208084 4.974795,-22.271081 4.974795,-22.271081 l 2.976286,0.102491 0.05071,0.227949 c 0,0 3.868158,17.952274 4.803579,22.2956 0,-4.277107 0,-19.505503 0,-19.668367 -0.100224,-0.143773 -1.941834,-2.790156 -1.941834,-2.790156 l 10.347497,-0.16871 c 0,0 -1.92155,2.719045 -2.02356,2.865145 0,0.187383 0,27.524056 0,27.68513 0.0782,0.133035 1.95377,3.3217 1.95377,3.3217 l -0.50411,0.01491 c -0.0543,0.0018 -5.4771,0.159285 -8.175984,0.153319"
               id="path36"
               fill="#9f8c50" />
            <path
               d="m 111.09619,72.066217 c -1.04817,-0.962267 -1.57912,-2.438776 -1.57912,-4.390156 V 46.01885 c 0,-4.001252 2.21149,-6.218821 6.57241,-6.592811 l 4.04176,-0.39475 c 2.37316,-0.260761 4.07457,0.102491 5.19911,1.111767 1.00402,0.899091 1.5129,2.325489 1.5129,4.239404 v 21.531931 c 0.001,4.122893 -2.26577,6.553318 -6.55571,7.028784 -5.9e-4,0 -4.05548,0.395526 -4.05548,0.395526 -2.27472,0.195078 -4.00238,-0.233259 -5.13587,-1.272484 z m 7.12006,-28.027978 c -1.53318,0.149142 -1.71096,0.790455 -1.71156,1.259359 v 22.110603 c -5.9e-4,0.28874 0.0752,0.498732 0.23267,0.642506 0.25115,0.228486 0.74213,0.314392 1.42103,0.248769 1.7032,-0.169426 1.70559,-1.00343 1.70619,-1.277852 0,-0.0012 0,-22.111797 0,-22.111797 0,-0.285697 -0.0746,-0.492886 -0.22789,-0.631767 -0.24997,-0.226756 -0.72842,-0.30783 -1.42044,-0.239821 z"
               id="path38"
               fill="#9f8c50" />
            <path
               d="m 129.74317,71.30917 c 0,0 1.65369,-3.726174 1.70321,-3.838329 0,-0.125876 0,-23.759522 0,-23.760715 0,-4.035914 2.13154,-6.417301 6.51514,-7.278151 l 4.02147,-0.841223 c 2.38211,-0.526651 4.0871,-0.34422 5.21283,0.559046 0.98971,0.794631 1.49202,2.158807 1.49202,4.057151 0,0 0,23.554421 0,23.745324 0.10679,0.148546 2.39344,3.324086 2.39344,3.324086 l -0.41999,0.110366 c -2.58971,0.681879 -5.4425,1.378672 -7.82639,1.912006 l -0.56555,0.126472 c 0,0 1.84936,-4.375242 1.8953,-4.483221 0,-0.120507 0,-22.785503 0,-22.785503 -6e-4,-0.693691 -0.16943,-1.166771 -0.51663,-1.445966 -0.44325,-0.357941 -1.21581,-0.419448 -2.29739,-0.185473 -1.98002,0.43132 -2.94348,1.414526 -2.94348,3.007785 0,0.0011 0,21.873288 0,22.758598 0.0817,0.135421 2.11365,3.510812 2.11365,3.510812 l -0.41044,0.08591 c -3.31335,0.693811 -6.69411,1.311261 -10.04862,1.836839 l -0.54049,0.08412 0.22192,-0.499926"
               id="path40"
               fill="#9f8c50" />
            <path
               d="m 152.34601,66.666665 c 0,0 1.59164,-3.930201 1.634,-4.035794 0,-0.115138 0,-25.807606 0,-25.955555 -0.0668,-0.125876 -1.79269,-3.364116 -1.79269,-3.364116 l 7.02222,-2.077256 -0.23743,0.578136 c 0,0 -1.64296,3.941536 -1.6877,4.048978 0,0.106726 0,11.308516 0,13.848829 1.00164,-2.561312 8.0179,-20.505473 8.0179,-20.505473 l 6.4859,-2.367606 -0.24638,0.619597 c 0,0 -1.63639,4.058583 -1.67815,4.16179 0,0.115794 0,25.795793 0,25.952393 0.0746,0.131424 1.83624,3.218076 1.83624,3.218076 l -7.30201,2.654138 0.29411,-0.645488 c 0,0 1.83564,-4.077852 1.88695,-4.19132 0,-0.11305 0,-10.027502 0,-12.448739 -0.99568,2.461327 -7.71962,19.090767 -7.71962,19.090767 l -0.13363,0.03818 -6.61596,1.954959 0.23625,-0.574497"
               id="path42"
               fill="#9f8c50" />
            <path
               d="M 173.53855,65.317821 V 51.676658 c 0,0 3.48456,7.04698 3.73572,7.388158 0.32155,-0.128859 1.62863,-0.667621 1.9132,-0.781328 0,-0.398747 0,-33.715554 0,-33.832959 -0.0442,-0.107442 -1.72707,-4.154094 -1.72707,-4.154094 l 0.28158,-0.112096 c 3.18628,-1.266577 6.37972,-2.615361 9.49202,-4.011215 l 0.60373,-0.271499 c 0,0 -1.81119,5.824251 -1.83744,5.9095 0,0.08835 0,32.696912 0,33.589679 0.53632,-0.238867 1.6877,-0.751499 1.84042,-0.819329 0.0907,-0.201819 3.76137,-8.359194 3.76137,-8.359194 v 11.90598 l -0.17121,0.08066 c -5.79448,2.71994 -11.67845,5.20525 -17.48904,7.388098 l -0.40328,0.151529 v -0.430723"
               id="path44"
               fill="#9f8c50" />
            <path
               d="M 25.930738,65.595226 C 25.81375,65.548097 14.173184,60.897836 8.4452198,58.208917 L 8.273706,58.128261 V 46.223414 c 0,0 3.674213,8.156719 3.764892,8.358061 0.153795,0.06849 1.300999,0.580045 1.837256,0.81909 0,-0.8939 0,-34.491513 0,-34.589111 -0.03216,-0.09324 -1.826518,-5.287577 -1.826518,-5.287577 l 10.438777,4.409247 c 0,0 -1.715377,2.804594 -1.7983,2.939239 0,0.167099 0,35.012617 0,35.411125 0.284265,0.113707 1.651245,0.660403 1.97399,0.789501 0.250976,-0.341178 3.675943,-4.990425 3.675943,-4.990425 v 11.675525 l -0.409008,-0.162863"
               id="path46"
               fill="#9f8c50" />
            <path
               d="M 49.226546,67.387918 39.091841,64.437881 c 0,0 1.748963,-2.012827 1.882476,-2.166742 0,-0.214765 0,-11.223206 0,-11.638001 -0.355377,-0.11466 -3.863267,-1.244862 -4.503386,-1.451096 0,0.758538 0,11.325041 0,11.475973 0.07523,0.131842 2.066518,3.607457 2.066518,3.607457 L 27.112721,60.282176 c 0,0 2.275078,-1.747949 2.483639,-1.908307 0,-0.290351 0,-27.551498 0,-27.679164 -0.0522,-0.115854 -1.918329,-4.195138 -1.918329,-4.195138 l 0.679791,0.257778 c 3.181387,1.208053 6.417062,2.351081 9.616644,3.396211 l 0.385205,0.125876 c 0,0 -1.785772,2.515795 -1.88874,2.661477 0,0.182908 0,10.713079 0,11.127636 0.345354,0.111618 3.871857,1.246293 4.503386,1.449724 0,-0.756451 0,-10.835436 0,-10.962684 -0.05524,-0.117405 -1.913438,-4.053632 -1.913438,-4.053632 l 0.652051,0.207666 c 3.179716,1.009933 9.612408,2.801968 9.676778,2.819925 l 0.40173,0.111618 c 0,0 -1.803908,2.637972 -1.901805,2.781268 0,0.183207 0,26.990544 0,27.128948 0.05942,0.119911 1.988009,4.025652 1.988009,4.025652 l -0.651096,-0.189112"
               id="path48"
               fill="#9f8c50" />
            <path
               d="M 69.966889,71.748246 C 64.102608,70.836091 57.647306,69.5302 51.789946,68.07099 l -0.466099,-0.115734 c 0,0 2.24161,-2.642208 2.374168,-2.797912 0,-0.217152 0,-26.39988 0,-26.517584 -0.04498,-0.107442 -1.867979,-4.478926 -1.867979,-4.478926 l 0.575809,0.143117 c 5.855451,1.458076 11.794601,2.658912 17.652915,3.569396 l 0.252349,0.03937 -0.0024,12.699 c 0,0 -3.707084,-7.66944 -3.833557,-7.925309 -0.269649,-0.05124 -5.20865,-0.99645 -5.831469,-1.115048 0,0.651573 0,8.569604 0,9.015898 0.32871,0.06568 1.299329,0.261477 1.584489,0.318568 0.199255,-0.326741 2.990008,-4.90076 2.990008,-4.90076 l 0.0167,16.391349 c 0,0 -2.944072,-6.14783 -3.066369,-6.403937 -0.205816,-0.04146 -1.080984,-0.218106 -1.524832,-0.30783 0,0.656465 0,8.50088 0,8.95129 0.426548,0.08054 5.532588,1.050559 5.88695,1.117971 0.202237,-0.32692 3.780462,-6.114422 3.780462,-6.114422 V 71.80253 l -0.34422,-0.05429"
               id="path50"
               fill="#9f8c50" />
            <path
               d="m 98.269945,74.077254 -0.238628,-5.97e-4 c 0,0 -3.298434,-14.821178 -3.819239,-17.162296 -0.457569,2.418911 -3.221476,17.007785 -3.221476,17.007785 l -0.257122,-0.01074 c -3.186279,-0.130648 -9.917971,-0.69381 -9.985384,-0.699776 l -0.520805,-0.04355 c 0,0 2.140492,-3.016257 2.244892,-3.163013 0,-0.187919 0,-27.499477 0,-27.676122 -0.09247,-0.140074 -1.959732,-2.982848 -1.959732,-2.982848 l 7.299627,0.55302 c 0,0 -1.890529,2.50088 -2.003281,2.650022 0,0.173662 0,15.592185 0,19.760179 0.940194,-4.208084 4.974795,-22.271081 4.974795,-22.271081 l 2.976286,0.102491 0.05071,0.227949 c 0,0 3.868158,17.952274 4.803579,22.2956 0,-4.277107 0,-19.505503 0,-19.668367 -0.100224,-0.143773 -1.941834,-2.790156 -1.941834,-2.790156 l 10.347497,-0.16871 c 0,0 -1.92155,2.719045 -2.02356,2.865145 0,0.187383 0,27.524056 0,27.68513 0.0782,0.133035 1.95377,3.3217 1.95377,3.3217 l -0.50411,0.01491 c -0.0543,0.0018 -5.4771,0.159285 -8.175984,0.153319"
               id="path52"
               fill="#9f8c50" />
            <path
               d="m 111.09619,72.066217 c -1.04817,-0.962267 -1.57912,-2.438776 -1.57912,-4.390156 V 46.01885 c 0,-4.001252 2.21149,-6.218821 6.57241,-6.592811 l 4.04176,-0.39475 c 2.37316,-0.260761 4.07457,0.102491 5.19911,1.111767 1.00402,0.899091 1.5129,2.325489 1.5129,4.239404 v 21.531931 c 0.001,4.122893 -2.26577,6.553318 -6.55571,7.028784 -5.9e-4,0 -4.05548,0.395526 -4.05548,0.395526 -2.27472,0.195078 -4.00238,-0.233259 -5.13587,-1.272484 z m 7.12006,-28.027978 c -1.53318,0.149142 -1.71096,0.790455 -1.71156,1.259359 v 22.110603 c -5.9e-4,0.28874 0.0752,0.498732 0.23267,0.642506 0.25115,0.228486 0.74213,0.314392 1.42103,0.248769 1.7032,-0.169426 1.70559,-1.00343 1.70619,-1.277852 0,-0.0012 0,-22.111797 0,-22.111797 0,-0.285697 -0.0746,-0.492886 -0.22789,-0.631767 -0.24997,-0.226756 -0.72842,-0.30783 -1.42044,-0.239821 z"
               id="path54"
               fill="#9f8c50" />
            <path
               d="m 129.74317,71.30917 c 0,0 1.65369,-3.726174 1.70321,-3.838329 0,-0.125876 0,-23.759522 0,-23.760715 0,-4.035914 2.13154,-6.417301 6.51514,-7.278151 l 4.02147,-0.841223 c 2.38211,-0.526651 4.0871,-0.34422 5.21283,0.559046 0.98971,0.794631 1.49202,2.158807 1.49202,4.057151 0,0 0,23.554421 0,23.745324 0.10679,0.148546 2.39344,3.324086 2.39344,3.324086 l -0.41999,0.110366 c -2.58971,0.681879 -5.4425,1.378672 -7.82639,1.912006 l -0.56555,0.126472 c 0,0 1.84936,-4.375242 1.8953,-4.483221 0,-0.120507 0,-22.785503 0,-22.785503 -6e-4,-0.693691 -0.16943,-1.166771 -0.51663,-1.445966 -0.44325,-0.357941 -1.21581,-0.419448 -2.29739,-0.185473 -1.98002,0.43132 -2.94348,1.414526 -2.94348,3.007785 0,0.0011 0,21.873288 0,22.758598 0.0817,0.135421 2.11365,3.510812 2.11365,3.510812 l -0.41044,0.08591 c -3.31335,0.693811 -6.69411,1.311261 -10.04862,1.836839 l -0.54049,0.08412 0.22192,-0.499926"
               id="path56"
               fill="#9f8c50" />
            <path
               d="m 152.34601,66.666665 c 0,0 1.59164,-3.930201 1.634,-4.035794 0,-0.115138 0,-25.807606 0,-25.955555 -0.0668,-0.125876 -1.79269,-3.364116 -1.79269,-3.364116 l 7.02222,-2.077256 -0.23743,0.578136 c 0,0 -1.64296,3.941536 -1.6877,4.048978 0,0.106726 0,11.308516 0,13.848829 1.00164,-2.561312 8.0179,-20.505473 8.0179,-20.505473 l 6.4859,-2.367606 -0.24638,0.619597 c 0,0 -1.63639,4.058583 -1.67815,4.16179 0,0.115794 0,25.795793 0,25.952393 0.0746,0.131424 1.83624,3.218076 1.83624,3.218076 l -7.30201,2.654138 0.29411,-0.645488 c 0,0 1.83564,-4.077852 1.88695,-4.19132 0,-0.11305 0,-10.027502 0,-12.448739 -0.99568,2.461327 -7.71962,19.090767 -7.71962,19.090767 l -0.13363,0.03818 -6.61596,1.954959 0.23625,-0.574497"
               id="path58"
               fill="#9f8c50" />
            <path
               d="M 173.53855,65.317821 V 51.676658 c 0,0 3.48456,7.04698 3.73572,7.388158 0.32155,-0.128859 1.62863,-0.667621 1.9132,-0.781328 0,-0.398747 0,-33.715554 0,-33.832959 -0.0442,-0.107442 -1.72707,-4.154094 -1.72707,-4.154094 l 0.28158,-0.112096 c 3.18628,-1.266577 6.37972,-2.615361 9.49202,-4.011215 l 0.60373,-0.271499 c 0,0 -1.81119,5.824251 -1.83744,5.9095 0,0.08835 0,32.696912 0,33.589679 0.53632,-0.238867 1.6877,-0.751499 1.84042,-0.819329 0.0907,-0.201819 3.76137,-8.359194 3.76137,-8.359194 v 11.90598 l -0.17121,0.08066 c -5.79448,2.71994 -11.67845,5.20525 -17.48904,7.388098 l -0.40328,0.151529 v -0.430723"
               id="path60"
               fill="#9f8c50" />
            <path
               d="m 25.743176,64.876956 c 0,-0.733781 0,-7.538673 0,-8.978613 -0.751797,1.020671 -2.872662,3.900015 -2.872662,3.900015 l -2.779418,-1.112006 0.0021,-0.201104 V 22.704847 c 0,0 1.237405,-2.022968 1.524475,-2.492528 -0.556242,-0.23493 -7.528173,-3.179538 -8.567517,-3.61742 0.327398,0.947293 1.422222,4.116331 1.422222,4.116331 v 35.608709 l -2.885011,-1.286622 c 0,0 -1.9425502,-4.313915 -2.7171363,-6.03305 0,2.036033 0,8.430306 0,8.747681 5.1679643,2.412528 14.8307823,6.309918 16.8729003,7.129008"
               id="path62"
               fill="#ffffff" />
            <path
               d="M 48.742311,66.624905 C 48.333362,65.797463 47.293064,63.690379 47.293064,63.690379 V 36.238567 c 0,0 1.185443,-1.734228 1.535689,-2.246681 -1.339955,-0.375183 -5.816316,-1.634482 -8.646025,-2.509769 0.394512,0.835198 1.388158,2.939955 1.388158,2.939955 v 11.915287 l -5.699806,-1.835108 0.0033,-0.216495 V 32.750961 c 0,0 1.186578,-1.672006 1.532648,-2.16 -2.859359,-0.940253 -5.739657,-1.957464 -8.586607,-3.028247 0.398687,0.872662 1.372528,3.001223 1.372528,3.001223 v 28.104041 c 0,0 -1.283997,0.986428 -1.840955,1.414347 0.864788,0.301268 7.653811,2.668456 8.874213,3.094407 -0.468187,-0.8173 -1.351827,-2.36003 -1.351827,-2.36003 v -12.45375 l 5.693006,1.834452 0.0035,0.218583 v 12.078269 c 0,0 -1.011364,1.163908 -1.417569,1.631022 0.757167,0.220134 7.511887,2.186428 8.588994,2.499627"
               id="path64"
               fill="#ffffff" />
            <path
               d="m 69.71454,71.101564 c 0,-0.593587 0,-7.714839 0,-9.362565 -0.768979,1.243848 -2.891574,4.677107 -2.891574,4.677107 l -6.780611,-1.287398 0.0048,-0.245786 v -9.927219 l 2.530052,0.510604 0.06562,0.135183 c 0,0 1.293363,2.71481 1.978822,4.154512 0,-1.984967 0,-9.999046 0,-11.627979 -0.677703,1.111111 -2.101715,3.445667 -2.101715,3.445667 l -2.474571,-0.498255 0.0018,-0.244176 v -9.981148 l 6.827143,1.306368 0.0698,0.132618 c 0,0 1.990156,4.029888 2.77047,5.608948 0,-1.945414 0,-9.060164 0,-9.480805 -5.604773,-0.877375 -11.277972,-2.027681 -16.8834,-3.405817 0.333482,0.799523 1.463445,3.508546 1.463445,3.508546 v 26.856316 c 0,0 -1.432245,1.687695 -1.889873,2.226994 5.603519,1.381059 11.707442,2.615362 17.309828,3.498285"
               id="path66"
               fill="#ffffff" />
            <path
               d="m 94.480535,55.370737 c 0,0 3.942132,17.719791 4.029231,18.109351 2.268754,-0.0018 6.087994,-0.102014 7.414174,-0.138404 -0.37226,-0.633558 -1.52424,-2.592096 -1.52424,-2.592096 V 42.712065 c 0,0 1.01596,-1.437853 1.45503,-2.060015 -0.96286,0.01605 -7.133181,0.116271 -8.053092,0.131901 0.418792,0.601223 1.409098,2.024579 1.409098,2.024579 v 25.456942 c 0,0 -5.838031,-27.097509 -5.934676,-27.544936 -0.342431,-0.01116 -1.656077,-0.05662 -2.018195,-0.06968 -0.106189,0.475406 -6.045638,27.066367 -6.045638,27.066367 v -25.36847 c 0,0 1.032066,-1.365608 1.464579,-1.936525 -0.807755,-0.06198 -4.112751,-0.312484 -4.99985,-0.380075 0.42774,0.651574 1.391797,2.118538 1.391797,2.118538 v 28.044683 c 0,0 -1.313647,1.851156 -1.749143,2.465026 1.581506,0.129455 6.457867,0.520209 9.181208,0.643102 0.09366,-0.49396 3.664728,-19.346815 3.664728,-19.346815 l 0.314989,1.414049"
               id="path68"
               fill="#ffffff" />
            <path
               d="m 142.11066,36.173124 c -0.001,0 -4.03341,0.843311 -4.03341,0.843311 -4.06025,0.798389 -6.0343,2.98774 -6.0343,6.694168 0,7.16e-4 0,23.886711 0,23.886711 0,0 -1.18837,2.677405 -1.52901,3.445786 3.027,-0.482625 6.06771,-1.038031 9.05951,-1.657867 -0.34482,-0.573303 -1.76286,-2.928561 -1.76286,-2.928561 0,0 0,-22.922713 0,-22.923847 0,-1.889217 1.14839,-3.09727 3.41357,-3.590156 1.28441,-0.278479 2.20015,-0.179448 2.79791,0.30246 0.48978,0.394989 0.73855,1.037495 0.73915,1.91135 v 22.90601 c 0,0 -1.14899,2.717972 -1.48964,3.523937 2.12737,-0.483818 4.54587,-1.075018 6.81701,-1.668009 -0.39851,-0.55302 -1.99732,-2.774049 -1.99732,-2.774049 V 40.206949 c 0,-1.731245 -0.41521,-2.907144 -1.2689,-3.592483 -0.96108,-0.772021 -2.54736,-0.920507 -4.71171,-0.441342"
               id="path70"
               fill="#ffffff" />
            <path
               d="m 154.54138,36.459954 0.0352,0.06622 v 26.221028 c 0,0 -1.10246,2.722744 -1.44549,3.569873 0.93423,-0.275615 5.05295,-1.492617 5.28322,-1.560626 0.1056,-0.261298 8.76063,-21.665026 8.76063,-21.665026 l 6e-4,15.642714 c 0,0 -1.23192,2.737002 -1.64952,3.664072 0.99508,-0.361522 4.78031,-1.737808 5.3047,-1.928114 -0.28218,-0.494556 -1.56361,-2.740999 -1.56361,-2.740999 V 31.503057 c 0,0 1.10664,-2.744877 1.47114,-3.647905 -0.97718,0.35651 -4.75705,1.734706 -4.97778,1.816495 -0.0978,0.249366 -9.07323,23.202863 -9.07323,23.202863 l 6e-4,-17.132289 c 0,0 1.13647,-2.728173 1.49262,-3.581744 -0.91812,0.271498 -4.56018,1.348784 -5.12275,1.515883 0.27622,0.517345 1.48367,2.783594 1.48367,2.783594"
               id="path72"
               fill="#ffffff" />
            <path
               d="m 174.13512,64.878149 c 5.60775,-2.119612 11.27934,-4.513646 16.87039,-7.132528 0,-0.321849 0,-6.707472 0,-8.744161 -0.77434,1.720269 -2.71379,6.032096 -2.71379,6.032096 l -2.88919,1.286562 10e-4,-0.460015 V 21.720506 c 0,0 1.17823,-3.790544 1.47711,-4.750424 -2.84146,1.263952 -5.7396,2.494198 -8.63952,3.650231 0.19687,0.474511 1.54273,3.71132 1.54273,3.71132 v 34.355673 l -2.78061,1.111648 -0.13483,-0.186726 -2.73348,-5.516897 c 0,0 0,10.049634 0,10.782818"
               id="path74"
               fill="#ffffff" />
            <path
               d="m 116.33587,68.491572 c -0.28516,-0.259508 -0.42894,-0.624012 -0.42775,-1.083967 V 45.296882 c 6e-4,-0.744997 0.39195,-1.670873 2.24967,-1.852886 0.87934,-0.08525 1.495,0.04242 1.87919,0.39129 0.28159,0.255391 0.42417,0.617569 0.42417,1.074541 v 22.113587 c -0.002,0.751081 -0.39314,1.685906 -2.2443,1.869649 -0.87576,0.08471 -1.49083,-0.04653 -1.88098,-0.401491 z m 3.8598,-28.867472 c -5.9e-4,0 -4.05429,0.396182 -4.05429,0.396182 -4.05667,0.347204 -6.02774,2.309859 -6.02774,5.998568 v 21.657211 c 0,1.777181 0.46652,3.105742 1.38643,3.950485 1.00403,0.9217 2.57897,1.298135 4.68069,1.117971 l 4.04235,-0.394332 c 3.99762,-0.443252 6.02476,-2.608203 6.02357,-6.435794 V 44.38246 c 0,-1.761074 -0.43013,-3.001939 -1.31484,-3.795436 -0.97718,-0.876481 -2.57062,-1.200358 -4.73617,-0.962924 z"
               id="path76"
               fill="#ffffff" />
          </g>
        </g>
      </g>
    </g>
  </g>
</svg>
