<svg xmlns="http://www.w3.org/2000/svg" height="68.999" viewBox="0 0 240.10556 68.99913" width="240.11"><g transform="matrix(1.25 0 0 -1.25 -323.95 543.43)"><g transform="matrix(2.5312 0 0 2.5312 -541.78 -621.54)"><path d="m28.908-0.10156c-2.6279 0-4.6115 0.63628-5.8984 1.8887-1.0883 1.0645-1.9305 2.8741-2.5762 5.543l-2.785 11.584c-0.25264 1.0905-0.375 2.0062-0.375 2.8008 0 0.70178 0.0938 1.2931 0.29687 1.8027 1.0408 2.738 4.9554 2.7422 6.2402 2.7422h2.6191c2.8762 0 5.0052-0.72237 6.3418-2.1367l0.0078-0.0059c0.99328-1.0753 1.8279-3.0219 2.5664-5.9629l2.3457-9.7852c0.41242-1.6713 0.61719-2.9879 0.61719-4.0352 0-0.67801-0.08662-1.2396-0.26367-1.7168l-0.01172-0.03125c-1.0753-2.6883-4.9147-2.6875-6.1758-2.6875h-2.9492zm36.836 0c-2.6322 0-4.6115 0.63606-5.8984 1.8906-1.0861 1.0645-1.9305 2.8741-2.5762 5.543l-2.787 11.58c-0.2548 1.0904-0.375 2.0083-0.375 2.8008 0 0.70178 0.09789 1.2951 0.30078 1.8047 1.0343 2.738 4.9533 2.7422 6.2402 2.7422h2.6172c2.8719 0 5.0093-0.72022 6.3438-2.1367l0.0039-0.0078c0.99328-1.0753 1.832-3.02 2.5684-5.9609l2.3398-9.7852c0.41675-1.6691 0.61914-2.9877 0.61914-4.0371 0-0.67587-0.08253-1.2374-0.26172-1.7168l-0.0098-0.027344c-1.0775-2.6883-4.9089-2.6895-6.1699-2.6895h-2.9551zm-60.156 0.001951c-0.61972 0-1.1542 0.42079-1.2988 1.0254l-4.2266 17.506c-0.28719 1.1876-0.43555 2.2347-0.43555 3.1113 0 0.75791 0.10932 1.425 0.31445 1.9648 0.6845 1.8268 2.498 2.752 5.3828 2.752h8.6836c0.62404 0 1.1641-0.43035 1.3066-1.0371l1.1367-4.9277 0.03516-0.30273c0-0.30446-0.10142-0.59236-0.28711-0.83203-0.2548-0.31959-0.64226-0.50586-1.0547-0.50586h-5.7734c0.6624-2.754 4.1284-17.1 4.1284-17.1l0.03516-0.31445c0-0.30015-0.09717-0.5906-0.28711-0.82813-0.25264-0.32606-0.64247-0.51172-1.0527-0.51172h-6.6074zm35.992 0c-0.61972 0-1.1557 0.42255-1.3047 1.0293l-5.6621 23.676-0.03516 0.3125c0 0.29799 0.09737 0.59473 0.28516 0.83008 0.2548 0.32391 0.6401 0.51172 1.0547 0.51172h8.5469c3.1353 0 5.2937-0.60278 6.6152-1.8379l0.0332-0.03125c1.0235-1.03 1.8808-3.0047 2.6992-6.2285 0.25048-1.0149 0.37695-1.8554 0.37695-2.5723 0-0.58949-0.08933-1.1181-0.25781-1.5586l-0.01172-0.02734c-0.16842-0.39082-0.40472-0.74878-0.70703-1.0684 0.62189-0.39948 1.1358-0.89663 1.5547-1.4883 0.67369-0.91986 1.2192-2.3033 1.6641-4.2402v0.015625c0.26991-1.1163 0.40234-2.0545 0.40234-2.875 0-0.68235-0.09309-1.2597-0.2832-1.7715-0.28936-0.77086-0.97797-1.7846-2.5996-2.2813-0.83996-0.2656-2.1075-0.39453-3.8867-0.39453h-8.4844zm41.947 0.099609c-4.2575 0-6.9915 2.0641-7.8965 5.9629l-0.94726 3.9297c-0.19597 0.76944-0.30078 1.4859-0.30078 2.1328 0 0.66 0.10695 1.2705 0.31445 1.8105 0.38 1.0125 1.3425 2.2916 3.8125 2.6641 0.36 0.05125 0.92312 0.09406 1.7344 0.13281 0.36125 0.01375 0.77828 0.02961 1.2383 0.03711-0.23 0.9425-0.33586 1.3804-0.50586 2.0879h-7.041c-0.62375 0-1.168 0.42305-1.3105 1.0293l-1.1855 4.9277-0.03516 0.31055c0 0.2975 0.10156 0.59328 0.28906 0.83203 0.25625 0.32125 0.64875 0.50977 1.0625 0.50977h8.9824c2.3125 0 4.1464-0.52656 5.4414-1.5703 1.28-1.0212 2.1898-2.6375 2.791-4.9375l0.0078-0.02148 0.9082-3.7812c0.1975-0.79875 0.30078-1.5426 0.30078-2.2051 0-0.68375-0.11047-1.3006-0.32422-1.8281-0.37375-0.98875-1.3368-2.2344-3.748-2.6094l-0.01953-0.00195c-0.37375-0.0525-0.94258-0.089531-1.7363-0.11328-0.36-0.01125-0.78453-0.020391-1.2695-0.025391 0.18875-0.7825 0.25414-1.0616 0.40039-1.6641h6.6738c0.6225 0 1.1707-0.42625 1.3145-1.0312l1.1797-4.9258 0.03516-0.3125c0-0.29875-0.09906-0.59578-0.28906-0.83203-0.256-0.32176-0.649-0.50707-1.06-0.50707h-8.8164z" transform="matrix(.8 0 0 -.8 317.07 416.85)" fill="#fff"/><path d="m28.91 1.2383c-2.2802 0-3.9351 0.50548-4.9629 1.5117-0.8918 0.87236-1.6297 2.502-2.2148 4.8945l-2.779 11.57c-0.40596 1.7469-0.44591 3.0166-0.13281 3.8242 0.47074 1.2524 2.1376 1.8789 4.9922 1.8789h2.6191c2.5026 0 4.2901-0.57278 5.3633-1.7129 0.82486-0.89396 1.5767-2.6836 2.2461-5.3633l2.3477-9.7969c0.60029-2.4098 0.7286-4.067 0.40039-4.9609-0.49447-1.2308-2.1377-1.8457-4.9297-1.8457h-2.9492zm12.672 0-5.6641 23.68h8.5469c2.751 0 4.6457-0.48996 5.6973-1.4746 0.82485-0.82701 1.6135-2.6951 2.3477-5.6016 0.38004-1.5223 0.43767-2.6315 0.16992-3.3203-0.33469-0.80759-1.1938-1.4242-2.5801-1.8496 1.6281-0.26775 2.8239-0.93423 3.584-2.0117 0.555-0.7578 1.044-2.0112 1.439-3.7538 0.432-1.7447 0.485-3.0284 0.174-3.8554-0.272-0.7169-0.854-1.2047-1.746-1.4746-0.693-0.2246-1.858-0.3379-3.487-0.3379h-8.4824zm24.162 0c-2.2759 0-3.931 0.50548-4.9609 1.5117-0.88964 0.87236-1.6322 2.502-2.2109 4.8945l-2.7812 11.57c-0.40379 1.7469-0.45435 3.0166-0.13477 3.8242 0.46858 1.2502 2.1333 1.8789 4.9922 1.8789h2.6172c2.5005 0 4.2901-0.57278 5.3633-1.7129 0.82701-0.89396 1.5748-2.6836 2.2441-5.3633l2.351-9.7961c0.604-2.4098 0.737-4.067 0.402-4.9609-0.492-1.2308-2.138-1.8457-4.926-1.8457h-2.9551zm-60.156 0.0019-4.2227 17.506c-0.46643 1.9239-0.52445 3.3537-0.16602 4.293 0.4729 1.2524 1.8426 1.8789 4.125 1.8789h8.6816l1.1406-4.9258h-7.4785l4.5273-18.752h-6.6074zm77.939 0.099609c-3.6188 0-5.8197 1.6455-6.5859 4.9355l-0.941 3.9277c-0.33625 1.2988-0.35406 2.352-0.03906 3.1582 0.36 0.98375 1.2745 1.588 2.7383 1.8105 0.3125 0.045 0.84976 0.08539 1.6035 0.11914 0.755 0.0325 1.7187 0.04883 2.8887 0.04883l-1.1465 4.7598h-8.1094l-1.1777 4.9277h8.9805c2.005 0 3.5343-0.42609 4.5918-1.2773 1.0388-0.825 1.8147-2.2359 2.3359-4.2246l0.90625-3.791c0.34125-1.3612 0.35156-2.437 0.03906-3.2207-0.36125-0.96-1.2638-1.5516-2.7051-1.7754-0.315-0.04375-0.84344-0.07766-1.5859-0.09766-0.745-0.025-1.7239-0.03516-2.9414-0.03516l1.0488-4.3379h7.7363l1.1797-4.9277h-8.8164z" transform="matrix(.8 0 0 -.8 317.07 416.85)" fill="#ba0c2f"/><path d="m28.574 6.1641-3.3496 13.828h1.8398l3.3555-13.828h-1.8457zm36.834 0-3.3496 13.828h1.8438l3.3535-13.828h-1.8477zm-18.596 0.00195-1.1094 4.4629h2.0801l1.1094-4.4629h-2.0801zm-2.1484 8.8203-1.2012 5.0059h2.0762l1.209-5.0059h-2.084z" transform="matrix(.8 0 0 -.8 317.07 416.85)" fill="#fff"/></g></g></svg>
