<svg xmlns="http://www.w3.org/2000/svg" width="248" height="118.24" viewBox="0 0 248 118.24">
 <g transform="matrix(1.3333 0 0 -1.3333 -101.56 430.58)">
  <g>
   <path d="m82.143 322.18-5.2148-22.966 6.2695 0.19629 0.08643-29.191-6.0601-2.0522 6.1641-21.971s7.4727 4.227 11.565 5.9766c2.0273 0.8676 4.4448 1.8169 7.1396 2.7173 0.12646-0.23931 0.25452-0.49014 0.38818-0.75586 2.1618-4.3132 2.2337-8.957 2.02-12.803l-0.14355-2.5752 2.4902-0.66797c1.0925-0.29373 1.9605-0.53661 2.748-0.7207 0.93403-0.2177 1.773-0.36011 2.6894-0.42334 1.8937-0.12806 3.9543 0.10563 7.0869 0.63867 2.301 0.39218 4.7682 1.4498 6.5786 2.3086 0.91882 0.4346 1.7431 0.85584 2.3994 1.188l0.80274 0.41309c7.8804 2.3499 11.885 1.352 14.55 0.46435l5.0347-1.7783-2.2661 7.355c3.7521-0.18808 7.2793-0.56194 11.846-1.2847 10.75-1.7016 22.427-6.3823 26.862-7.5732 9.193-2.4675 16.5-3.3184 23.758-3.6314 17.758-0.76593 31.003 8.2222 31.167 8.3335l2.9443 1.998-4.8472 5.6396-0.91992 1.1265c0.97746 0.65506 1.6216 1.7696 1.6216 3.0352 0 0.5026-0.10205 0.98225-0.28564 1.418 0.26921 0.0283 0.49947 0.0429 0.79687 0.082 2.658 0.35056 4.8765 1.2539 4.8765 1.2539 3.6296 1.6399 6.4923 4.3075 8.3716 8.1973 1.5895 3.2919 2.1174 6.84 2.3335 9.895 0.20089 2.8517 0.15234 5.9647 0.15234 9.167v14.027l6.2783-0.3501-5.521 23.3-79.963 6e-3s-6.2179-12.109-9.0864-17.355l-8.3525 17.357z" fill="#B0B3B2"/>
   <path d="m84.508 319.22-3.8423-16.917 5.4858 0.15527 0.007325-33.85c0-0.29774 0.024518-0.35654 0.011718-0.41016-0.0088-0.0104-0.19823-0.19222-1.2539-0.55078l-4.0825-1.3813 4.3857-15.631s4.3457 2.4555 8.5708 4.2627c2.6996 1.1541 6.0643 2.4493 9.854 3.5962 0.57307-0.85079 1.0972-1.7824 1.6743-2.9341 2.5508-5.0879 2.5734-10.434 2.3525-14.402 4.2107-1.1309 4.9474-1.4998 11.169-0.44092 3.6801 0.62588 8.519 3.5562 9.4058 3.8203 8.3766 2.4979 11.61 2.057 15.872 0.14649l-2.2031 6.1728c5.9003-0.0976 10.365-0.43517 16.9-1.4692 10.879-1.7216 22.699-6.4368 27.189-7.6421 8.9265-2.3955 16.025-3.224 23.074-3.5273 16.712-0.72033 29.246 7.7886 29.246 7.7886l-7.2026 8.3774 0.86866 4.4517c8.9929-0.28653 15.039 2.4356 18.009 8.584 1.3494 2.7949 1.8407 5.9061 2.0464 8.8154 0.19689 2.7869 0.14502 5.8289 0.14502 8.9575v16.582l-0.01025 0.57861 5.4536-0.30469-4.0664 17.162-75.848 0.0044s-7.1853-13.862-10.97-20.758l-10.066 20.76-72.174 0.0044zm150.75-61.392c-1.5079 0-2.7114-1.1725-2.7114-2.6323 0-1.4927 1.2036-2.6646 2.7114-2.6646 1.5255 0 2.6968 1.1719 2.6968 2.6646 0 1.4599-1.1713 2.6323-2.6968 2.6323zm0-0.5288c1.1725 0 2.023-0.94789 2.023-2.1196 0-1.1557-0.85031-2.0859-2.0068-2.0859-1.1869 0-2.0552 0.93032-2.0552 2.102 0 1.1557 0.86814 2.1035 2.0391 2.1035zm-0.01465-0.77198c-0.4338 0-0.77211-0.0311-1.0122-0.0791v-2.6323h0.60938v1.0591h0.29004c0.33776 0 0.49772-0.12855 0.54492-0.41748 0.08084-0.30414 0.12881-0.5456 0.20801-0.6416h0.65918c-0.06483 0.09604-0.11256 0.25593-0.19336 0.65771-0.08004 0.35216-0.22515 0.5456-0.48047 0.6416v0.03223c0.32015 0.09684 0.54492 0.32191 0.54492 0.61084 0 0.25612-0.11308 0.4643-0.25635 0.57715-0.19369 0.11209-0.41784 0.19189-0.91406 0.19189zm-0.04981-0.43213c0.38578 0 0.5625-0.16126 0.5625-0.40136 0-0.27293-0.27242-0.38526-0.60937-0.38526h-0.29004v0.75293c0.06403 0.0168 0.17684 0.03369 0.33691 0.03369z" fill="#011e41"/>
   <path d="m229.26 261.49-0.99805-0.38978c-4.4812-1.7472-9.5572-3.139-11.744-3.3415-9.2402-0.85639-18.344 0.8844-26.522 3.1854-8.2165 2.3122-15.455 5.1712-20.901 6.4998-7.8388 1.9113-14.784 2.9421-20.886 3.3751-12.738 0.90521-21.796-0.79156-27.625-2.5011l-0.10165-0.0296c-6.9127-2.0313-10.622-3.6961-14.082-6.7047l-0.445-0.38737 0.38417-0.44581c0.4298-0.49942 0.75875-0.85639 1.0381-1.1741 0.25931-0.29534 0.47301-0.55385 0.68591-0.8716 0.41939-0.62828 0.85399-1.5143 1.7064-3.5304 1.5783-3.7289 1.6295-4.9631 1.5703-8.283l-0.0192-1.0653 0.91482 0.54665c4.4636 2.6676 6.8407 3.893 12.071 5.5281 9.2794 2.8989 22.103 2.4739 33.86 1.2982 3.965-0.39619 7.8332-1.2614 11.737-2.3427 3.9322-1.0893 7.9004-2.3971 12.039-3.6737 8.3022-2.5604 17.336-5.0095 28.146-5.3024 6.9752-0.18968 12.104 0.87 15.655 2.0705 1.7784 0.60028 3.1558 1.2342 4.1659 1.76 0.99325 0.51623 1.6247 0.92522 1.9313 1.0885l0.6611 0.35376-4.9262 5.5633z" fill="#aa182c"/>
   <path d="m88.136 314.67-1.7402-7.6626 0.65332 0.01758c2.9742 0 3.646-1.3483 3.646-4.1191l0.007324-34.301c0-3.0766-1.6082-4.3441-4.3286-5.2661l1.7593-6.2666c4.6925 2.0401 8.6358 3.5525 12.555 4.8779l-0.07177 0.07178c1.9977 1.9969 4.7164 3.9587 7.9482 5.6763l0.72656 3.0644c-0.67551-0.16646-1.3732-0.31054-2.0728-0.31054-2.0081 0-2.1929 1.5568-2.1929 3.1919l-0.01026 9.9214c1.9457 0.34736 4.068 0.89795 6.0425 0.89795 3.9146 0 5.0187-2.8264 5.811-6.123 0.24731-1.0309 0.92478-4.0241 1.9028-6.6445l0.65625 0.17139c10.406 2.6564 22.381 3.2519 34.991 1.8208l1.0166 3.2461-0.61376-0.01025c-2.4651 0-3.5742 0.52044-3.5742 3.1728 0 4.6013-0.16143 9.213-0.08936 13.813l10.462-19.531 10.216-0.14941s6.514 11.993 9.6475 18.508c-0.04-2.5067 0.27119-14.418-1.103-15.514-0.88441-0.70592-2.3983-0.6417-3.4731-0.58887l1.4429-5.3657c7.4034-0.29613 12.79-0.90138 18.952-1.6289l1.6069 5.2617c-2.7925 0.30253-4.2012 0.8743-4.2012 3.9053 0 8.7928 0.17467 17.661 0.43799 26.451 0.028 0.94763 0.10668 2.0208 0.88623 2.6763 0.61787 0.52103 1.4984 0.67004 2.3452 0.70606 2.1826-0.15207 3.2153-0.82621 3.2153-3.5522 0-7.1272-0.29297-14.254-0.29297-21.382 0-12.609 13.69-18.694 25.103-20.008 4.1619 1.3654 7.0693 2.7319 7.0693 2.7319l-0.59912-3.0747c15.597-0.19689 14.77 10.198 14.77 21.832v16.584c0 1.1037-0.14924 3.5115 0.68554 4.3535 0.8716 0.8804 2.3274 0.86171 3.4775 0.79688l-1.834 7.7388h-18.283l-1.8457-6.7983c3.2079-0.10564 4.2422-0.92036 4.2422-4.1938 0-8.1997-0.1404-16.448-0.3501-24.645-0.0504-1.9809-0.53839-4.0917-2.1943-5.3555-1.1469-0.87399-3.2133-0.91846-4.626-0.91846-11.099 1.7112-10.512 10.957-10.512 10.957l0.21387 20.855s0.32396 2.6356 0.57128 2.8726c0.82277 0.78436 2.4043 0.75645 3.4512 0.72364l-1.5146 6.5024-21.272 0.00293-15.831 0.00146c-5.0823-9.4859-10.262-18.918-15.451-28.346l-14.273 28.348-15.832 0.00146-1.7871-5.9531c2.7324 0.0552 4.2436-0.25204 4.2436-3.3398 0-8.6968 0.23741-17.442 0.0293-26.136-0.0232-0.97084-0.1278-1.9994-0.85694-2.7173-0.43619-0.43059-1.0921-0.69298-1.7812-0.86426-6.8423 0.12486-1.5285 11.872-12.832 13.513 5.2528 2.3467 9.7998 6.2229 9.7998 12.432 0 10.659-11.491 13.066-20.53 13.066l-24.615 0.00146zm16.859-8.4228s4.6055-0.03662 6.728-0.03662c3.5536-0.14807 7.5322-1.0678 7.5322-5.8228 0-7.6995-8.7335-7.7824-14.246-8.502l-0.01465 14.361zm37.554-39.215v-0.23438c0.35056-0.10805 0.41748-0.19574 0.41748-0.51269v-7.3301c0-0.31774-0.06689-0.39555-0.41748-0.45557v-0.23291l8.2808-0.58008c0.31774-0.0232 0.40162-0.09416 0.48486-0.45117l0.23437-0.01611v2.9209l-0.23437 0.01611c-0.0832-0.34415-0.16712-0.42151-0.48486-0.3999l-5.3921 0.37793v5.978c0 0.31695 0.08299 0.39487 0.43359 0.4541v0.23291l-3.3223 0.23291zm-7.8999-0.57422c-0.35335 0.01006-0.7251-0.01139-1.1133-0.06592-3.1062-0.4362-5.1592-2.7288-5.1592-5.25s2.0866-4.2481 5.1592-3.8159c3.0726 0.4314 5.1592 2.7442 5.1592 5.2661 0 2.206-1.5724 3.7953-4.0459 3.8657zm23.606-0.81299c-2.474-0.02596-4.0459-1.5865-4.0459-3.7925 0-2.5219 2.0866-4.8732 5.1592-5.3599 3.0726-0.48662 5.1592 1.2032 5.1592 3.7251 0 2.5212-2.0538 4.8509-5.1592 5.3423-0.38828 0.06153-0.75985 0.08867-1.1133 0.08496zm-24.152-1.2568c1.2576-0.0413 2.0376-0.88511 2.0376-2.1709 0-1.4695-1.0021-2.6296-2.5884-2.852-1.6199-0.2281-2.6221 0.63336-2.6221 2.1196 0 1.4863 1.0364 2.6487 2.606 2.8696 0.19829 0.02792 0.38724 0.0396 0.56689 0.03369zm-8.978-0.06738c-0.15047-0.23531-0.26702-0.35813-0.41748-0.41015-0.45061-0.15527-1.7199 0.15892-3.8745-0.58301-3.4063-1.1725-5.4258-3.8393-5.4258-6.394 0-2.5884 1.9865-3.8576 5.6426-2.5986 2.5716 0.88601 3.7743 2.2856 4.0576 2.3833 0.0664 0.0224 0.1666-0.00968 0.31787-0.10693l0.2168 0.17432-1.6699 2.146-0.19922-0.18603c0.0336-0.0888 0.0498-0.16568 0.0498-0.23291 0-0.14966-0.08475-0.24543-0.26807-0.4087-0.93561-0.83957-1.6351-1.1821-2.5371-1.4927-1.9041-0.6555-3.0234-0.13738-3.0234 1.248 0 1.4198 1.2373 2.779 3.1069 3.4233 1.3862 0.47702 2.6719 0.38614 2.6719-0.08204 0-0.0496-0.01767-0.10602-0.05127-0.16845l0.21679-0.00879 1.3872 3.2842-0.20068 0.01318zm42.828-0.48779v-0.23291c0.35055-0.17048 0.41601-0.27046 0.41601-0.5874v-7.3316c0-0.31774-0.06543-0.38339-0.41601-0.37939v-0.23438l2.9546-0.73681v0.23437c-0.35135 0.17048-0.41748 0.27047-0.41748 0.5874v5.0083l4.3916-5.9033c0.15047-0.20409 0.26806-0.34897 0.26806-0.46583 0-0.11685-0.10027-0.19188-0.33398-0.20068v-0.23437l3.1714-0.79102v0.23438c-0.35056 0.17048-0.4336 0.27405-0.4336 0.59179v7.3301c0 0.31774 0.083 0.38047 0.4336 0.37647v0.23291l-3.0044 0.75v-0.23291c0.35056-0.17128 0.43359-0.27553 0.43359-0.59327v-4.2246l-3.6914 4.96c-0.14967 0.20489-0.2666 0.33512-0.2666 0.45117 0 0.11685 0.10094 0.19255 0.33545 0.20215v0.23291l-3.8408 0.95654zm-9.1465-0.26807c0.17853 0.00246 0.36631-0.01136 0.5625-0.04248 1.5863-0.25131 2.6045-1.447 2.6045-2.9165s-1.0006-2.3299-2.5869-2.0786c-1.6199 0.25612-2.6221 1.4171-2.6221 2.9033 0 1.3005 0.79231 2.1171 2.042 2.1343zm23.306-3.4805v-0.23437c0.35055-0.18328 0.41601-0.28658 0.41601-0.60352v-7.3315c0-0.31615-0.06543-0.38009-0.41601-0.36328v-0.23438l3.3223-0.95214v0.23437c-0.35056 0.18408-0.43506 0.29097-0.43506 0.60791v7.3301c0 0.31775 0.08446 0.37715 0.43506 0.36035v0.23438l-3.3223 0.95214zm9.5332-2.6426v-0.23438c0.18328-0.0624 0.25049-0.14551 0.25049-0.32959 0-0.0664-0.05161-0.23796-0.15088-0.48047l-2.3042-5.7363c-0.18408-0.47222-0.30094-0.87668-0.78516-1.0063v-0.23291l2.9898-0.74707v0.23437c-0.23451 0.12486-0.35156 0.27157-0.35156 0.48926 0 0.0832 0.01698 0.16255 0.06738 0.2666l0.3501 0.86426 4.0752-1.0166 0.3501-1.0386c0.0664-0.19929 0.10107-0.32545 0.10107-0.40869 0-0.15047-0.10097-0.226-0.31787-0.22119v-0.23438l3.2066-0.7998v0.23437c-0.30093 0.19209-0.35102 0.35409-0.43506 0.5918l-2.7891 7.7256c-0.10004 0.29213-0.14941 0.50475-0.14941 0.55517 0 0.18329 0.06718 0.23389 0.25049 0.20508v0.23291l-4.3579 1.0869zm2.02-2.0903 1.519-4.2363-2.9385 0.73388 1.4194 3.5024zm8.8623-0.3706v-0.23291c0.35056-0.11445 0.41748-0.20375 0.41748-0.52149v-7.3301c0-0.31695-0.06689-0.39542-0.41748-0.44825v-0.23291l8.2822-0.72509c0.31774-0.0272 0.40016-0.10221 0.4834-0.45997l0.23437-0.0205v2.9224l-0.23437 0.02051c-0.0832-0.34336-0.16566-0.42059-0.4834-0.39258l-5.3936 0.47314v5.9766c0 0.31774 0.08366 0.39395 0.43506 0.44677v0.23291l-3.3237 0.29151zm17.769-0.12158c-0.42207 0.02292-0.88804 0.01953-1.3931-0.0337-2.6716-0.28093-4.292-1.6209-4.292-3.1904 0-1.5863 1.3532-2.2451 4.0576-2.061 1.6368 0.10565 2.7056 0.23455 2.7056-0.73389 0-0.61789-0.76866-1.133-2.1709-1.2803-2.0873-0.2193-3.7075 0.34442-3.7075 0.94629 0 0.0496 0.01766 0.10164 0.05126 0.15527l-0.21826 0.07764-1.2188-2.7993 0.2168-0.0791c0.13367 0.18168 0.21779 0.29041 0.33545 0.30322 0.18328 0.0192 1.6029-0.61575 4.541-0.30761 2.8221 0.29693 4.5249 1.7957 4.5249 3.498 0 1.7704-1.3026 2.3514-4.0078 2.2178-1.8704-0.096-2.8389-0.23169-2.8389 0.45263 0 0.51703 0.78546 1.0335 2.1709 1.1792 1.6367 0.17208 3.1567-0.18591 3.1567-0.65332 0-0.0496-0.0338-0.11954-0.0498-0.22119l0.2168-0.07764 1.0679 2.4507-0.2168 0.07617c-0.11686-0.2121-0.21661-0.2386-0.3999-0.25781-0.38897-0.0414-1.265 0.26961-2.5312 0.33838z" fill="#fff"/>
  </g>
 </g>
</svg>