<?xml version="1.0" encoding="UTF-8" standalone="no"?>
<svg xmlns:rdf="http://www.w3.org/1999/02/22-rdf-syntax-ns#" xmlns="http://www.w3.org/2000/svg" xml:space="preserve" height="73.543" viewBox="0 0 125.08047 73.542976" width="125.08" version="1.1" xmlns:cc="http://creativecommons.org/ns#" xmlns:dc="http://purl.org/dc/elements/1.1/"><g transform="matrix(1.25 0 0 -1.25 -105.47 472.83)"><g transform="translate(.47325 .35494)"><path d="m91.36 377.47-4.9125-6.2422c13.558-4.158 29.952-6.5922 47.612-6.5922 17.658 0 34.051 2.4326 47.608 6.5906l-4.9109 6.2422c-10.259-5.874-25.58-9.6047-42.697-9.6047-17.121 0-32.442 3.7312-42.7 9.6062zm42.7-45.202c-17.661 0-34.054-2.4348-47.612-6.5938l4.9125-6.2391c10.258 5.873 25.579 9.6047 42.7 9.6047 17.117 0 32.438-3.7291 42.697-9.6031l4.9109 6.2406c-13.557 4.157-29.95 6.5906-47.608 6.5906z" fill="#066"/><path d="m84.377 366.17c-0.001-11.732-0.001-23.463 0-35.195 6.354 1.319 12.748 2.2401 19.173 2.9031 0.003 9.705 0.008 19.406 0.0109 29.103-2.263 0.285-4.5211 0.59987-6.7781 0.94687 0-8.766-0.0027-16.697-0.0047-25.469 0-0.235-1.2731-0.54193-2.8391-0.71093-1.565-0.169-2.8359-0.123-2.8359 0.125 0.002 9.281 0.0016 17.722 0.0016 27-2.248 0.399-4.4901 0.83287-6.7281 1.2969zm99.262 0c-2.156-0.447-4.3178-0.86569-6.4828-1.2547 0-9.261-0.00044-17.687 0.002-26.953-0.002-0.226-0.98163-0.28825-2.1906-0.15625-1.208 0.132-2.1938 0.40519-2.1938 0.61719-0.0008 8.866-0.0008 16.889-0.003 25.745-2.156-0.345-4.3194-0.66257-6.4844-0.95157 0.002-8.355 0.008-15.878 0.008-24.241 0-0.204-0.98256-0.28969-2.2016-0.20469-1.217 0.086-2.2078 0.306-2.2078 0.5-0.00096 8.083-0.004 15.323-0.006 23.4-2.185-0.251-4.3719-0.46993-6.5609-0.66093-0.00096-9.12-0.002-18.242-0.003-27.366 9.509-0.637 18.962-1.7303 28.325-3.6703v35.195zm-75.483-3.7219c-0.004-9.377-0.008-18.759-0.0109-28.145 2.267 0.191 4.5374 0.35182 6.8094 0.48282 0.004 4.256 0.003 8.5081 0.006 12.764 1.473-3.443 2.9551-6.8033 4.6391-10.67 1.118-2.037 3.1953-1.7309 3.1953-1.7359 1.544 0.053 3.0915 0.0939 4.6375 0.12187 0.002 8.635 0.003 17.267 0.006 25.903-2.279 0.06-4.5558 0.15412-6.8328 0.27812-0.00096-3.488-0.00013-6.9754-0.003-10.459-1.88 3.519-3.7589 7.1144-5.6359 10.834-2.271 0.176-4.5419 0.38757-6.8109 0.62657zm42.9-0.77344c-6.458-0.45-12.933-0.64582-19.403-0.58282-0.002-8.589-0.003-17.181-0.003-25.772 6.476 0.044 12.956-0.0899 19.417-0.42187-0.00096 3.135-0.00056 7.1072-0.002 10.242h-6.8297v-4.9328c0-0.2-1.2869-0.33081-2.8719-0.30781s-2.8754 0.19194-2.8734 0.38594c-0.002 6.072-0.002 9.777-0.002 15.85 0 0.194 1.2859 0.36924 2.8719 0.40624 1.587 0.037 2.8703-0.0801 2.8703-0.27812 0.003-1.885 0.003-3.3319 0.003-4.9969l0.36407 0.0109c6.776 0.201 6.4608 4.1996 6.4578 4.2406v6.1562z" fill="#036"/></g></g></svg>
