<svg xmlns="http://www.w3.org/2000/svg" width="81.84349" height="57.47308" viewBox="0 0 81.84349 57.47308">
  <g id="Layer_2" data-name="Layer 2">
    <g id="Layer_1-2" data-name="Layer 1">
      <g>
        <path d="M7.815,53.94031a3.69243,3.69243,0,0,1-.748,2.541,2.84082,2.84082,0,0,1-2.263.731H0v-1.949c.417-.226.469-.383.469-1.271v-1.218a.56714.56714,0,0,0-.103-.296s-.175-.227-.366-.227v-2.105c.331-.105.452-.662.469-1.08v-.331c0-.922-.052-1.079-.469-1.305v-1.932H4.613a2.91744,2.91744,0,0,1,2.211.574,2.87882,2.87882,0,0,1,.835,2.298c0,1.462-.401,2.176-1.48,2.628l-.313.122.313.087c1.166.331,1.636,1.097,1.636,2.733m-4.491-3.777h.453c.696,0,1.01-.383,1.01-1.201,0-.801-.314-1.184-1.01-1.184H3.324Zm1.515,3.394c0-.922-.349-1.375-1.062-1.375H3.324v2.802h.453c.748,0,1.062-.417,1.062-1.427" style="fill: #c10230"/>
        <path d="M16.1524,55.27991v1.933h-3.655v-1.933a.88989.88989,0,0,0,.349-.713c0-.052-.018-.105-.018-.174l-.052-.261h-1.689a2.19037,2.19037,0,0,0-.034.261.69807.69807,0,0,0-.018.174.73561.73561,0,0,0,.401.713v1.933H8.2504v-1.95a1.54826,1.54826,0,0,0,.436-1.061v-.07a2.76643,2.76643,0,0,1-.436,0v-2.054a.85968.85968,0,0,0,.853-.679s.018-.157.905-5.9h4.177l1.41,8.337c.157.923.279,1.253.557,1.444m-3.62-3.202-.557-3.69h-.035l-.626,3.69Z" style="fill: #c10230"/>
        <path d="M23.63771,53.71408c0,2.558-1.149,3.759-3.62,3.759a5.18163,5.18163,0,0,1-3.534-1.183v-3.185h2.767v.209a9.26166,9.26166,0,0,0,.017,1.079.79629.79629,0,0,0,.732.713c.436,0,.731-.435.731-1.113a1.797,1.797,0,0,0-.244-.923c-.209-.296-.33-.348-1.322-.662a4.97874,4.97874,0,0,1-2.089-1.009,3.4934,3.4934,0,0,1-.749-2.541,3.51483,3.51483,0,0,1,.836-2.733,3.92341,3.92341,0,0,1,2.68-.835,5.42769,5.42769,0,0,1,3.481,1.2v2.803h-2.645a5.97061,5.97061,0,0,0-.052-.923.74073.74073,0,0,0-.697-.73c-.435,0-.714.365-.714.974,0,.679.297.922,1.15,1.218l.87.296c1.863.644,2.402,1.462,2.402,3.586" style="fill: #c10230"/>
        <path d="M32.0442,55.28036v1.932h-3.759v-1.932a.87453.87453,0,0,0,.331-.713.62652.62652,0,0,0-.018-.174l-.731-2.055-.731,1.01v.731c0,.731.052.975.4,1.201v1.932h-3.638v-1.932c.348-.226.401-.505.401-1.201v-5.431c0-.765-.07-.992-.401-1.201v-1.949h3.638v1.949c-.33.227-.4.488-.4,1.201v1.706c1.428-2.141,1.428-2.175,1.428-2.175.243-.366,0-.749-.14-.749v-1.932h3.185v1.949a3.31259,3.31259,0,0,0-.905.853l-1.097,1.567,1.724,4.786a1.105,1.105,0,0,0,.713.627" style="fill: #c10230"/>
        <path d="M32.48,45.49838h7.206v3.76H37.057v-.14c0-.922-.278-1.287-.939-1.287h-.401v2.279h1.967v2.107H35.717v2.663h.244c.923,0,1.096-.366,1.096-1.393v-.418h2.629v4.143H32.48v-1.932c.348-.226.4-.505.4-1.375v-1.079a.77964.77964,0,0,0-.156-.505.54992.54992,0,0,0-.244-.122v-2.124a.4384.4384,0,0,0,.244-.156.83746.83746,0,0,0,.156-.557v-.887c0-.592-.087-.836-.4-1.045Z" style="fill: #c10230"/>
        <path d="M40.12131,45.49838h9.765v4.143h-2.628v-.418c0-.87-.122-1.392-.836-1.392v6.231c0,.766.087.992.401,1.201v1.949h-3.621v-1.949c.331-.227.383-.488.383-1.201v-6.231c-.661,0-.818.539-.818,1.392v.418h-2.646Z" style="fill: #c10230"/>
        <path d="M58.1371,53.94031a3.69237,3.69237,0,0,1-.749,2.541,2.84086,2.84086,0,0,1-2.263.731h-4.804v-1.949c.418-.226.47-.383.47-1.271v-1.218a.56394.56394,0,0,0-.104-.296s-.175-.227-.366-.227v-2.105c.331-.105.453-.662.47-1.08v-.331c0-.922-.052-1.079-.47-1.305v-1.932h4.613a2.9133,2.9133,0,0,1,2.21.574,2.87244,2.87244,0,0,1,.836,2.298c0,1.462-.401,2.176-1.479,2.628l-.314.122.314.087c1.166.331,1.636,1.097,1.636,2.733m-4.491-3.777h.452c.697,0,1.01-.383,1.01-1.201,0-.801-.313-1.184-1.01-1.184h-.452Zm1.514,3.394c0-.922-.348-1.375-1.062-1.375h-.452v2.802h.452c.749,0,1.062-.417,1.062-1.427" style="fill: #c10230"/>
        <path d="M66.47411,55.27991v1.933h-3.655v-1.933a.889.889,0,0,0,.348-.713c0-.052-.017-.105-.017-.174l-.052-.261h-1.689a2.12993,2.12993,0,0,0-.035.261.84494.84494,0,0,0,.383.887v1.933h-3.185v-1.95a1.54816,1.54816,0,0,0,.435-1.061v-.07a2.74944,2.74944,0,0,1-.435,0v-2.054a.86063.86063,0,0,0,.853-.679s.017-.157.905-5.9h4.178l1.409,8.337c.157.923.279,1.253.557,1.444m-3.62-3.202-.557-3.69h-.035l-.626,3.69Z" style="fill: #c10230"/>
        <path d="M71.48711,53.07h2.628v4.143h-7.206V55.28c.348-.225.401-.505.401-1.2V48.649c0-.766-.07-.992-.401-1.201V45.499h3.638v1.949c-.331.226-.401.487-.401,1.201v6.232h.244c.923,0,1.097-.366,1.097-1.393Z" style="fill: #c10230"/>
        <path d="M79.2155,53.07h2.628v4.143h-7.206V55.28c.348-.225.401-.505.401-1.2V48.649c0-.766-.07-.992-.401-1.201V45.499h3.638v1.949c-.331.226-.401.487-.401,1.201v6.232h.244c.923,0,1.097-.366,1.097-1.393Z" style="fill: #c10230"/>
        <path d="M42.10611,30.55826l-1.715-7.934-.62,3.112,1.485,6.234.196-.044a18.30219,18.30219,0,0,1,3.546-.27c.372,0,.757.007,1.144.022a26.87727,26.87727,0,0,1,5.272.791l.19.05.361-1.162a27.73019,27.73019,0,0,0-5.827-.883,24.089,24.089,0,0,0-4.032.084" style="fill: #231f20"/>
        <path d="M28.255,37.22958l-4.849-14.726c-.192-.603-.367-1.113-1.03-1.318a1.55307,1.55307,0,0,0-1.201.121l1.163-10.773c-.836.689-1.343,1.174-1.353,1.184l-.053.049-1.227,11.219.351-.215a2.84324,2.84324,0,0,1,1.234-.386,1.0117,1.0117,0,0,1,.315.045c.441.137.587.369.776.961l5.549,16.186.226-.364c2.131-3.427,4.796-5.358,9.199-6.668l.116-.035.224-1.048c-3.8.932-7.206,2.532-9.44,5.768" style="fill: #231f20"/>
        <path d="M35.79491,16.15347c.196-.823.337-1.13,0-1.765a1.00826,1.00826,0,0,0-.809-.569l1.169-10.17c-.747.235-1.214.399-1.224.402l-.119.042-1.191,10.295-.027.26.264-.04a.67323.67323,0,0,1,.583.343c.28.387.189.767.021,1.457l-1.482,6.097.573,2.598Z" style="fill: #231f20"/>
        <path d="M48.82991,12.54587a1.64268,1.64268,0,0,0-.087-1.476,1.14576,1.14576,0,0,0-.918-.472l1.055-9.228c-.716.07605-1.152.13105-1.164.132l-.158.022-1.025,9.744-.014.22h.225a.829.829,0,0,1,.694.33,1.9868,1.9868,0,0,1-.041,1.544l-1.55,5.833.561,2.594Z" style="fill: #231f20"/>
        <path d="M55.36531.0069c-3.307.039-6.372.375-6.372.375l-1.168,10.217a1.14677,1.14677,0,0,1,.918.471,1.65289,1.65289,0,0,1,.087,1.476l-2.423,9.244-1.618-7.487a3.66309,3.66309,0,0,1,.123-2.093,1.18233,1.18233,0,0,1,.656-.651L46.7003.5769c-.738.077-3.041.34205-5.502.845-2.659.545-4.925,1.198-4.925,1.198l-.119,1.03-1.168,10.169a1.00824,1.00824,0,0,1,.809.569c.337.636.196.944,0,1.766l-2.243,8.95-1.63-7.39a4.11272,4.11272,0,0,1,.098-2.153,2.08745,2.08745,0,0,1,.663-.853l1.18-11.44a43.75026,43.75026,0,0,0-6.707,3.017,32.896,32.896,0,0,0-4.719,3.325l-1.261,11.696a1.55639,1.55639,0,0,1,1.2-.121c.663.205.838.715,1.029,1.319l4.85,14.726c2.234-3.236,5.64-4.837,9.44-5.768.325-.08.65-.156.98-.226l1.716-8.611,1.715,7.933a24.09,24.09,0,0,1,4.032-.084,27.77445,27.77445,0,0,1,5.826.883c.443.122.681.206.681.206l5.833-18.639a3.47812,3.47812,0,0,1,.955-1.838,1.959,1.959,0,0,1,1.128-.29l1.103-10.619a62.81706,62.81706,0,0,0-6.299-.17" style="fill: #c10230"/>
      </g>
    </g>
  </g>
</svg>
