<svg xmlns="http://www.w3.org/2000/svg" height="103.03" viewBox="0 0 90.487503 103.03088" width="90.488"><g transform="matrix(1.25 0 0 -1.25 -554.69 801.05)"><path d="m1.123 1.0625v2.9863c5.6875 0.7225 6.1054 3.2564 7.6954 8.5042l16.561 55.824h5.853l13.215-43.066 13.635 43.066h5.77l14.97-49.309c4.433-14.296 6.357-14.024 10.789-15.019v-2.9865h-20.072v2.9863c3.596 0 7.275 1.5388 7.275 6.0622 0 1.719-0.5 3.438-1.002 5.067l-10.203 33.113-10.791-35.738c-0.335-1.357-0.92-2.9844-0.92-4.4319 0-3.4388 2.677-3.9823 5.27-4.0723v-2.9863h-26.262v2.9863c4.265 0.3613 5.855 2.4428 7.194 6.6952l0.668 1.809 1.671 5.519-9.115 29.676-9.701-32.48c-0.586-1.9-1.59-5.3387-1.59-7.2387 0-3.4375 2.425-3.7092 4.934-3.9805v-2.9863h-25.844zm22.852 75.286c-3.677 0-5.92 2.853-5.92 6.25 0 3.506 2.308 5.994 5.902 5.994 3.791 0 6.035-3.015 6.035-6.235 0-3.522-2.307-6.009-6.017-6.009zm34.097 0c-3.676 0-5.918 2.853-5.918 6.25 0 3.506 2.309 5.994 5.903 5.994 3.791 0 6.033-3.015 6.033-6.235 0-3.522-2.308-6.009-6.018-6.009zm-56.947 0.287v0.525c1.12 0.128 1.2019 0.575 1.5156 1.5l3.2656 9.834h1.1524l2.6035-7.586 2.6879 7.586h1.138l2.953-8.687c0.873-2.519 1.252-2.472 2.125-2.647v-0.525h-3.957v0.525c0.71 0 1.436 0.272 1.436 1.069 0 0.303-0.099 0.606-0.199 0.892l-2.01 5.836-2.129-6.297c-0.066-0.24-0.18-0.526-0.18-0.781 0-0.606 0.528-0.703 1.039-0.719v-0.525h-5.1773v0.525c0.8412 0.064 1.1542 0.432 1.4179 1.182l0.1309 0.318 0.3301 0.971-1.7969 5.228-1.9121-5.722c-0.115-0.335-0.3125-0.939-0.3125-1.274 0-0.605 0.4777-0.655 0.9727-0.703v-0.525h-5.0938zm29.457 0v0.527c1.186 0 1.6 0.349 1.6 1.465v7.684c0 1.115-0.414 1.466-1.6 1.466v0.528h5.92v-0.528c-1.188 0-1.617-0.351-1.617-1.466v-3.586h0.939c1.253 0 2.044 0.573 2.209 1.992h0.645v-4.623h-0.645c-0.362 1.34-0.956 1.881-2.357 1.881h-0.791v-3.395c0-1.069 0.098-1.324 1.318-1.324 1.88 0 3.562 1.245 4.551 2.711l0.56-0.209-0.939-3.123h-9.793zm10.502 0v0.527c1.186 0 1.6 0.349 1.6 1.465v7.684c0 1.115-0.414 1.466-1.6 1.466v0.528h5.92v-0.528c-1.188 0-1.617-0.351-1.617-1.466v-3.586h0.939c1.253 0 2.044 0.573 2.209 1.992h0.645v-4.623h-0.645c-0.362 1.34-0.956 1.881-2.357 1.881h-0.791v-3.395c0-1.069 0.098-1.324 1.318-1.324 1.88 0 3.562 1.245 4.551 2.711l0.56-0.209-0.939-3.123h-9.793zm23.303 0v0.527c1.187 0 1.599 0.35 1.599 1.465v7.684c0 1.115-0.412 1.466-1.599 1.466v0.528h5.902v-0.528c-1.187 0-1.598-0.351-1.598-1.466v-3.571c0.692 0 1.334 0.176 2.323 2.233l0.972 1.992c0.232 0.446 0.431 0.925 0.711 1.34h4.073v-0.528c-1.419-0.096-1.978-1.084-2.588-2.168l-0.893-1.722c-0.28-0.527-0.543-1.083-1.055-1.418 1.583-0.287 3.184-1.116 3.184-2.869 0-1.69-1.501-2.965-3.941-2.965h-7.09zm12.789 0v0.527c1.187 0 1.599 0.351 1.599 1.467v7.682c0 1.116-0.412 1.466-1.599 1.466v0.526h5.738c1.055 0 2.011-0.078 2.885-0.414 1.995-0.748 3.594-2.693 3.594-5.291 0-2.822-1.55-4.719-3.676-5.532-0.858-0.318-1.782-0.431-2.803-0.431h-5.738zm-53.104 0.334c1.764 0 3.051 1.386 3.051 5.5 0 2.167-0.248 5.5-3.248 5.5-1.781 0-2.951-1.515-2.951-5.516 0-3.857 1.252-5.484 3.148-5.484zm34.1 0c1.764 0 3.051 1.386 3.051 5.5 0 2.167-0.248 5.5-3.248 5.5-1.78 0-2.952-1.515-2.952-5.516 0-3.857 1.253-5.484 3.149-5.484zm11.656 0.289c1.764 0 2.721 0.571 2.721 2.181 0 1.69-0.825 2.553-3.545 2.553h-0.313v-3.428c0-0.908 0.048-1.306 1.137-1.306zm12.92 0c2.241 0 3.775 1.004 3.775 4.924 0 4.383-1.533 5.5-3.593 5.5-1.452 0-1.451-0.352-1.451-1.547v-7.395c0-1.004-0.001-1.482 1.269-1.482zm-81.623 15.012v1.404h88.4v-1.404h-88.4zm0 2.808v7.012h88.4v-7.012h-88.4z" transform="matrix(.8 0 0 -.8 443.75 640.84)" fill="#8A6E4B"/></g></svg>