<svg xmlns="http://www.w3.org/2000/svg" width="169.3413" height="41.73462" viewBox="0 0 169.3413 41.73462">
  <title>Xavier wordmark-basketball-fc-lt</title>
  <g id="Layer_2" data-name="Layer 2">
    <g id="wordmark-basketball-fc-lt">
      <path d="M154.17921,25.27911l-.7.62h14.024l-.913-.645c-1.248-.881-1.628-1.272-3.192-3.798-2.827-4.658-3.407-5.524-5.008-6.363,3.78-.995,5.931-3.644,5.931-7.399a6.97229,6.97229,0,0,0-3.606-6.417c-2.147-1.152-8.314-1.277-10.106-1.277h-15.712v.676c1.59.744,2.154,1.952,2.154,4.618v15.38c0,2.53-.48,3.595-2.062,4.568l.005.657h13.906l-1.174-.664c-1.593-.902-2.081-1.964-2.081-4.561v-4.419h1.054a7.56631,7.56631,0,0,1,6.547,3.781,9.69065,9.69065,0,0,1,1.685,4.007c0,.385-.114.67-.752,1.236m-2.954-13.589h-5.58v-7.123h4.87a14.26256,14.26256,0,0,1,2.739.22,3.69676,3.69676,0,0,1,2.646,3.309c0,2.082-1.966,3.594-4.675,3.594" style="fill: #17243d"/>
      <path d="M133.9235,18.82062l-.558-.406a8.91,8.91,0,0,1-3.174,1.97,21.71736,21.71736,0,0,1-6.533.947h-8.182v-6.209h7.343a3.56,3.56,0,0,0,3.4-1.708c.007-.005,1.942-3.375,1.942-3.375l.584-1.019-1.051.526a5.69437,5.69437,0,0,1-2.876.597h-9.342v-5.576h8.118a16.21866,16.21866,0,0,1,8.626,2.185l.788.476-.267-.883-1.291-4.259c.005.025-.075-.327-.075-.327a1.58477,1.58477,0,0,1-.072-.404.90035.90035,0,0,1,.354-.753l.577-.602h-27.35v.64c1.595,1.173,1.984,2.055,1.984,4.485v15.612c0,2.597-.555,3.771-2.115,4.485v.676h27.945l-.707-.623c-.397-.347-.464-.489-.464-.698,0-.097,0-.097.199-.562l2.197-5.195" style="fill: #17243d"/>
      <path d="M80.44071.671a1.54311,1.54311,0,0,1,1.027,1.586,13.07909,13.07909,0,0,1-1.356,4.496c0-.004-4.274,9.52-5.51,12.267L68.6937,5.121a9.123,9.123,0,0,1-.878-3.031c0-.56.159-.9,1.081-1.428L70.0557,0H55.6247l.866.638c.832.616,1.489,1.6,2.603,3.908-.003-.004,9.062,19.645,9.062,19.645a2.227,2.227,0,0,1,.23.752c0,.049,0,.123-.284.299l-1.061.657h12.336l-.673-.615c-.267-.249-.304-.357-.304-.442a4.20284,4.20284,0,0,1,.391-1.187c-.006.006,9.162-19.109,9.162-19.109A15.51138,15.51138,0,0,1,90.2647.857c1.305.799,1.788,1.992,1.788,4.368V20.674c0,2.561-.549,3.754-2.098,4.555v.67h12.391v-.672c-1.544-.767-2.093-1.959-2.093-4.553V5.225c0-2.593.549-3.785,2.093-4.554V0H80.5967Z" style="fill: #17243d"/>
      <path d="M53.058,23.59451a1.79243,1.79243,0,0,1-.797,2.304H63.656l-.365-.551a25.02114,25.02114,0,0,1-2.49-4.388c0,.006-8.454-19.346-8.454-19.346a1.88329,1.88329,0,0,1-.196-.626c0-.116.011-.192.22-.353l.814-.634H39.91l.383.556c.151.214.164.273.164.367,0,.176,0,.18-.219.603-.007.013-9.622,20.665-9.622,20.665-.246.541-.419.913-.583,1.222l-.004-.003c-.048-.046-.095-.096-.143-.147-.098-.099-.194-.201-.293-.31-.062-.062-.121-.128-.181-.195-.103-.108-.204-.222-.303-.337-.053-.059-.108-.118-.159-.179-.156-.179-.319-.367-.483-.562.002.004-3.908-4.943-7.64-9.663l6.957-7.959a20.07317,20.07317,0,0,1,3.488-3.414l.903-.644H20.293l.886.641c.644.467.693.678.693.948a3.69432,3.69432,0,0,1-1.052,2.016c.003-.004-2.509,3.048-3.378,4.107l-2.851-4.09a3.96122,3.96122,0,0,1-.972-1.999c0-.296.099-.639.818-.943l-.138-.68H.147v.684c2.264.891,3.566,2.041,5.762,4.731-.002-.002,3.285,4.161,6.487,8.215l-6.085,6.942A15.82125,15.82125,0,0,1,0,25.22351v.675H12.028l.162-.67c-.893-.461-.937-.676-.937-1.02,0-.461.15-.85,1.047-1.906,0-.003,2.159-2.64,3.535-4.317,1.497,1.897,2.557,3.24,2.557,3.237,1.247,1.613,1.507,2.424,1.507,2.821,0,.311-.092.699-.792,1.215l-.866.64H39.054l-.607-.605a2.49812,2.49812,0,0,1-.991-2.119,4.11961,4.11961,0,0,1,.479-1.942c.002-.002.154-.321.258-.539H51.796Zm-12.729-7.872,4.861-10.78,4.549,10.78Z" style="fill: #17243d"/>
      <path d="M15.69331,2.99292l2.151,2.834.876-1.007-2.878-3.782a1.58263,1.58263,0,0,0-.149,1.955m6.788,9.086,7.232,9.003.619-1.331-6.977-8.676Zm8.784-10.289-7.906,9.285.84,1.046,9.386-11.021a2.33893,2.33893,0,0,0-2.32.69m-17.999,21.215c-.924,1.237.336,1.531.336,1.531l3.056-3.536-.835-1.055Zm76.232-18.824-8.957,18.941a1.69344,1.69344,0,0,0,.461,2.096l10.22-21.612s-1.237-.455-1.724.575m12.103-.167v17.907a1.64257,1.64257,0,0,0,1.302,1.679V2.11191a1.97958,1.97958,0,0,0-1.302,1.902m45.44,6.596h1.302v-4.963h-1.302Zm0,6.725v4.848a1.64164,1.64164,0,0,0,1.302,1.677v-6.508c-.094-.004-.179-.017-.275-.017Zm-30.233,2.883h1.299v-4.074h-1.299Zm0-11.19h1.299l.003-3.44h-1.302Zm-47.35-5.745,5.327,12.68.727-1.623-5.364-12.776s-1.13.662-.69,1.719m-30.697,19.249a1.59148,1.59148,0,0,0,.532,1.981l1.309-2.93h-1.42Zm3.198-7.576h1.426l2.385-5.358-.696-1.645Zm84.977.086a2.55949,2.55949,0,0,0,2.153-1.151l2.16-3.718-1.096-.859Zm38.293,4.525a23.92268,23.92268,0,0,0-2.375-3.79,10.58047,10.58047,0,0,0,4.162-8.237,7.1423,7.1423,0,0,0-4.954-6.949,8.381,8.381,0,0,1,3.737,7.21c0,5.078-4.663,7.641-4.663,7.641s1.468,2.041,2.938,4.517c1.472,2.476,3.099,4.962,5.267,5.262a29.06156,29.06156,0,0,1-4.112-5.654m-111.199-17.13,9.422,21.293c.381.721,1.737.766,1.737.766L54.6823.6929s-1.117.702-.652,1.744" style="fill: #a0a1a1"/>
      <path d="M151.8839,39.51062h-3.732v-7.36a.11035.11035,0,0,0-.109-.111h-2.485a.10951.10951,0,0,0-.108.111v9.312a.10973.10973,0,0,0,.108.112h6.326a.1114.1114,0,0,0,.11-.112v-1.841a.11118.11118,0,0,0-.11-.111m-60.297-5.407v7.359a.112.112,0,0,0,.113.112h2.482a.10955.10955,0,0,0,.107-.112v-7.359h2.186a.11117.11117,0,0,0,.112-.112v-1.841a.111.111,0,0,0-.112-.111h-7.069a.11121.11121,0,0,0-.113.111v1.841a.1114.1114,0,0,0,.113.112Zm-65.793,4.664a2.04036,2.04036,0,0,0-1.728-2.082,2.17813,2.17813,0,0,0,1.489-2.174c0-1.548-1.174-2.472-3.14-2.472h-4.282a.11014.11014,0,0,0-.111.111v9.312a.11034.11034,0,0,0,.111.112h3.921c2.447,0,3.74-.971,3.74-2.807m-5.07-4.744h.609c.962,0,1.52.134,1.52.822,0,.724-.84.876-1.545.876h-.584Zm0,5.567v-1.965h.65c1.031,0,1.718.169,1.718.996,0,.679-.522.969-1.743.969Zm29.86-1.834c.883.267,1.58.477,1.58,1.118,0,.543-.454.796-1.424.796a5.34969,5.34969,0,0,1-2.509-.6.10951.10951,0,0,0-.162.086l-.216,2.055a.10931.10931,0,0,0,.077.117,9.84855,9.84855,0,0,0,2.81.406c1.92,0,4.208-.551,4.208-3.181,0-2.097-1.693-2.572-2.928-2.92-.916-.257-1.477-.44-1.477-.935,0-.671.833-.756,1.557-.756a4.87272,4.87272,0,0,1,2.023.417.11034.11034,0,0,0,.103-.006.107.107,0,0,0,.054-.086l.158-1.921a.10733.10733,0,0,0-.074-.114,7.92143,7.92143,0,0,0-2.437-.353c-1.252,0-4.166.289-4.166,2.966,0,2.059,1.565,2.531,2.823,2.911m32.668,3.818a.11141.11141,0,0,0,.113-.112v-1.76a.11206.11206,0,0,0-.113-.112h-4.117v-1.885h3.744a.10975.10975,0,0,0,.111-.112v-1.761a.1095.1095,0,0,0-.111-.111h-3.744v-1.698h3.97a.11267.11267,0,0,0,.113-.112v-1.761a.11185.11185,0,0,0-.113-.111h-6.562a.10992.10992,0,0,0-.11.111v9.312a.11012.11012,0,0,0,.11.112Zm-51.578,0h2.522a.11542.11542,0,0,0,.105-.072l.705-1.916h3.34l.669,1.913a.10868.10868,0,0,0,.104.075h2.721a.112.112,0,0,0,.104-.152l-3.588-9.312a.10969.10969,0,0,0-.104-.071h-3.041a.11113.11113,0,0,0-.104.072l-3.536,9.312a.117.117,0,0,0,.011.103.11474.11474,0,0,0,.092.048m5.041-7.178.974,3.206h-2.031Zm73.733,4.371a2.04131,2.04131,0,0,0-1.73-2.083,2.17612,2.17612,0,0,0,1.489-2.173c0-1.548-1.174-2.472-3.14-2.472h-4.282a.11013.11013,0,0,0-.111.111v9.312a.11034.11034,0,0,0,.111.112h3.922c2.447,0,3.741-.971,3.741-2.807m-5.072-4.744h.609c.964,0,1.52.134,1.52.822,0,.724-.84.876-1.545.876h-.584Zm0,5.567v-1.965h.65c1.032,0,1.72.169,1.72.996,0,.679-.524.969-1.745.969Zm33.751,1.984a.11056.11056,0,0,0,.112-.112v-1.841a.11034.11034,0,0,0-.112-.111h-3.728v-7.36a.11185.11185,0,0,0-.113-.111h-2.481a.11037.11037,0,0,0-.112.111v9.312a.11056.11056,0,0,0,.112.112Zm-75.006,0a.1114.1114,0,0,0,.113-.112v-3.908l2.718,3.971a.11231.11231,0,0,0,.09.049h3.164a.11111.11111,0,0,0,.1-.062.11334.11334,0,0,0-.011-.116l-3.658-4.907,3.39-4.27a.11032.11032,0,0,0,.012-.117.11175.11175,0,0,0-.101-.063h-2.986a.11.11,0,0,0-.091.045l-2.627,3.566v-3.5a.11121.11121,0,0,0-.113-.111h-2.481a.11014.11014,0,0,0-.111.111v9.312a.11034.11034,0,0,0,.111.112Zm52.207,0h2.522a.116.116,0,0,0,.103-.072l.706-1.916h3.339l.669,1.913a.11056.11056,0,0,0,.104.075h2.723a.11448.11448,0,0,0,.092-.049.12013.12013,0,0,0,.012-.103l-3.588-9.312a.112.112,0,0,0-.105-.071h-3.04a.11049.11049,0,0,0-.105.072l-3.535,9.312a.108.108,0,0,0,.01.103.11241.11241,0,0,0,.093.048m5.039-7.178.975,3.206h-2.032Z" style="fill: #a0a1a1"/>
    </g>
  </g>
</svg>
